<mxfile host="app.diagrams.net" modified="2023-09-13T00:32:20.419Z" agent="Mozilla/5.0 (Macintosh; Intel Mac OS X 10_15_7) AppleWebKit/605.1.15 (KHTML, like Gecko) Version/16.6 Safari/605.1.15" etag="6vFnqgQ_CHsWiztIoTZe" version="21.7.4" type="device" pages="6">
  <diagram id="ljLdvF4rj5RvS0HGzwe9" name="Page-1">
    <mxGraphModel dx="766" dy="471" grid="1" gridSize="10" guides="1" tooltips="1" connect="1" arrows="1" fold="1" page="1" pageScale="1" pageWidth="850" pageHeight="1100" math="0" shadow="0">
      <root>
        <mxCell id="0" />
        <mxCell id="1" parent="0" />
        <mxCell id="g9nVOY-JKxFOEuO72Myu-1" value="Ingress: Update Accelerator State?" style="rounded=1;whiteSpace=wrap;html=1;fillColor=#E6E6E6;strokeWidth=2;align=center;" parent="1" vertex="1">
          <mxGeometry x="50" y="55" width="80" height="200" as="geometry" />
        </mxCell>
        <mxCell id="g9nVOY-JKxFOEuO72Myu-2" value="" style="endArrow=classic;html=1;rounded=0;strokeWidth=2;" parent="1" edge="1">
          <mxGeometry width="50" height="50" relative="1" as="geometry">
            <mxPoint x="10" y="135" as="sourcePoint" />
            <mxPoint x="50" y="135" as="targetPoint" />
          </mxGeometry>
        </mxCell>
        <mxCell id="g9nVOY-JKxFOEuO72Myu-6" value="&lt;b&gt;Pkt in&lt;/b&gt;" style="text;html=1;strokeColor=none;fillColor=none;align=center;verticalAlign=middle;whiteSpace=wrap;rounded=0;" parent="1" vertex="1">
          <mxGeometry x="1" y="105" width="40" height="20" as="geometry" />
        </mxCell>
        <mxCell id="uC3ZRdDW4r8S9prqQ-vN-1" value="" style="endArrow=classic;html=1;rounded=0;strokeWidth=2;" parent="1" edge="1">
          <mxGeometry width="50" height="50" relative="1" as="geometry">
            <mxPoint x="131" y="95" as="sourcePoint" />
            <mxPoint x="171" y="95" as="targetPoint" />
          </mxGeometry>
        </mxCell>
        <mxCell id="uC3ZRdDW4r8S9prqQ-vN-2" value="No" style="text;html=1;strokeColor=none;fillColor=none;align=center;verticalAlign=middle;whiteSpace=wrap;rounded=0;" parent="1" vertex="1">
          <mxGeometry x="139" y="68" width="20" height="30" as="geometry" />
        </mxCell>
        <mxCell id="uC3ZRdDW4r8S9prqQ-vN-3" value="&lt;i&gt;Bloom Filter&lt;/i&gt;" style="rounded=1;whiteSpace=wrap;html=1;fillColor=#E6E6E6;strokeWidth=2;align=center;dashed=1;dashPattern=1 1;" parent="1" vertex="1">
          <mxGeometry x="171" y="75" width="40" height="40" as="geometry" />
        </mxCell>
        <mxCell id="uC3ZRdDW4r8S9prqQ-vN-8" value="Miss" style="text;html=1;strokeColor=none;fillColor=none;align=center;verticalAlign=middle;whiteSpace=wrap;rounded=0;" parent="1" vertex="1">
          <mxGeometry x="221" y="75" width="20" height="10" as="geometry" />
        </mxCell>
        <mxCell id="uC3ZRdDW4r8S9prqQ-vN-15" value="" style="shape=table;html=1;whiteSpace=wrap;startSize=0;container=1;collapsible=0;childLayout=tableLayout;strokeWidth=2;" parent="1" vertex="1">
          <mxGeometry x="252" y="54" width="90" height="80" as="geometry" />
        </mxCell>
        <mxCell id="uC3ZRdDW4r8S9prqQ-vN-16" value="" style="shape=tableRow;horizontal=0;startSize=0;swimlaneHead=0;swimlaneBody=0;top=0;left=0;bottom=0;right=0;collapsible=0;dropTarget=0;fillColor=none;points=[[0,0.5],[1,0.5]];portConstraint=eastwest;" parent="uC3ZRdDW4r8S9prqQ-vN-15" vertex="1">
          <mxGeometry width="90" height="21" as="geometry" />
        </mxCell>
        <mxCell id="uC3ZRdDW4r8S9prqQ-vN-17" value="&lt;b&gt;hash&lt;sub&gt;s&lt;/sub&gt;&lt;/b&gt;" style="shape=partialRectangle;html=1;whiteSpace=wrap;connectable=0;fillColor=none;top=0;left=0;bottom=0;right=0;overflow=hidden;" parent="uC3ZRdDW4r8S9prqQ-vN-16" vertex="1">
          <mxGeometry width="45" height="21" as="geometry">
            <mxRectangle width="45" height="21" as="alternateBounds" />
          </mxGeometry>
        </mxCell>
        <mxCell id="uC3ZRdDW4r8S9prqQ-vN-18" value="&lt;b&gt;S-code&lt;/b&gt;" style="shape=partialRectangle;html=1;whiteSpace=wrap;connectable=0;fillColor=none;top=0;left=0;bottom=0;right=0;overflow=hidden;" parent="uC3ZRdDW4r8S9prqQ-vN-16" vertex="1">
          <mxGeometry x="45" width="45" height="21" as="geometry">
            <mxRectangle width="45" height="21" as="alternateBounds" />
          </mxGeometry>
        </mxCell>
        <mxCell id="uC3ZRdDW4r8S9prqQ-vN-20" value="" style="shape=tableRow;horizontal=0;startSize=0;swimlaneHead=0;swimlaneBody=0;top=0;left=0;bottom=0;right=0;collapsible=0;dropTarget=0;fillColor=none;points=[[0,0.5],[1,0.5]];portConstraint=eastwest;" parent="uC3ZRdDW4r8S9prqQ-vN-15" vertex="1">
          <mxGeometry y="21" width="90" height="19" as="geometry" />
        </mxCell>
        <mxCell id="uC3ZRdDW4r8S9prqQ-vN-21" value="....." style="shape=partialRectangle;html=1;whiteSpace=wrap;connectable=0;fillColor=none;top=0;left=0;bottom=0;right=0;overflow=hidden;" parent="uC3ZRdDW4r8S9prqQ-vN-20" vertex="1">
          <mxGeometry width="45" height="19" as="geometry">
            <mxRectangle width="45" height="19" as="alternateBounds" />
          </mxGeometry>
        </mxCell>
        <mxCell id="uC3ZRdDW4r8S9prqQ-vN-22" value="....." style="shape=partialRectangle;html=1;whiteSpace=wrap;connectable=0;fillColor=none;top=0;left=0;bottom=0;right=0;overflow=hidden;" parent="uC3ZRdDW4r8S9prqQ-vN-20" vertex="1">
          <mxGeometry x="45" width="45" height="19" as="geometry">
            <mxRectangle width="45" height="19" as="alternateBounds" />
          </mxGeometry>
        </mxCell>
        <mxCell id="uC3ZRdDW4r8S9prqQ-vN-24" value="" style="shape=tableRow;horizontal=0;startSize=0;swimlaneHead=0;swimlaneBody=0;top=0;left=0;bottom=0;right=0;collapsible=0;dropTarget=0;fillColor=none;points=[[0,0.5],[1,0.5]];portConstraint=eastwest;" parent="uC3ZRdDW4r8S9prqQ-vN-15" vertex="1">
          <mxGeometry y="40" width="90" height="21" as="geometry" />
        </mxCell>
        <mxCell id="uC3ZRdDW4r8S9prqQ-vN-25" value="0002" style="shape=partialRectangle;html=1;whiteSpace=wrap;connectable=0;fillColor=none;top=0;left=0;bottom=0;right=0;overflow=hidden;" parent="uC3ZRdDW4r8S9prqQ-vN-24" vertex="1">
          <mxGeometry width="45" height="21" as="geometry">
            <mxRectangle width="45" height="21" as="alternateBounds" />
          </mxGeometry>
        </mxCell>
        <mxCell id="uC3ZRdDW4r8S9prqQ-vN-26" value="S2" style="shape=partialRectangle;html=1;whiteSpace=wrap;connectable=0;fillColor=none;top=0;left=0;bottom=0;right=0;overflow=hidden;" parent="uC3ZRdDW4r8S9prqQ-vN-24" vertex="1">
          <mxGeometry x="45" width="45" height="21" as="geometry">
            <mxRectangle width="45" height="21" as="alternateBounds" />
          </mxGeometry>
        </mxCell>
        <mxCell id="uC3ZRdDW4r8S9prqQ-vN-28" style="shape=tableRow;horizontal=0;startSize=0;swimlaneHead=0;swimlaneBody=0;top=0;left=0;bottom=0;right=0;collapsible=0;dropTarget=0;fillColor=none;points=[[0,0.5],[1,0.5]];portConstraint=eastwest;" parent="uC3ZRdDW4r8S9prqQ-vN-15" vertex="1">
          <mxGeometry y="61" width="90" height="19" as="geometry" />
        </mxCell>
        <mxCell id="uC3ZRdDW4r8S9prqQ-vN-29" value="0003" style="shape=partialRectangle;html=1;whiteSpace=wrap;connectable=0;fillColor=none;top=0;left=0;bottom=0;right=0;overflow=hidden;" parent="uC3ZRdDW4r8S9prqQ-vN-28" vertex="1">
          <mxGeometry width="45" height="19" as="geometry">
            <mxRectangle width="45" height="19" as="alternateBounds" />
          </mxGeometry>
        </mxCell>
        <mxCell id="uC3ZRdDW4r8S9prqQ-vN-30" value="S1" style="shape=partialRectangle;html=1;whiteSpace=wrap;connectable=0;fillColor=none;top=0;left=0;bottom=0;right=0;overflow=hidden;" parent="uC3ZRdDW4r8S9prqQ-vN-28" vertex="1">
          <mxGeometry x="45" width="45" height="19" as="geometry">
            <mxRectangle width="45" height="19" as="alternateBounds" />
          </mxGeometry>
        </mxCell>
        <mxCell id="uC3ZRdDW4r8S9prqQ-vN-31" value="" style="endArrow=classic;html=1;rounded=0;strokeWidth=2;" parent="1" edge="1">
          <mxGeometry width="50" height="50" relative="1" as="geometry">
            <mxPoint x="211" y="95" as="sourcePoint" />
            <mxPoint x="251" y="95" as="targetPoint" />
          </mxGeometry>
        </mxCell>
        <mxCell id="uC3ZRdDW4r8S9prqQ-vN-33" value="" style="rounded=1;whiteSpace=wrap;html=1;strokeWidth=2;fillColor=#f5f5f5;fontColor=#333333;strokeColor=#999999;" parent="1" vertex="1">
          <mxGeometry x="191" y="155" width="380" height="160" as="geometry" />
        </mxCell>
        <mxCell id="uC3ZRdDW4r8S9prqQ-vN-143" value="" style="group" parent="1" vertex="1" connectable="0">
          <mxGeometry x="221" y="165" width="151" height="122" as="geometry" />
        </mxCell>
        <mxCell id="uC3ZRdDW4r8S9prqQ-vN-138" value="" style="rounded=1;whiteSpace=wrap;html=1;strokeWidth=2;fillColor=#E6E6E6;" parent="uC3ZRdDW4r8S9prqQ-vN-143" vertex="1">
          <mxGeometry x="11" y="12" width="140" height="110" as="geometry" />
        </mxCell>
        <mxCell id="uC3ZRdDW4r8S9prqQ-vN-137" value="" style="rounded=1;whiteSpace=wrap;html=1;strokeWidth=2;fillColor=#E6E6E6;" parent="uC3ZRdDW4r8S9prqQ-vN-143" vertex="1">
          <mxGeometry x="6" y="6" width="140" height="110" as="geometry" />
        </mxCell>
        <mxCell id="uC3ZRdDW4r8S9prqQ-vN-136" value="" style="rounded=1;whiteSpace=wrap;html=1;strokeWidth=2;fillColor=#E6E6E6;" parent="uC3ZRdDW4r8S9prqQ-vN-143" vertex="1">
          <mxGeometry width="140" height="110" as="geometry" />
        </mxCell>
        <mxCell id="uC3ZRdDW4r8S9prqQ-vN-58" value="&lt;i&gt;&lt;font style=&quot;font-size: 12px;&quot;&gt;AccelStateTable&lt;/font&gt;&lt;/i&gt;" style="text;strokeColor=none;fillColor=none;align=left;verticalAlign=middle;spacingLeft=4;spacingRight=4;overflow=hidden;points=[[0,0.5],[1,0.5]];portConstraint=eastwest;rotatable=1;whiteSpace=wrap;html=1;strokeWidth=2;movable=1;resizable=1;deletable=1;editable=1;connectable=1;" parent="uC3ZRdDW4r8S9prqQ-vN-143" vertex="1">
          <mxGeometry x="18" y="85" width="110" height="25" as="geometry" />
        </mxCell>
        <mxCell id="uC3ZRdDW4r8S9prqQ-vN-35" value="" style="shape=table;html=1;whiteSpace=wrap;startSize=0;container=1;collapsible=0;childLayout=tableLayout;strokeWidth=2;movable=1;resizable=1;rotatable=1;deletable=1;editable=1;connectable=1;" parent="uC3ZRdDW4r8S9prqQ-vN-143" vertex="1">
          <mxGeometry x="10" y="7" width="120" height="81" as="geometry" />
        </mxCell>
        <mxCell id="uC3ZRdDW4r8S9prqQ-vN-36" value="" style="shape=tableRow;horizontal=0;startSize=0;swimlaneHead=0;swimlaneBody=0;top=0;left=0;bottom=0;right=0;collapsible=0;dropTarget=0;fillColor=none;points=[[0,0.5],[1,0.5]];portConstraint=eastwest;strokeWidth=2;movable=1;resizable=1;rotatable=1;deletable=1;editable=1;connectable=1;" parent="uC3ZRdDW4r8S9prqQ-vN-35" vertex="1">
          <mxGeometry width="120" height="21" as="geometry" />
        </mxCell>
        <mxCell id="uC3ZRdDW4r8S9prqQ-vN-37" value="&lt;b&gt;D-id&lt;/b&gt;" style="shape=partialRectangle;html=1;whiteSpace=wrap;connectable=1;fillColor=none;top=0;left=0;bottom=0;right=0;overflow=hidden;strokeWidth=2;movable=1;resizable=1;rotatable=1;deletable=1;editable=1;" parent="uC3ZRdDW4r8S9prqQ-vN-36" vertex="1">
          <mxGeometry width="30" height="21" as="geometry">
            <mxRectangle width="30" height="21" as="alternateBounds" />
          </mxGeometry>
        </mxCell>
        <mxCell id="uC3ZRdDW4r8S9prqQ-vN-38" value="&lt;b&gt;R&lt;sub&gt;1&lt;/sub&gt;&lt;/b&gt;" style="shape=partialRectangle;html=1;whiteSpace=wrap;connectable=1;fillColor=none;top=0;left=0;bottom=0;right=0;overflow=hidden;strokeWidth=2;movable=1;resizable=1;rotatable=1;deletable=1;editable=1;" parent="uC3ZRdDW4r8S9prqQ-vN-36" vertex="1">
          <mxGeometry x="30" width="30" height="21" as="geometry">
            <mxRectangle width="30" height="21" as="alternateBounds" />
          </mxGeometry>
        </mxCell>
        <mxCell id="uC3ZRdDW4r8S9prqQ-vN-39" value="&lt;b&gt;....&lt;/b&gt;" style="shape=partialRectangle;html=1;whiteSpace=wrap;connectable=1;fillColor=none;top=0;left=0;bottom=0;right=0;overflow=hidden;strokeWidth=2;movable=1;resizable=1;rotatable=1;deletable=1;editable=1;" parent="uC3ZRdDW4r8S9prqQ-vN-36" vertex="1">
          <mxGeometry x="60" width="30" height="21" as="geometry">
            <mxRectangle width="30" height="21" as="alternateBounds" />
          </mxGeometry>
        </mxCell>
        <mxCell id="uC3ZRdDW4r8S9prqQ-vN-48" value="&lt;b&gt;R&lt;sub&gt;n&lt;/sub&gt;&lt;/b&gt;" style="shape=partialRectangle;html=1;whiteSpace=wrap;connectable=1;fillColor=none;top=0;left=0;bottom=0;right=0;overflow=hidden;strokeWidth=2;movable=1;resizable=1;rotatable=1;deletable=1;editable=1;" parent="uC3ZRdDW4r8S9prqQ-vN-36" vertex="1">
          <mxGeometry x="90" width="30" height="21" as="geometry">
            <mxRectangle width="30" height="21" as="alternateBounds" />
          </mxGeometry>
        </mxCell>
        <mxCell id="uC3ZRdDW4r8S9prqQ-vN-51" style="shape=tableRow;horizontal=0;startSize=0;swimlaneHead=0;swimlaneBody=0;top=0;left=0;bottom=0;right=0;collapsible=0;dropTarget=0;fillColor=none;points=[[0,0.5],[1,0.5]];portConstraint=eastwest;strokeWidth=2;movable=1;resizable=1;rotatable=1;deletable=1;editable=1;connectable=1;" parent="uC3ZRdDW4r8S9prqQ-vN-35" vertex="1">
          <mxGeometry y="21" width="120" height="20" as="geometry" />
        </mxCell>
        <mxCell id="uC3ZRdDW4r8S9prqQ-vN-52" value="&lt;b&gt;D&lt;sub&gt;1&lt;/sub&gt;&lt;/b&gt;" style="shape=partialRectangle;html=1;whiteSpace=wrap;connectable=1;fillColor=none;top=0;left=0;bottom=0;right=0;overflow=hidden;strokeWidth=2;movable=1;resizable=1;rotatable=1;deletable=1;editable=1;" parent="uC3ZRdDW4r8S9prqQ-vN-51" vertex="1">
          <mxGeometry width="30" height="20" as="geometry">
            <mxRectangle width="30" height="20" as="alternateBounds" />
          </mxGeometry>
        </mxCell>
        <mxCell id="uC3ZRdDW4r8S9prqQ-vN-53" value="101" style="shape=partialRectangle;html=1;whiteSpace=wrap;connectable=1;fillColor=none;top=0;left=0;bottom=0;right=0;overflow=hidden;strokeWidth=2;movable=1;resizable=1;rotatable=1;deletable=1;editable=1;" parent="uC3ZRdDW4r8S9prqQ-vN-51" vertex="1">
          <mxGeometry x="30" width="30" height="20" as="geometry">
            <mxRectangle width="30" height="20" as="alternateBounds" />
          </mxGeometry>
        </mxCell>
        <mxCell id="uC3ZRdDW4r8S9prqQ-vN-54" style="shape=partialRectangle;html=1;whiteSpace=wrap;connectable=1;fillColor=none;top=0;left=0;bottom=0;right=0;overflow=hidden;strokeWidth=2;movable=1;resizable=1;rotatable=1;deletable=1;editable=1;" parent="uC3ZRdDW4r8S9prqQ-vN-51" vertex="1">
          <mxGeometry x="60" width="30" height="20" as="geometry">
            <mxRectangle width="30" height="20" as="alternateBounds" />
          </mxGeometry>
        </mxCell>
        <mxCell id="uC3ZRdDW4r8S9prqQ-vN-55" style="shape=partialRectangle;html=1;whiteSpace=wrap;connectable=1;fillColor=none;top=0;left=0;bottom=0;right=0;overflow=hidden;strokeWidth=2;movable=1;resizable=1;rotatable=1;deletable=1;editable=1;" parent="uC3ZRdDW4r8S9prqQ-vN-51" vertex="1">
          <mxGeometry x="90" width="30" height="20" as="geometry">
            <mxRectangle width="30" height="20" as="alternateBounds" />
          </mxGeometry>
        </mxCell>
        <mxCell id="uC3ZRdDW4r8S9prqQ-vN-40" value="" style="shape=tableRow;horizontal=0;startSize=0;swimlaneHead=0;swimlaneBody=0;top=0;left=0;bottom=0;right=0;collapsible=0;dropTarget=0;fillColor=none;points=[[0,0.5],[1,0.5]];portConstraint=eastwest;strokeWidth=2;movable=1;resizable=1;rotatable=1;deletable=1;editable=1;connectable=1;" parent="uC3ZRdDW4r8S9prqQ-vN-35" vertex="1">
          <mxGeometry y="41" width="120" height="21" as="geometry" />
        </mxCell>
        <mxCell id="uC3ZRdDW4r8S9prqQ-vN-41" value="&lt;b&gt;....&lt;/b&gt;" style="shape=partialRectangle;html=1;whiteSpace=wrap;connectable=1;fillColor=none;top=0;left=0;bottom=0;right=0;overflow=hidden;strokeWidth=2;movable=1;resizable=1;rotatable=1;deletable=1;editable=1;" parent="uC3ZRdDW4r8S9prqQ-vN-40" vertex="1">
          <mxGeometry width="30" height="21" as="geometry">
            <mxRectangle width="30" height="21" as="alternateBounds" />
          </mxGeometry>
        </mxCell>
        <mxCell id="uC3ZRdDW4r8S9prqQ-vN-42" value="..." style="shape=partialRectangle;html=1;whiteSpace=wrap;connectable=1;fillColor=none;top=0;left=0;bottom=0;right=0;overflow=hidden;strokeWidth=2;movable=1;resizable=1;rotatable=1;deletable=1;editable=1;" parent="uC3ZRdDW4r8S9prqQ-vN-40" vertex="1">
          <mxGeometry x="30" width="30" height="21" as="geometry">
            <mxRectangle width="30" height="21" as="alternateBounds" />
          </mxGeometry>
        </mxCell>
        <mxCell id="uC3ZRdDW4r8S9prqQ-vN-43" value="" style="shape=partialRectangle;html=1;whiteSpace=wrap;connectable=1;fillColor=none;top=0;left=0;bottom=0;right=0;overflow=hidden;strokeWidth=2;movable=1;resizable=1;rotatable=1;deletable=1;editable=1;" parent="uC3ZRdDW4r8S9prqQ-vN-40" vertex="1">
          <mxGeometry x="60" width="30" height="21" as="geometry">
            <mxRectangle width="30" height="21" as="alternateBounds" />
          </mxGeometry>
        </mxCell>
        <mxCell id="uC3ZRdDW4r8S9prqQ-vN-49" style="shape=partialRectangle;html=1;whiteSpace=wrap;connectable=1;fillColor=none;top=0;left=0;bottom=0;right=0;overflow=hidden;strokeWidth=2;movable=1;resizable=1;rotatable=1;deletable=1;editable=1;" parent="uC3ZRdDW4r8S9prqQ-vN-40" vertex="1">
          <mxGeometry x="90" width="30" height="21" as="geometry">
            <mxRectangle width="30" height="21" as="alternateBounds" />
          </mxGeometry>
        </mxCell>
        <mxCell id="uC3ZRdDW4r8S9prqQ-vN-44" value="" style="shape=tableRow;horizontal=0;startSize=0;swimlaneHead=0;swimlaneBody=0;top=0;left=0;bottom=0;right=0;collapsible=0;dropTarget=0;fillColor=none;points=[[0,0.5],[1,0.5]];portConstraint=eastwest;strokeWidth=2;movable=1;resizable=1;rotatable=1;deletable=1;editable=1;connectable=1;" parent="uC3ZRdDW4r8S9prqQ-vN-35" vertex="1">
          <mxGeometry y="62" width="120" height="19" as="geometry" />
        </mxCell>
        <mxCell id="uC3ZRdDW4r8S9prqQ-vN-45" value="&lt;b&gt;D&lt;sub&gt;m&lt;/sub&gt;&lt;/b&gt;" style="shape=partialRectangle;html=1;whiteSpace=wrap;connectable=1;fillColor=none;top=0;left=0;bottom=0;right=0;overflow=hidden;strokeWidth=2;movable=1;resizable=1;rotatable=1;deletable=1;editable=1;" parent="uC3ZRdDW4r8S9prqQ-vN-44" vertex="1">
          <mxGeometry width="30" height="19" as="geometry">
            <mxRectangle width="30" height="19" as="alternateBounds" />
          </mxGeometry>
        </mxCell>
        <mxCell id="uC3ZRdDW4r8S9prqQ-vN-46" value="011" style="shape=partialRectangle;html=1;whiteSpace=wrap;connectable=1;fillColor=none;top=0;left=0;bottom=0;right=0;overflow=hidden;strokeWidth=2;movable=1;resizable=1;rotatable=1;deletable=1;editable=1;" parent="uC3ZRdDW4r8S9prqQ-vN-44" vertex="1">
          <mxGeometry x="30" width="30" height="19" as="geometry">
            <mxRectangle width="30" height="19" as="alternateBounds" />
          </mxGeometry>
        </mxCell>
        <mxCell id="uC3ZRdDW4r8S9prqQ-vN-47" value="" style="shape=partialRectangle;html=1;whiteSpace=wrap;connectable=1;fillColor=none;top=0;left=0;bottom=0;right=0;overflow=hidden;pointerEvents=1;strokeWidth=2;movable=1;resizable=1;rotatable=1;deletable=1;editable=1;" parent="uC3ZRdDW4r8S9prqQ-vN-44" vertex="1">
          <mxGeometry x="60" width="30" height="19" as="geometry">
            <mxRectangle width="30" height="19" as="alternateBounds" />
          </mxGeometry>
        </mxCell>
        <mxCell id="uC3ZRdDW4r8S9prqQ-vN-50" style="shape=partialRectangle;html=1;whiteSpace=wrap;connectable=1;fillColor=none;top=0;left=0;bottom=0;right=0;overflow=hidden;pointerEvents=1;strokeWidth=2;movable=1;resizable=1;rotatable=1;deletable=1;editable=1;" parent="uC3ZRdDW4r8S9prqQ-vN-44" vertex="1">
          <mxGeometry x="90" width="30" height="19" as="geometry">
            <mxRectangle width="30" height="19" as="alternateBounds" />
          </mxGeometry>
        </mxCell>
        <mxCell id="uC3ZRdDW4r8S9prqQ-vN-147" value="" style="endArrow=classic;html=1;rounded=0;fontSize=12;strokeWidth=2;" parent="1" edge="1">
          <mxGeometry width="50" height="50" relative="1" as="geometry">
            <mxPoint x="131" y="215" as="sourcePoint" />
            <mxPoint x="221" y="215" as="targetPoint" />
          </mxGeometry>
        </mxCell>
        <mxCell id="uC3ZRdDW4r8S9prqQ-vN-154" value="&lt;b style=&quot;caret-color: rgb(0, 0, 0); color: rgb(0, 0, 0); font-family: Helvetica; font-size: 12px; font-style: normal; font-variant-caps: normal; letter-spacing: normal; text-align: center; text-indent: 0px; text-transform: none; word-spacing: 0px; -webkit-text-stroke-width: 0px; text-decoration: none;&quot;&gt;Round-Robin Blocks&lt;/b&gt;" style="text;whiteSpace=wrap;html=1;fontSize=12;" parent="1" vertex="1">
          <mxGeometry x="411.5" y="285" width="140" height="20" as="geometry" />
        </mxCell>
        <mxCell id="uC3ZRdDW4r8S9prqQ-vN-155" value="&lt;b style=&quot;caret-color: rgb(0, 0, 0); color: rgb(0, 0, 0); font-family: Helvetica; font-size: 12px; font-style: normal; font-variant-caps: normal; letter-spacing: normal; text-align: center; text-indent: 0px; text-transform: none; word-spacing: 0px; -webkit-text-stroke-width: 0px; text-decoration: none;&quot;&gt;Minimum Finder Blocks&lt;/b&gt;" style="text;whiteSpace=wrap;html=1;fontSize=12;" parent="1" vertex="1">
          <mxGeometry x="227" y="285" width="140" height="20" as="geometry" />
        </mxCell>
        <mxCell id="uC3ZRdDW4r8S9prqQ-vN-208" value="" style="group" parent="1" vertex="1" connectable="0">
          <mxGeometry x="402" y="219" width="140.5" height="60" as="geometry" />
        </mxCell>
        <mxCell id="uC3ZRdDW4r8S9prqQ-vN-207" value="" style="rounded=1;whiteSpace=wrap;html=1;strokeWidth=2;fillColor=#E6E6E6;container=0;" parent="uC3ZRdDW4r8S9prqQ-vN-208" vertex="1">
          <mxGeometry x="10.5" y="12" width="130" height="48" as="geometry" />
        </mxCell>
        <mxCell id="uC3ZRdDW4r8S9prqQ-vN-206" value="" style="rounded=1;whiteSpace=wrap;html=1;strokeWidth=2;fillColor=#E6E6E6;container=0;" parent="uC3ZRdDW4r8S9prqQ-vN-208" vertex="1">
          <mxGeometry x="6" y="6" width="130" height="48" as="geometry" />
        </mxCell>
        <mxCell id="uC3ZRdDW4r8S9prqQ-vN-141" value="" style="rounded=1;whiteSpace=wrap;html=1;strokeWidth=2;fillColor=#E6E6E6;container=0;" parent="uC3ZRdDW4r8S9prqQ-vN-208" vertex="1">
          <mxGeometry width="130" height="48" as="geometry" />
        </mxCell>
        <mxCell id="uC3ZRdDW4r8S9prqQ-vN-203" value="&lt;i&gt;&lt;font style=&quot;font-size: 12px;&quot;&gt;RingBuffer&lt;/font&gt;&lt;/i&gt;" style="text;strokeColor=none;fillColor=none;align=left;verticalAlign=middle;spacingLeft=4;spacingRight=4;overflow=hidden;points=[[0,0.5],[1,0.5]];portConstraint=eastwest;rotatable=1;whiteSpace=wrap;html=1;strokeWidth=2;movable=1;resizable=1;deletable=1;editable=1;connectable=1;container=0;" parent="uC3ZRdDW4r8S9prqQ-vN-208" vertex="1">
          <mxGeometry x="25.5" y="25" width="79" height="25" as="geometry" />
        </mxCell>
        <mxCell id="uC3ZRdDW4r8S9prqQ-vN-184" value="" style="shape=table;html=1;whiteSpace=wrap;startSize=0;container=1;collapsible=0;childLayout=tableLayout;strokeWidth=2;fontSize=12;" parent="uC3ZRdDW4r8S9prqQ-vN-208" vertex="1">
          <mxGeometry x="10.5" y="6" width="109" height="20" as="geometry" />
        </mxCell>
        <mxCell id="uC3ZRdDW4r8S9prqQ-vN-185" value="" style="shape=tableRow;horizontal=0;startSize=0;swimlaneHead=0;swimlaneBody=0;top=0;left=0;bottom=0;right=0;collapsible=0;dropTarget=0;fillColor=none;points=[[0,0.5],[1,0.5]];portConstraint=eastwest;strokeWidth=2;fontSize=12;" parent="uC3ZRdDW4r8S9prqQ-vN-184" vertex="1">
          <mxGeometry width="109" height="20" as="geometry" />
        </mxCell>
        <mxCell id="uC3ZRdDW4r8S9prqQ-vN-186" value="D&lt;sub&gt;1&lt;/sub&gt;" style="shape=partialRectangle;html=1;whiteSpace=wrap;connectable=0;fillColor=none;top=0;left=0;bottom=0;right=0;overflow=hidden;strokeWidth=2;fontSize=12;" parent="uC3ZRdDW4r8S9prqQ-vN-185" vertex="1">
          <mxGeometry width="22" height="20" as="geometry">
            <mxRectangle width="22" height="20" as="alternateBounds" />
          </mxGeometry>
        </mxCell>
        <mxCell id="uC3ZRdDW4r8S9prqQ-vN-187" value="D&lt;sub&gt;3&lt;/sub&gt;" style="shape=partialRectangle;html=1;whiteSpace=wrap;connectable=0;fillColor=none;top=0;left=0;bottom=0;right=0;overflow=hidden;strokeWidth=2;fontSize=12;" parent="uC3ZRdDW4r8S9prqQ-vN-185" vertex="1">
          <mxGeometry x="22" width="22" height="20" as="geometry">
            <mxRectangle width="22" height="20" as="alternateBounds" />
          </mxGeometry>
        </mxCell>
        <mxCell id="uC3ZRdDW4r8S9prqQ-vN-202" value="..." style="shape=partialRectangle;html=1;whiteSpace=wrap;connectable=0;fillColor=none;top=0;left=0;bottom=0;right=0;overflow=hidden;strokeWidth=2;fontSize=12;" parent="uC3ZRdDW4r8S9prqQ-vN-185" vertex="1">
          <mxGeometry x="44" width="21" height="20" as="geometry">
            <mxRectangle width="21" height="20" as="alternateBounds" />
          </mxGeometry>
        </mxCell>
        <mxCell id="uC3ZRdDW4r8S9prqQ-vN-201" style="shape=partialRectangle;html=1;whiteSpace=wrap;connectable=0;fillColor=none;top=0;left=0;bottom=0;right=0;overflow=hidden;strokeWidth=2;fontSize=12;" parent="uC3ZRdDW4r8S9prqQ-vN-185" vertex="1">
          <mxGeometry x="65" width="22" height="20" as="geometry">
            <mxRectangle width="22" height="20" as="alternateBounds" />
          </mxGeometry>
        </mxCell>
        <mxCell id="uC3ZRdDW4r8S9prqQ-vN-200" style="shape=partialRectangle;html=1;whiteSpace=wrap;connectable=0;fillColor=none;top=0;left=0;bottom=0;right=0;overflow=hidden;strokeWidth=2;fontSize=12;" parent="uC3ZRdDW4r8S9prqQ-vN-185" vertex="1">
          <mxGeometry x="87" width="22" height="20" as="geometry">
            <mxRectangle width="22" height="20" as="alternateBounds" />
          </mxGeometry>
        </mxCell>
        <mxCell id="uC3ZRdDW4r8S9prqQ-vN-210" value="Yes" style="text;html=1;strokeColor=none;fillColor=none;align=center;verticalAlign=middle;whiteSpace=wrap;rounded=0;" parent="1" vertex="1">
          <mxGeometry x="141" y="191" width="20" height="26" as="geometry" />
        </mxCell>
        <mxCell id="uC3ZRdDW4r8S9prqQ-vN-211" value="&lt;font face=&quot;Helvetica&quot;&gt;&lt;i&gt;Select the final destination based on the active policy&lt;/i&gt;&lt;/font&gt;" style="rounded=1;whiteSpace=wrap;html=1;strokeWidth=2;fontFamily=Times New Roman;fontSize=12;fillColor=#E6E6E6;arcSize=37;strokeColor=#000000;dashed=1;dashPattern=1 1;" parent="1" vertex="1">
          <mxGeometry x="380" y="55" width="140" height="70" as="geometry" />
        </mxCell>
        <mxCell id="uC3ZRdDW4r8S9prqQ-vN-218" value="" style="shape=flexArrow;endArrow=classic;html=1;rounded=0;strokeWidth=2;fontFamily=Helvetica;fontSize=12;width=6.285714285714286;endSize=3.7560000000000002;fillColor=#f5f5f5;strokeColor=#999999;endWidth=16.685714285714287;" parent="1" edge="1">
          <mxGeometry width="50" height="50" relative="1" as="geometry">
            <mxPoint x="458.21" y="156" as="sourcePoint" />
            <mxPoint x="458.42" y="125" as="targetPoint" />
          </mxGeometry>
        </mxCell>
        <mxCell id="uC3ZRdDW4r8S9prqQ-vN-220" value="Egress:&lt;br&gt;Map Packet&lt;br&gt;to an output&lt;br&gt;port" style="rounded=1;whiteSpace=wrap;html=1;fillColor=#E6E6E6;strokeWidth=2;align=center;" parent="1" vertex="1">
          <mxGeometry x="710" y="55" width="80" height="200" as="geometry" />
        </mxCell>
        <mxCell id="uC3ZRdDW4r8S9prqQ-vN-221" value="" style="shape=table;html=1;whiteSpace=wrap;startSize=0;container=1;collapsible=0;childLayout=tableLayout;strokeWidth=2;" parent="1" vertex="1">
          <mxGeometry x="560" y="44.5" width="110" height="101" as="geometry" />
        </mxCell>
        <mxCell id="uC3ZRdDW4r8S9prqQ-vN-222" value="" style="shape=tableRow;horizontal=0;startSize=0;swimlaneHead=0;swimlaneBody=0;top=0;left=0;bottom=0;right=0;collapsible=0;dropTarget=0;fillColor=none;points=[[0,0.5],[1,0.5]];portConstraint=eastwest;" parent="uC3ZRdDW4r8S9prqQ-vN-221" vertex="1">
          <mxGeometry width="110" height="21" as="geometry" />
        </mxCell>
        <mxCell id="uC3ZRdDW4r8S9prqQ-vN-223" value="&lt;b&gt;hash&lt;font size=&quot;1&quot;&gt;&lt;sub&gt;C&lt;/sub&gt;&lt;/font&gt;&lt;/b&gt;" style="shape=partialRectangle;html=1;whiteSpace=wrap;connectable=0;fillColor=none;top=0;left=0;bottom=0;right=0;overflow=hidden;" parent="uC3ZRdDW4r8S9prqQ-vN-222" vertex="1">
          <mxGeometry width="40" height="21" as="geometry">
            <mxRectangle width="40" height="21" as="alternateBounds" />
          </mxGeometry>
        </mxCell>
        <mxCell id="uC3ZRdDW4r8S9prqQ-vN-224" value="&lt;b&gt;DIP&lt;/b&gt;" style="shape=partialRectangle;html=1;whiteSpace=wrap;connectable=0;fillColor=none;top=0;left=0;bottom=0;right=0;overflow=hidden;" parent="uC3ZRdDW4r8S9prqQ-vN-222" vertex="1">
          <mxGeometry x="40" width="70" height="21" as="geometry">
            <mxRectangle width="70" height="21" as="alternateBounds" />
          </mxGeometry>
        </mxCell>
        <mxCell id="uC3ZRdDW4r8S9prqQ-vN-225" value="" style="shape=tableRow;horizontal=0;startSize=0;swimlaneHead=0;swimlaneBody=0;top=0;left=0;bottom=0;right=0;collapsible=0;dropTarget=0;fillColor=none;points=[[0,0.5],[1,0.5]];portConstraint=eastwest;" parent="uC3ZRdDW4r8S9prqQ-vN-221" vertex="1">
          <mxGeometry y="21" width="110" height="19" as="geometry" />
        </mxCell>
        <mxCell id="uC3ZRdDW4r8S9prqQ-vN-226" value="....." style="shape=partialRectangle;html=1;whiteSpace=wrap;connectable=0;fillColor=none;top=0;left=0;bottom=0;right=0;overflow=hidden;" parent="uC3ZRdDW4r8S9prqQ-vN-225" vertex="1">
          <mxGeometry width="40" height="19" as="geometry">
            <mxRectangle width="40" height="19" as="alternateBounds" />
          </mxGeometry>
        </mxCell>
        <mxCell id="uC3ZRdDW4r8S9prqQ-vN-227" value="....." style="shape=partialRectangle;html=1;whiteSpace=wrap;connectable=0;fillColor=none;top=0;left=0;bottom=0;right=0;overflow=hidden;" parent="uC3ZRdDW4r8S9prqQ-vN-225" vertex="1">
          <mxGeometry x="40" width="70" height="19" as="geometry">
            <mxRectangle width="70" height="19" as="alternateBounds" />
          </mxGeometry>
        </mxCell>
        <mxCell id="uC3ZRdDW4r8S9prqQ-vN-228" value="" style="shape=tableRow;horizontal=0;startSize=0;swimlaneHead=0;swimlaneBody=0;top=0;left=0;bottom=0;right=0;collapsible=0;dropTarget=0;fillColor=none;points=[[0,0.5],[1,0.5]];portConstraint=eastwest;" parent="uC3ZRdDW4r8S9prqQ-vN-221" vertex="1">
          <mxGeometry y="40" width="110" height="21" as="geometry" />
        </mxCell>
        <mxCell id="uC3ZRdDW4r8S9prqQ-vN-229" value="&lt;font style=&quot;font-size: 11px;&quot;&gt;21A7&lt;/font&gt;" style="shape=partialRectangle;html=1;whiteSpace=wrap;connectable=0;fillColor=none;top=0;left=0;bottom=0;right=0;overflow=hidden;" parent="uC3ZRdDW4r8S9prqQ-vN-228" vertex="1">
          <mxGeometry width="40" height="21" as="geometry">
            <mxRectangle width="40" height="21" as="alternateBounds" />
          </mxGeometry>
        </mxCell>
        <mxCell id="uC3ZRdDW4r8S9prqQ-vN-230" value="&lt;font style=&quot;font-size: 11px;&quot;&gt;DIP_2_CPU&lt;/font&gt;" style="shape=partialRectangle;html=1;whiteSpace=wrap;connectable=0;fillColor=none;top=0;left=0;bottom=0;right=0;overflow=hidden;" parent="uC3ZRdDW4r8S9prqQ-vN-228" vertex="1">
          <mxGeometry x="40" width="70" height="21" as="geometry">
            <mxRectangle width="70" height="21" as="alternateBounds" />
          </mxGeometry>
        </mxCell>
        <mxCell id="uC3ZRdDW4r8S9prqQ-vN-235" style="shape=tableRow;horizontal=0;startSize=0;swimlaneHead=0;swimlaneBody=0;top=0;left=0;bottom=0;right=0;collapsible=0;dropTarget=0;fillColor=none;points=[[0,0.5],[1,0.5]];portConstraint=eastwest;" parent="uC3ZRdDW4r8S9prqQ-vN-221" vertex="1">
          <mxGeometry y="61" width="110" height="21" as="geometry" />
        </mxCell>
        <mxCell id="uC3ZRdDW4r8S9prqQ-vN-236" value="&lt;font style=&quot;font-size: 11px;&quot;&gt;95BF&lt;/font&gt;" style="shape=partialRectangle;html=1;whiteSpace=wrap;connectable=0;fillColor=none;top=0;left=0;bottom=0;right=0;overflow=hidden;" parent="uC3ZRdDW4r8S9prqQ-vN-235" vertex="1">
          <mxGeometry width="40" height="21" as="geometry">
            <mxRectangle width="40" height="21" as="alternateBounds" />
          </mxGeometry>
        </mxCell>
        <mxCell id="uC3ZRdDW4r8S9prqQ-vN-237" value="&lt;font style=&quot;font-size: 11px;&quot;&gt;DIP_1_SNIC&lt;/font&gt;" style="shape=partialRectangle;html=1;whiteSpace=wrap;connectable=0;fillColor=none;top=0;left=0;bottom=0;right=0;overflow=hidden;" parent="uC3ZRdDW4r8S9prqQ-vN-235" vertex="1">
          <mxGeometry x="40" width="70" height="21" as="geometry">
            <mxRectangle width="70" height="21" as="alternateBounds" />
          </mxGeometry>
        </mxCell>
        <mxCell id="uC3ZRdDW4r8S9prqQ-vN-231" style="shape=tableRow;horizontal=0;startSize=0;swimlaneHead=0;swimlaneBody=0;top=0;left=0;bottom=0;right=0;collapsible=0;dropTarget=0;fillColor=none;points=[[0,0.5],[1,0.5]];portConstraint=eastwest;" parent="uC3ZRdDW4r8S9prqQ-vN-221" vertex="1">
          <mxGeometry y="82" width="110" height="19" as="geometry" />
        </mxCell>
        <mxCell id="uC3ZRdDW4r8S9prqQ-vN-232" value="....." style="shape=partialRectangle;html=1;whiteSpace=wrap;connectable=0;fillColor=none;top=0;left=0;bottom=0;right=0;overflow=hidden;" parent="uC3ZRdDW4r8S9prqQ-vN-231" vertex="1">
          <mxGeometry width="40" height="19" as="geometry">
            <mxRectangle width="40" height="19" as="alternateBounds" />
          </mxGeometry>
        </mxCell>
        <mxCell id="uC3ZRdDW4r8S9prqQ-vN-233" value="....." style="shape=partialRectangle;html=1;whiteSpace=wrap;connectable=0;fillColor=none;top=0;left=0;bottom=0;right=0;overflow=hidden;" parent="uC3ZRdDW4r8S9prqQ-vN-231" vertex="1">
          <mxGeometry x="40" width="70" height="19" as="geometry">
            <mxRectangle width="70" height="19" as="alternateBounds" />
          </mxGeometry>
        </mxCell>
        <mxCell id="uC3ZRdDW4r8S9prqQ-vN-234" value="" style="endArrow=classic;html=1;rounded=0;strokeWidth=2;" parent="1" edge="1">
          <mxGeometry width="50" height="50" relative="1" as="geometry">
            <mxPoint x="342" y="93.66" as="sourcePoint" />
            <mxPoint x="382" y="93.66" as="targetPoint" />
          </mxGeometry>
        </mxCell>
        <mxCell id="uC3ZRdDW4r8S9prqQ-vN-241" value="" style="endArrow=classic;html=1;rounded=0;strokeColor=#000000;strokeWidth=2;fontFamily=Helvetica;fontSize=12;" parent="1" edge="1">
          <mxGeometry width="50" height="50" relative="1" as="geometry">
            <mxPoint x="522" y="94.71" as="sourcePoint" />
            <mxPoint x="562" y="94.71" as="targetPoint" />
          </mxGeometry>
        </mxCell>
        <mxCell id="uC3ZRdDW4r8S9prqQ-vN-244" value="&lt;b&gt;Pkt out&lt;/b&gt;" style="text;html=1;strokeColor=none;fillColor=none;align=center;verticalAlign=middle;whiteSpace=wrap;rounded=0;" parent="1" vertex="1">
          <mxGeometry x="790" y="105" width="51" height="20" as="geometry" />
        </mxCell>
        <mxCell id="ShT8ZZg3OeSvslx-WhEc-2" value="" style="endArrow=classic;html=1;rounded=0;strokeWidth=2;" parent="1" edge="1">
          <mxGeometry width="50" height="50" relative="1" as="geometry">
            <mxPoint x="790" y="135" as="sourcePoint" />
            <mxPoint x="830" y="135" as="targetPoint" />
          </mxGeometry>
        </mxCell>
        <mxCell id="ShT8ZZg3OeSvslx-WhEc-4" value="" style="endArrow=classic;html=1;rounded=0;strokeWidth=2;" parent="1" edge="1">
          <mxGeometry width="50" height="50" relative="1" as="geometry">
            <mxPoint x="670" y="94.71000000000001" as="sourcePoint" />
            <mxPoint x="710" y="94.71000000000001" as="targetPoint" />
          </mxGeometry>
        </mxCell>
        <mxCell id="ShT8ZZg3OeSvslx-WhEc-5" value="&lt;i&gt;&lt;font style=&quot;font-size: 12px;&quot;&gt;ConnTable&lt;/font&gt;&lt;/i&gt;" style="text;strokeColor=none;fillColor=none;align=left;verticalAlign=middle;spacingLeft=4;spacingRight=4;overflow=hidden;points=[[0,0.5],[1,0.5]];portConstraint=eastwest;rotatable=1;whiteSpace=wrap;html=1;strokeWidth=2;movable=1;resizable=1;deletable=1;editable=1;connectable=1;" parent="1" vertex="1">
          <mxGeometry x="580" y="140" width="110" height="25" as="geometry" />
        </mxCell>
        <mxCell id="ShT8ZZg3OeSvslx-WhEc-6" value="&lt;i&gt;&lt;font style=&quot;font-size: 12px;&quot;&gt;ServerTable&lt;/font&gt;&lt;/i&gt;" style="text;strokeColor=none;fillColor=none;align=left;verticalAlign=middle;spacingLeft=4;spacingRight=4;overflow=hidden;points=[[0,0.5],[1,0.5]];portConstraint=eastwest;rotatable=1;whiteSpace=wrap;html=1;strokeWidth=2;movable=1;resizable=1;deletable=1;editable=1;connectable=1;" parent="1" vertex="1">
          <mxGeometry x="257" y="130" width="110" height="25" as="geometry" />
        </mxCell>
        <mxCell id="ShT8ZZg3OeSvslx-WhEc-12" value="" style="edgeStyle=segmentEdgeStyle;endArrow=classic;html=1;rounded=0;fontSize=11;strokeWidth=2;exitX=0.25;exitY=0;exitDx=0;exitDy=0;dashed=1;dashPattern=1 1;" parent="1" source="ShT8ZZg3OeSvslx-WhEc-14" edge="1">
          <mxGeometry width="50" height="50" relative="1" as="geometry">
            <mxPoint x="640" y="225" as="sourcePoint" />
            <mxPoint x="470" y="215" as="targetPoint" />
            <Array as="points">
              <mxPoint x="615" y="195" />
              <mxPoint x="470" y="195" />
            </Array>
          </mxGeometry>
        </mxCell>
        <mxCell id="ShT8ZZg3OeSvslx-WhEc-14" value="&lt;b&gt;Control Plane API&lt;/b&gt;" style="rounded=0;whiteSpace=wrap;html=1;dashed=1;dashPattern=1 1;fontSize=11;fillColor=#999999;fontColor=#333333;strokeColor=#666666;fillStyle=solid;" parent="1" vertex="1">
          <mxGeometry x="590" y="215" width="100" height="90" as="geometry" />
        </mxCell>
        <mxCell id="ShT8ZZg3OeSvslx-WhEc-16" value="" style="edgeStyle=segmentEdgeStyle;endArrow=classic;html=1;rounded=0;fontSize=11;strokeWidth=2;entryX=1.011;entryY=0.067;entryDx=0;entryDy=0;entryPerimeter=0;dashed=1;dashPattern=1 1;" parent="1" target="uC3ZRdDW4r8S9prqQ-vN-138" edge="1">
          <mxGeometry width="50" height="50" relative="1" as="geometry">
            <mxPoint x="660" y="215" as="sourcePoint" />
            <mxPoint x="380" y="185" as="targetPoint" />
            <Array as="points">
              <mxPoint x="660" y="215" />
              <mxPoint x="660" y="184" />
            </Array>
          </mxGeometry>
        </mxCell>
        <mxCell id="ShT8ZZg3OeSvslx-WhEc-18" value="" style="edgeStyle=segmentEdgeStyle;endArrow=classic;html=1;rounded=0;fontSize=11;strokeWidth=2;exitX=0.5;exitY=0;exitDx=0;exitDy=0;" parent="1" source="uC3ZRdDW4r8S9prqQ-vN-3" edge="1">
          <mxGeometry width="50" height="50" relative="1" as="geometry">
            <mxPoint x="390" y="370" as="sourcePoint" />
            <mxPoint x="600" y="40" as="targetPoint" />
            <Array as="points">
              <mxPoint x="191" y="20" />
              <mxPoint x="600" y="20" />
            </Array>
          </mxGeometry>
        </mxCell>
        <mxCell id="ShT8ZZg3OeSvslx-WhEc-19" value="Hit" style="text;html=1;strokeColor=none;fillColor=none;align=center;verticalAlign=middle;whiteSpace=wrap;rounded=0;" parent="1" vertex="1">
          <mxGeometry x="201" y="45" width="20" height="10" as="geometry" />
        </mxCell>
      </root>
    </mxGraphModel>
  </diagram>
  <diagram id="zmgFG3zh3MFt5qm3zy-s" name="Page-2">
    <mxGraphModel dx="766" dy="471" grid="1" gridSize="10" guides="1" tooltips="1" connect="1" arrows="1" fold="1" page="1" pageScale="1" pageWidth="850" pageHeight="1100" math="0" shadow="0">
      <root>
        <mxCell id="0" />
        <mxCell id="1" parent="0" />
        <mxCell id="mCQi76xcLS6Q-N-QgvIa-1" value="Ingress: Update Accelerator State?" style="rounded=1;whiteSpace=wrap;html=1;fillColor=#E6E6E6;strokeWidth=2;align=center;" parent="1" vertex="1">
          <mxGeometry x="50" y="120" width="80" height="200" as="geometry" />
        </mxCell>
        <mxCell id="mCQi76xcLS6Q-N-QgvIa-2" value="" style="endArrow=classic;html=1;rounded=0;strokeWidth=2;" parent="1" edge="1">
          <mxGeometry width="50" height="50" relative="1" as="geometry">
            <mxPoint x="10" y="210" as="sourcePoint" />
            <mxPoint x="50" y="210" as="targetPoint" />
          </mxGeometry>
        </mxCell>
        <mxCell id="mCQi76xcLS6Q-N-QgvIa-3" value="&lt;b&gt;Pkt in&lt;/b&gt;" style="text;html=1;strokeColor=none;fillColor=none;align=center;verticalAlign=middle;whiteSpace=wrap;rounded=0;" parent="1" vertex="1">
          <mxGeometry x="10" y="180" width="40" height="20" as="geometry" />
        </mxCell>
        <mxCell id="mCQi76xcLS6Q-N-QgvIa-4" value="" style="endArrow=classic;html=1;rounded=0;strokeWidth=2;" parent="1" edge="1">
          <mxGeometry width="50" height="50" relative="1" as="geometry">
            <mxPoint x="130" y="300.4999999999999" as="sourcePoint" />
            <mxPoint x="170" y="300.4999999999999" as="targetPoint" />
          </mxGeometry>
        </mxCell>
        <mxCell id="mCQi76xcLS6Q-N-QgvIa-5" value="No" style="text;html=1;strokeColor=none;fillColor=none;align=center;verticalAlign=middle;whiteSpace=wrap;rounded=0;" parent="1" vertex="1">
          <mxGeometry x="138" y="273.5" width="20" height="30" as="geometry" />
        </mxCell>
        <mxCell id="mCQi76xcLS6Q-N-QgvIa-6" value="&lt;i&gt;Bloom Filter&lt;/i&gt;" style="rounded=1;whiteSpace=wrap;html=1;fillColor=#E6E6E6;strokeWidth=2;align=center;dashed=1;dashPattern=1 1;" parent="1" vertex="1">
          <mxGeometry x="170" y="280.5" width="40" height="40" as="geometry" />
        </mxCell>
        <mxCell id="mCQi76xcLS6Q-N-QgvIa-7" value="Miss" style="text;html=1;strokeColor=none;fillColor=none;align=center;verticalAlign=middle;whiteSpace=wrap;rounded=0;" parent="1" vertex="1">
          <mxGeometry x="220" y="280.5" width="20" height="10" as="geometry" />
        </mxCell>
        <mxCell id="mCQi76xcLS6Q-N-QgvIa-8" value="" style="shape=table;html=1;whiteSpace=wrap;startSize=0;container=1;collapsible=0;childLayout=tableLayout;strokeWidth=2;" parent="1" vertex="1">
          <mxGeometry x="251" y="259.5" width="90" height="80" as="geometry" />
        </mxCell>
        <mxCell id="mCQi76xcLS6Q-N-QgvIa-9" value="" style="shape=tableRow;horizontal=0;startSize=0;swimlaneHead=0;swimlaneBody=0;top=0;left=0;bottom=0;right=0;collapsible=0;dropTarget=0;fillColor=none;points=[[0,0.5],[1,0.5]];portConstraint=eastwest;" parent="mCQi76xcLS6Q-N-QgvIa-8" vertex="1">
          <mxGeometry width="90" height="21" as="geometry" />
        </mxCell>
        <mxCell id="mCQi76xcLS6Q-N-QgvIa-10" value="&lt;b&gt;hash&lt;sub&gt;s&lt;/sub&gt;&lt;/b&gt;" style="shape=partialRectangle;html=1;whiteSpace=wrap;connectable=0;fillColor=none;top=0;left=0;bottom=0;right=0;overflow=hidden;" parent="mCQi76xcLS6Q-N-QgvIa-9" vertex="1">
          <mxGeometry width="45" height="21" as="geometry">
            <mxRectangle width="45" height="21" as="alternateBounds" />
          </mxGeometry>
        </mxCell>
        <mxCell id="mCQi76xcLS6Q-N-QgvIa-11" value="&lt;b&gt;S-code&lt;/b&gt;" style="shape=partialRectangle;html=1;whiteSpace=wrap;connectable=0;fillColor=none;top=0;left=0;bottom=0;right=0;overflow=hidden;" parent="mCQi76xcLS6Q-N-QgvIa-9" vertex="1">
          <mxGeometry x="45" width="45" height="21" as="geometry">
            <mxRectangle width="45" height="21" as="alternateBounds" />
          </mxGeometry>
        </mxCell>
        <mxCell id="mCQi76xcLS6Q-N-QgvIa-12" value="" style="shape=tableRow;horizontal=0;startSize=0;swimlaneHead=0;swimlaneBody=0;top=0;left=0;bottom=0;right=0;collapsible=0;dropTarget=0;fillColor=none;points=[[0,0.5],[1,0.5]];portConstraint=eastwest;" parent="mCQi76xcLS6Q-N-QgvIa-8" vertex="1">
          <mxGeometry y="21" width="90" height="19" as="geometry" />
        </mxCell>
        <mxCell id="mCQi76xcLS6Q-N-QgvIa-13" value="....." style="shape=partialRectangle;html=1;whiteSpace=wrap;connectable=0;fillColor=none;top=0;left=0;bottom=0;right=0;overflow=hidden;" parent="mCQi76xcLS6Q-N-QgvIa-12" vertex="1">
          <mxGeometry width="45" height="19" as="geometry">
            <mxRectangle width="45" height="19" as="alternateBounds" />
          </mxGeometry>
        </mxCell>
        <mxCell id="mCQi76xcLS6Q-N-QgvIa-14" value="....." style="shape=partialRectangle;html=1;whiteSpace=wrap;connectable=0;fillColor=none;top=0;left=0;bottom=0;right=0;overflow=hidden;" parent="mCQi76xcLS6Q-N-QgvIa-12" vertex="1">
          <mxGeometry x="45" width="45" height="19" as="geometry">
            <mxRectangle width="45" height="19" as="alternateBounds" />
          </mxGeometry>
        </mxCell>
        <mxCell id="mCQi76xcLS6Q-N-QgvIa-15" value="" style="shape=tableRow;horizontal=0;startSize=0;swimlaneHead=0;swimlaneBody=0;top=0;left=0;bottom=0;right=0;collapsible=0;dropTarget=0;fillColor=none;points=[[0,0.5],[1,0.5]];portConstraint=eastwest;" parent="mCQi76xcLS6Q-N-QgvIa-8" vertex="1">
          <mxGeometry y="40" width="90" height="21" as="geometry" />
        </mxCell>
        <mxCell id="mCQi76xcLS6Q-N-QgvIa-16" value="0002" style="shape=partialRectangle;html=1;whiteSpace=wrap;connectable=0;fillColor=none;top=0;left=0;bottom=0;right=0;overflow=hidden;" parent="mCQi76xcLS6Q-N-QgvIa-15" vertex="1">
          <mxGeometry width="45" height="21" as="geometry">
            <mxRectangle width="45" height="21" as="alternateBounds" />
          </mxGeometry>
        </mxCell>
        <mxCell id="mCQi76xcLS6Q-N-QgvIa-17" value="S2" style="shape=partialRectangle;html=1;whiteSpace=wrap;connectable=0;fillColor=none;top=0;left=0;bottom=0;right=0;overflow=hidden;" parent="mCQi76xcLS6Q-N-QgvIa-15" vertex="1">
          <mxGeometry x="45" width="45" height="21" as="geometry">
            <mxRectangle width="45" height="21" as="alternateBounds" />
          </mxGeometry>
        </mxCell>
        <mxCell id="mCQi76xcLS6Q-N-QgvIa-18" style="shape=tableRow;horizontal=0;startSize=0;swimlaneHead=0;swimlaneBody=0;top=0;left=0;bottom=0;right=0;collapsible=0;dropTarget=0;fillColor=none;points=[[0,0.5],[1,0.5]];portConstraint=eastwest;" parent="mCQi76xcLS6Q-N-QgvIa-8" vertex="1">
          <mxGeometry y="61" width="90" height="19" as="geometry" />
        </mxCell>
        <mxCell id="mCQi76xcLS6Q-N-QgvIa-19" value="0003" style="shape=partialRectangle;html=1;whiteSpace=wrap;connectable=0;fillColor=none;top=0;left=0;bottom=0;right=0;overflow=hidden;" parent="mCQi76xcLS6Q-N-QgvIa-18" vertex="1">
          <mxGeometry width="45" height="19" as="geometry">
            <mxRectangle width="45" height="19" as="alternateBounds" />
          </mxGeometry>
        </mxCell>
        <mxCell id="mCQi76xcLS6Q-N-QgvIa-20" value="S1" style="shape=partialRectangle;html=1;whiteSpace=wrap;connectable=0;fillColor=none;top=0;left=0;bottom=0;right=0;overflow=hidden;" parent="mCQi76xcLS6Q-N-QgvIa-18" vertex="1">
          <mxGeometry x="45" width="45" height="19" as="geometry">
            <mxRectangle width="45" height="19" as="alternateBounds" />
          </mxGeometry>
        </mxCell>
        <mxCell id="mCQi76xcLS6Q-N-QgvIa-21" value="" style="endArrow=classic;html=1;rounded=0;strokeWidth=2;" parent="1" edge="1">
          <mxGeometry width="50" height="50" relative="1" as="geometry">
            <mxPoint x="210" y="300.4999999999999" as="sourcePoint" />
            <mxPoint x="250" y="300.4999999999999" as="targetPoint" />
          </mxGeometry>
        </mxCell>
        <mxCell id="mCQi76xcLS6Q-N-QgvIa-23" value="" style="group" parent="1" vertex="1" connectable="0">
          <mxGeometry x="245" y="90" width="355" height="142" as="geometry" />
        </mxCell>
        <mxCell id="mCQi76xcLS6Q-N-QgvIa-22" value="" style="rounded=1;whiteSpace=wrap;html=1;strokeWidth=2;fillColor=#f5f5f5;fontColor=#333333;strokeColor=#999999;" parent="mCQi76xcLS6Q-N-QgvIa-23" vertex="1">
          <mxGeometry x="-35" y="-13" width="380" height="160" as="geometry" />
        </mxCell>
        <mxCell id="mCQi76xcLS6Q-N-QgvIa-24" value="" style="rounded=1;whiteSpace=wrap;html=1;strokeWidth=2;fillColor=#E6E6E6;" parent="mCQi76xcLS6Q-N-QgvIa-23" vertex="1">
          <mxGeometry x="11" y="12" width="140" height="110" as="geometry" />
        </mxCell>
        <mxCell id="mCQi76xcLS6Q-N-QgvIa-25" value="" style="rounded=1;whiteSpace=wrap;html=1;strokeWidth=2;fillColor=#E6E6E6;" parent="mCQi76xcLS6Q-N-QgvIa-23" vertex="1">
          <mxGeometry x="6" y="6" width="140" height="110" as="geometry" />
        </mxCell>
        <mxCell id="mCQi76xcLS6Q-N-QgvIa-26" value="" style="rounded=1;whiteSpace=wrap;html=1;strokeWidth=2;fillColor=#E6E6E6;" parent="mCQi76xcLS6Q-N-QgvIa-23" vertex="1">
          <mxGeometry width="140" height="110" as="geometry" />
        </mxCell>
        <mxCell id="mCQi76xcLS6Q-N-QgvIa-27" value="&lt;i&gt;&lt;font style=&quot;font-size: 12px;&quot;&gt;AccelStateTable&lt;/font&gt;&lt;/i&gt;" style="text;strokeColor=none;fillColor=none;align=left;verticalAlign=middle;spacingLeft=4;spacingRight=4;overflow=hidden;points=[[0,0.5],[1,0.5]];portConstraint=eastwest;rotatable=1;whiteSpace=wrap;html=1;strokeWidth=2;movable=1;resizable=1;deletable=1;editable=1;connectable=1;" parent="mCQi76xcLS6Q-N-QgvIa-23" vertex="1">
          <mxGeometry x="18" y="85" width="110" height="25" as="geometry" />
        </mxCell>
        <mxCell id="mCQi76xcLS6Q-N-QgvIa-28" value="" style="shape=table;html=1;whiteSpace=wrap;startSize=0;container=1;collapsible=0;childLayout=tableLayout;strokeWidth=2;movable=1;resizable=1;rotatable=1;deletable=1;editable=1;connectable=1;" parent="mCQi76xcLS6Q-N-QgvIa-23" vertex="1">
          <mxGeometry x="10" y="7" width="120" height="81" as="geometry" />
        </mxCell>
        <mxCell id="mCQi76xcLS6Q-N-QgvIa-29" value="" style="shape=tableRow;horizontal=0;startSize=0;swimlaneHead=0;swimlaneBody=0;top=0;left=0;bottom=0;right=0;collapsible=0;dropTarget=0;fillColor=none;points=[[0,0.5],[1,0.5]];portConstraint=eastwest;strokeWidth=2;movable=1;resizable=1;rotatable=1;deletable=1;editable=1;connectable=1;" parent="mCQi76xcLS6Q-N-QgvIa-28" vertex="1">
          <mxGeometry width="120" height="21" as="geometry" />
        </mxCell>
        <mxCell id="mCQi76xcLS6Q-N-QgvIa-30" value="&lt;b&gt;D-id&lt;/b&gt;" style="shape=partialRectangle;html=1;whiteSpace=wrap;connectable=1;fillColor=none;top=0;left=0;bottom=0;right=0;overflow=hidden;strokeWidth=2;movable=1;resizable=1;rotatable=1;deletable=1;editable=1;" parent="mCQi76xcLS6Q-N-QgvIa-29" vertex="1">
          <mxGeometry width="30" height="21" as="geometry">
            <mxRectangle width="30" height="21" as="alternateBounds" />
          </mxGeometry>
        </mxCell>
        <mxCell id="mCQi76xcLS6Q-N-QgvIa-31" value="&lt;b&gt;R&lt;sub&gt;1&lt;/sub&gt;&lt;/b&gt;" style="shape=partialRectangle;html=1;whiteSpace=wrap;connectable=1;fillColor=none;top=0;left=0;bottom=0;right=0;overflow=hidden;strokeWidth=2;movable=1;resizable=1;rotatable=1;deletable=1;editable=1;" parent="mCQi76xcLS6Q-N-QgvIa-29" vertex="1">
          <mxGeometry x="30" width="30" height="21" as="geometry">
            <mxRectangle width="30" height="21" as="alternateBounds" />
          </mxGeometry>
        </mxCell>
        <mxCell id="mCQi76xcLS6Q-N-QgvIa-32" value="&lt;b&gt;....&lt;/b&gt;" style="shape=partialRectangle;html=1;whiteSpace=wrap;connectable=1;fillColor=none;top=0;left=0;bottom=0;right=0;overflow=hidden;strokeWidth=2;movable=1;resizable=1;rotatable=1;deletable=1;editable=1;" parent="mCQi76xcLS6Q-N-QgvIa-29" vertex="1">
          <mxGeometry x="60" width="30" height="21" as="geometry">
            <mxRectangle width="30" height="21" as="alternateBounds" />
          </mxGeometry>
        </mxCell>
        <mxCell id="mCQi76xcLS6Q-N-QgvIa-33" value="&lt;b&gt;R&lt;sub&gt;n&lt;/sub&gt;&lt;/b&gt;" style="shape=partialRectangle;html=1;whiteSpace=wrap;connectable=1;fillColor=none;top=0;left=0;bottom=0;right=0;overflow=hidden;strokeWidth=2;movable=1;resizable=1;rotatable=1;deletable=1;editable=1;" parent="mCQi76xcLS6Q-N-QgvIa-29" vertex="1">
          <mxGeometry x="90" width="30" height="21" as="geometry">
            <mxRectangle width="30" height="21" as="alternateBounds" />
          </mxGeometry>
        </mxCell>
        <mxCell id="mCQi76xcLS6Q-N-QgvIa-34" style="shape=tableRow;horizontal=0;startSize=0;swimlaneHead=0;swimlaneBody=0;top=0;left=0;bottom=0;right=0;collapsible=0;dropTarget=0;fillColor=none;points=[[0,0.5],[1,0.5]];portConstraint=eastwest;strokeWidth=2;movable=1;resizable=1;rotatable=1;deletable=1;editable=1;connectable=1;" parent="mCQi76xcLS6Q-N-QgvIa-28" vertex="1">
          <mxGeometry y="21" width="120" height="20" as="geometry" />
        </mxCell>
        <mxCell id="mCQi76xcLS6Q-N-QgvIa-35" value="&lt;b&gt;D&lt;sub&gt;1&lt;/sub&gt;&lt;/b&gt;" style="shape=partialRectangle;html=1;whiteSpace=wrap;connectable=1;fillColor=none;top=0;left=0;bottom=0;right=0;overflow=hidden;strokeWidth=2;movable=1;resizable=1;rotatable=1;deletable=1;editable=1;" parent="mCQi76xcLS6Q-N-QgvIa-34" vertex="1">
          <mxGeometry width="30" height="20" as="geometry">
            <mxRectangle width="30" height="20" as="alternateBounds" />
          </mxGeometry>
        </mxCell>
        <mxCell id="mCQi76xcLS6Q-N-QgvIa-36" value="101" style="shape=partialRectangle;html=1;whiteSpace=wrap;connectable=1;fillColor=none;top=0;left=0;bottom=0;right=0;overflow=hidden;strokeWidth=2;movable=1;resizable=1;rotatable=1;deletable=1;editable=1;" parent="mCQi76xcLS6Q-N-QgvIa-34" vertex="1">
          <mxGeometry x="30" width="30" height="20" as="geometry">
            <mxRectangle width="30" height="20" as="alternateBounds" />
          </mxGeometry>
        </mxCell>
        <mxCell id="mCQi76xcLS6Q-N-QgvIa-37" style="shape=partialRectangle;html=1;whiteSpace=wrap;connectable=1;fillColor=none;top=0;left=0;bottom=0;right=0;overflow=hidden;strokeWidth=2;movable=1;resizable=1;rotatable=1;deletable=1;editable=1;" parent="mCQi76xcLS6Q-N-QgvIa-34" vertex="1">
          <mxGeometry x="60" width="30" height="20" as="geometry">
            <mxRectangle width="30" height="20" as="alternateBounds" />
          </mxGeometry>
        </mxCell>
        <mxCell id="mCQi76xcLS6Q-N-QgvIa-38" style="shape=partialRectangle;html=1;whiteSpace=wrap;connectable=1;fillColor=none;top=0;left=0;bottom=0;right=0;overflow=hidden;strokeWidth=2;movable=1;resizable=1;rotatable=1;deletable=1;editable=1;" parent="mCQi76xcLS6Q-N-QgvIa-34" vertex="1">
          <mxGeometry x="90" width="30" height="20" as="geometry">
            <mxRectangle width="30" height="20" as="alternateBounds" />
          </mxGeometry>
        </mxCell>
        <mxCell id="mCQi76xcLS6Q-N-QgvIa-39" value="" style="shape=tableRow;horizontal=0;startSize=0;swimlaneHead=0;swimlaneBody=0;top=0;left=0;bottom=0;right=0;collapsible=0;dropTarget=0;fillColor=none;points=[[0,0.5],[1,0.5]];portConstraint=eastwest;strokeWidth=2;movable=1;resizable=1;rotatable=1;deletable=1;editable=1;connectable=1;" parent="mCQi76xcLS6Q-N-QgvIa-28" vertex="1">
          <mxGeometry y="41" width="120" height="21" as="geometry" />
        </mxCell>
        <mxCell id="mCQi76xcLS6Q-N-QgvIa-40" value="&lt;b&gt;....&lt;/b&gt;" style="shape=partialRectangle;html=1;whiteSpace=wrap;connectable=1;fillColor=none;top=0;left=0;bottom=0;right=0;overflow=hidden;strokeWidth=2;movable=1;resizable=1;rotatable=1;deletable=1;editable=1;" parent="mCQi76xcLS6Q-N-QgvIa-39" vertex="1">
          <mxGeometry width="30" height="21" as="geometry">
            <mxRectangle width="30" height="21" as="alternateBounds" />
          </mxGeometry>
        </mxCell>
        <mxCell id="mCQi76xcLS6Q-N-QgvIa-41" value="..." style="shape=partialRectangle;html=1;whiteSpace=wrap;connectable=1;fillColor=none;top=0;left=0;bottom=0;right=0;overflow=hidden;strokeWidth=2;movable=1;resizable=1;rotatable=1;deletable=1;editable=1;" parent="mCQi76xcLS6Q-N-QgvIa-39" vertex="1">
          <mxGeometry x="30" width="30" height="21" as="geometry">
            <mxRectangle width="30" height="21" as="alternateBounds" />
          </mxGeometry>
        </mxCell>
        <mxCell id="mCQi76xcLS6Q-N-QgvIa-42" value="" style="shape=partialRectangle;html=1;whiteSpace=wrap;connectable=1;fillColor=none;top=0;left=0;bottom=0;right=0;overflow=hidden;strokeWidth=2;movable=1;resizable=1;rotatable=1;deletable=1;editable=1;" parent="mCQi76xcLS6Q-N-QgvIa-39" vertex="1">
          <mxGeometry x="60" width="30" height="21" as="geometry">
            <mxRectangle width="30" height="21" as="alternateBounds" />
          </mxGeometry>
        </mxCell>
        <mxCell id="mCQi76xcLS6Q-N-QgvIa-43" style="shape=partialRectangle;html=1;whiteSpace=wrap;connectable=1;fillColor=none;top=0;left=0;bottom=0;right=0;overflow=hidden;strokeWidth=2;movable=1;resizable=1;rotatable=1;deletable=1;editable=1;" parent="mCQi76xcLS6Q-N-QgvIa-39" vertex="1">
          <mxGeometry x="90" width="30" height="21" as="geometry">
            <mxRectangle width="30" height="21" as="alternateBounds" />
          </mxGeometry>
        </mxCell>
        <mxCell id="mCQi76xcLS6Q-N-QgvIa-44" value="" style="shape=tableRow;horizontal=0;startSize=0;swimlaneHead=0;swimlaneBody=0;top=0;left=0;bottom=0;right=0;collapsible=0;dropTarget=0;fillColor=none;points=[[0,0.5],[1,0.5]];portConstraint=eastwest;strokeWidth=2;movable=1;resizable=1;rotatable=1;deletable=1;editable=1;connectable=1;" parent="mCQi76xcLS6Q-N-QgvIa-28" vertex="1">
          <mxGeometry y="62" width="120" height="19" as="geometry" />
        </mxCell>
        <mxCell id="mCQi76xcLS6Q-N-QgvIa-45" value="&lt;b&gt;D&lt;sub&gt;m&lt;/sub&gt;&lt;/b&gt;" style="shape=partialRectangle;html=1;whiteSpace=wrap;connectable=1;fillColor=none;top=0;left=0;bottom=0;right=0;overflow=hidden;strokeWidth=2;movable=1;resizable=1;rotatable=1;deletable=1;editable=1;" parent="mCQi76xcLS6Q-N-QgvIa-44" vertex="1">
          <mxGeometry width="30" height="19" as="geometry">
            <mxRectangle width="30" height="19" as="alternateBounds" />
          </mxGeometry>
        </mxCell>
        <mxCell id="mCQi76xcLS6Q-N-QgvIa-46" value="011" style="shape=partialRectangle;html=1;whiteSpace=wrap;connectable=1;fillColor=none;top=0;left=0;bottom=0;right=0;overflow=hidden;strokeWidth=2;movable=1;resizable=1;rotatable=1;deletable=1;editable=1;" parent="mCQi76xcLS6Q-N-QgvIa-44" vertex="1">
          <mxGeometry x="30" width="30" height="19" as="geometry">
            <mxRectangle width="30" height="19" as="alternateBounds" />
          </mxGeometry>
        </mxCell>
        <mxCell id="mCQi76xcLS6Q-N-QgvIa-47" value="" style="shape=partialRectangle;html=1;whiteSpace=wrap;connectable=1;fillColor=none;top=0;left=0;bottom=0;right=0;overflow=hidden;pointerEvents=1;strokeWidth=2;movable=1;resizable=1;rotatable=1;deletable=1;editable=1;" parent="mCQi76xcLS6Q-N-QgvIa-44" vertex="1">
          <mxGeometry x="60" width="30" height="19" as="geometry">
            <mxRectangle width="30" height="19" as="alternateBounds" />
          </mxGeometry>
        </mxCell>
        <mxCell id="mCQi76xcLS6Q-N-QgvIa-48" style="shape=partialRectangle;html=1;whiteSpace=wrap;connectable=1;fillColor=none;top=0;left=0;bottom=0;right=0;overflow=hidden;pointerEvents=1;strokeWidth=2;movable=1;resizable=1;rotatable=1;deletable=1;editable=1;" parent="mCQi76xcLS6Q-N-QgvIa-44" vertex="1">
          <mxGeometry x="90" width="30" height="19" as="geometry">
            <mxRectangle width="30" height="19" as="alternateBounds" />
          </mxGeometry>
        </mxCell>
        <mxCell id="mCQi76xcLS6Q-N-QgvIa-52" value="" style="group" parent="mCQi76xcLS6Q-N-QgvIa-23" vertex="1" connectable="0">
          <mxGeometry x="175" y="62" width="140.5" height="60" as="geometry" />
        </mxCell>
        <mxCell id="mCQi76xcLS6Q-N-QgvIa-53" value="" style="rounded=1;whiteSpace=wrap;html=1;strokeWidth=2;fillColor=#E6E6E6;container=0;" parent="mCQi76xcLS6Q-N-QgvIa-52" vertex="1">
          <mxGeometry x="10.5" y="12" width="130" height="48" as="geometry" />
        </mxCell>
        <mxCell id="mCQi76xcLS6Q-N-QgvIa-54" value="" style="rounded=1;whiteSpace=wrap;html=1;strokeWidth=2;fillColor=#E6E6E6;container=0;" parent="mCQi76xcLS6Q-N-QgvIa-52" vertex="1">
          <mxGeometry x="6" y="6" width="130" height="48" as="geometry" />
        </mxCell>
        <mxCell id="mCQi76xcLS6Q-N-QgvIa-55" value="" style="rounded=1;whiteSpace=wrap;html=1;strokeWidth=2;fillColor=#E6E6E6;container=0;" parent="mCQi76xcLS6Q-N-QgvIa-52" vertex="1">
          <mxGeometry width="130" height="48" as="geometry" />
        </mxCell>
        <mxCell id="mCQi76xcLS6Q-N-QgvIa-56" value="&lt;i&gt;&lt;font style=&quot;font-size: 12px;&quot;&gt;RingBuffer&lt;/font&gt;&lt;/i&gt;" style="text;strokeColor=none;fillColor=none;align=left;verticalAlign=middle;spacingLeft=4;spacingRight=4;overflow=hidden;points=[[0,0.5],[1,0.5]];portConstraint=eastwest;rotatable=1;whiteSpace=wrap;html=1;strokeWidth=2;movable=1;resizable=1;deletable=1;editable=1;connectable=1;container=0;" parent="mCQi76xcLS6Q-N-QgvIa-52" vertex="1">
          <mxGeometry x="25.5" y="23" width="79" height="25" as="geometry" />
        </mxCell>
        <mxCell id="mCQi76xcLS6Q-N-QgvIa-57" value="" style="shape=table;html=1;whiteSpace=wrap;startSize=0;container=1;collapsible=0;childLayout=tableLayout;strokeWidth=2;fontSize=12;" parent="mCQi76xcLS6Q-N-QgvIa-52" vertex="1">
          <mxGeometry x="10.5" y="6" width="109" height="20" as="geometry" />
        </mxCell>
        <mxCell id="mCQi76xcLS6Q-N-QgvIa-58" value="" style="shape=tableRow;horizontal=0;startSize=0;swimlaneHead=0;swimlaneBody=0;top=0;left=0;bottom=0;right=0;collapsible=0;dropTarget=0;fillColor=none;points=[[0,0.5],[1,0.5]];portConstraint=eastwest;strokeWidth=2;fontSize=12;" parent="mCQi76xcLS6Q-N-QgvIa-57" vertex="1">
          <mxGeometry width="109" height="20" as="geometry" />
        </mxCell>
        <mxCell id="mCQi76xcLS6Q-N-QgvIa-59" value="D&lt;sub&gt;1&lt;/sub&gt;" style="shape=partialRectangle;html=1;whiteSpace=wrap;connectable=0;fillColor=none;top=0;left=0;bottom=0;right=0;overflow=hidden;strokeWidth=2;fontSize=12;" parent="mCQi76xcLS6Q-N-QgvIa-58" vertex="1">
          <mxGeometry width="22" height="20" as="geometry">
            <mxRectangle width="22" height="20" as="alternateBounds" />
          </mxGeometry>
        </mxCell>
        <mxCell id="mCQi76xcLS6Q-N-QgvIa-60" value="D&lt;sub&gt;3&lt;/sub&gt;" style="shape=partialRectangle;html=1;whiteSpace=wrap;connectable=0;fillColor=none;top=0;left=0;bottom=0;right=0;overflow=hidden;strokeWidth=2;fontSize=12;" parent="mCQi76xcLS6Q-N-QgvIa-58" vertex="1">
          <mxGeometry x="22" width="22" height="20" as="geometry">
            <mxRectangle width="22" height="20" as="alternateBounds" />
          </mxGeometry>
        </mxCell>
        <mxCell id="mCQi76xcLS6Q-N-QgvIa-61" value="..." style="shape=partialRectangle;html=1;whiteSpace=wrap;connectable=0;fillColor=none;top=0;left=0;bottom=0;right=0;overflow=hidden;strokeWidth=2;fontSize=12;" parent="mCQi76xcLS6Q-N-QgvIa-58" vertex="1">
          <mxGeometry x="44" width="21" height="20" as="geometry">
            <mxRectangle width="21" height="20" as="alternateBounds" />
          </mxGeometry>
        </mxCell>
        <mxCell id="mCQi76xcLS6Q-N-QgvIa-62" style="shape=partialRectangle;html=1;whiteSpace=wrap;connectable=0;fillColor=none;top=0;left=0;bottom=0;right=0;overflow=hidden;strokeWidth=2;fontSize=12;" parent="mCQi76xcLS6Q-N-QgvIa-58" vertex="1">
          <mxGeometry x="65" width="22" height="20" as="geometry">
            <mxRectangle width="22" height="20" as="alternateBounds" />
          </mxGeometry>
        </mxCell>
        <mxCell id="mCQi76xcLS6Q-N-QgvIa-63" style="shape=partialRectangle;html=1;whiteSpace=wrap;connectable=0;fillColor=none;top=0;left=0;bottom=0;right=0;overflow=hidden;strokeWidth=2;fontSize=12;" parent="mCQi76xcLS6Q-N-QgvIa-58" vertex="1">
          <mxGeometry x="87" width="22" height="20" as="geometry">
            <mxRectangle width="22" height="20" as="alternateBounds" />
          </mxGeometry>
        </mxCell>
        <mxCell id="mCQi76xcLS6Q-N-QgvIa-51" value="&lt;b style=&quot;caret-color: rgb(0, 0, 0); color: rgb(0, 0, 0); font-family: Helvetica; font-size: 12px; font-style: normal; font-variant-caps: normal; letter-spacing: normal; text-align: center; text-indent: 0px; text-transform: none; word-spacing: 0px; -webkit-text-stroke-width: 0px; text-decoration: none;&quot;&gt;Minimum Finder Blocks&lt;/b&gt;" style="text;whiteSpace=wrap;html=1;fontSize=12;" parent="mCQi76xcLS6Q-N-QgvIa-23" vertex="1">
          <mxGeometry x="6" y="122" width="140" height="20" as="geometry" />
        </mxCell>
        <mxCell id="mCQi76xcLS6Q-N-QgvIa-50" value="&lt;b style=&quot;caret-color: rgb(0, 0, 0); color: rgb(0, 0, 0); font-family: Helvetica; font-size: 12px; font-style: normal; font-variant-caps: normal; letter-spacing: normal; text-align: center; text-indent: 0px; text-transform: none; word-spacing: 0px; -webkit-text-stroke-width: 0px; text-decoration: none;&quot;&gt;Round-Robin Blocks&lt;/b&gt;" style="text;whiteSpace=wrap;html=1;fontSize=12;" parent="mCQi76xcLS6Q-N-QgvIa-23" vertex="1">
          <mxGeometry x="185" y="122" width="140" height="20" as="geometry" />
        </mxCell>
        <mxCell id="mCQi76xcLS6Q-N-QgvIa-49" value="" style="endArrow=classic;html=1;rounded=0;fontSize=12;strokeWidth=2;entryX=-0.003;entryY=0.631;entryDx=0;entryDy=0;entryPerimeter=0;" parent="1" target="mCQi76xcLS6Q-N-QgvIa-26" edge="1">
          <mxGeometry width="50" height="50" relative="1" as="geometry">
            <mxPoint x="130" y="160.5499999999999" as="sourcePoint" />
            <mxPoint x="220" y="160.5499999999999" as="targetPoint" />
          </mxGeometry>
        </mxCell>
        <mxCell id="mCQi76xcLS6Q-N-QgvIa-64" value="Yes" style="text;html=1;strokeColor=none;fillColor=none;align=center;verticalAlign=middle;whiteSpace=wrap;rounded=0;" parent="1" vertex="1">
          <mxGeometry x="160" y="135" width="20" height="26" as="geometry" />
        </mxCell>
        <mxCell id="mCQi76xcLS6Q-N-QgvIa-65" value="&lt;font face=&quot;Helvetica&quot;&gt;&lt;i&gt;Select the final destination based on the active policy&lt;/i&gt;&lt;/font&gt;" style="rounded=1;whiteSpace=wrap;html=1;strokeWidth=2;fontFamily=Times New Roman;fontSize=12;fillColor=#E6E6E6;arcSize=37;strokeColor=#000000;dashed=1;dashPattern=1 1;" parent="1" vertex="1">
          <mxGeometry x="379" y="280.5" width="140" height="70" as="geometry" />
        </mxCell>
        <mxCell id="mCQi76xcLS6Q-N-QgvIa-67" value="Egress:&lt;br&gt;Map Packet&lt;br&gt;to an output&lt;br&gt;port" style="rounded=1;whiteSpace=wrap;html=1;fillColor=#E6E6E6;strokeWidth=2;align=center;" parent="1" vertex="1">
          <mxGeometry x="720" y="120" width="80" height="200" as="geometry" />
        </mxCell>
        <mxCell id="mCQi76xcLS6Q-N-QgvIa-68" value="" style="shape=table;html=1;whiteSpace=wrap;startSize=0;container=1;collapsible=0;childLayout=tableLayout;strokeWidth=2;" parent="1" vertex="1">
          <mxGeometry x="559" y="245" width="121" height="101" as="geometry" />
        </mxCell>
        <mxCell id="mCQi76xcLS6Q-N-QgvIa-69" value="" style="shape=tableRow;horizontal=0;startSize=0;swimlaneHead=0;swimlaneBody=0;top=0;left=0;bottom=0;right=0;collapsible=0;dropTarget=0;fillColor=none;points=[[0,0.5],[1,0.5]];portConstraint=eastwest;" parent="mCQi76xcLS6Q-N-QgvIa-68" vertex="1">
          <mxGeometry width="121" height="21" as="geometry" />
        </mxCell>
        <mxCell id="mCQi76xcLS6Q-N-QgvIa-70" value="&lt;b&gt;hash&lt;font size=&quot;1&quot;&gt;&lt;sub&gt;C&lt;/sub&gt;&lt;/font&gt;&lt;/b&gt;" style="shape=partialRectangle;html=1;whiteSpace=wrap;connectable=0;fillColor=none;top=0;left=0;bottom=0;right=0;overflow=hidden;" parent="mCQi76xcLS6Q-N-QgvIa-69" vertex="1">
          <mxGeometry width="44" height="21" as="geometry">
            <mxRectangle width="44" height="21" as="alternateBounds" />
          </mxGeometry>
        </mxCell>
        <mxCell id="mCQi76xcLS6Q-N-QgvIa-71" value="&lt;b&gt;DIP&lt;/b&gt;" style="shape=partialRectangle;html=1;whiteSpace=wrap;connectable=0;fillColor=none;top=0;left=0;bottom=0;right=0;overflow=hidden;" parent="mCQi76xcLS6Q-N-QgvIa-69" vertex="1">
          <mxGeometry x="44" width="77" height="21" as="geometry">
            <mxRectangle width="77" height="21" as="alternateBounds" />
          </mxGeometry>
        </mxCell>
        <mxCell id="mCQi76xcLS6Q-N-QgvIa-72" value="" style="shape=tableRow;horizontal=0;startSize=0;swimlaneHead=0;swimlaneBody=0;top=0;left=0;bottom=0;right=0;collapsible=0;dropTarget=0;fillColor=none;points=[[0,0.5],[1,0.5]];portConstraint=eastwest;" parent="mCQi76xcLS6Q-N-QgvIa-68" vertex="1">
          <mxGeometry y="21" width="121" height="19" as="geometry" />
        </mxCell>
        <mxCell id="mCQi76xcLS6Q-N-QgvIa-73" value="....." style="shape=partialRectangle;html=1;whiteSpace=wrap;connectable=0;fillColor=none;top=0;left=0;bottom=0;right=0;overflow=hidden;" parent="mCQi76xcLS6Q-N-QgvIa-72" vertex="1">
          <mxGeometry width="44" height="19" as="geometry">
            <mxRectangle width="44" height="19" as="alternateBounds" />
          </mxGeometry>
        </mxCell>
        <mxCell id="mCQi76xcLS6Q-N-QgvIa-74" value="....." style="shape=partialRectangle;html=1;whiteSpace=wrap;connectable=0;fillColor=none;top=0;left=0;bottom=0;right=0;overflow=hidden;" parent="mCQi76xcLS6Q-N-QgvIa-72" vertex="1">
          <mxGeometry x="44" width="77" height="19" as="geometry">
            <mxRectangle width="77" height="19" as="alternateBounds" />
          </mxGeometry>
        </mxCell>
        <mxCell id="mCQi76xcLS6Q-N-QgvIa-75" value="" style="shape=tableRow;horizontal=0;startSize=0;swimlaneHead=0;swimlaneBody=0;top=0;left=0;bottom=0;right=0;collapsible=0;dropTarget=0;fillColor=none;points=[[0,0.5],[1,0.5]];portConstraint=eastwest;" parent="mCQi76xcLS6Q-N-QgvIa-68" vertex="1">
          <mxGeometry y="40" width="121" height="21" as="geometry" />
        </mxCell>
        <mxCell id="mCQi76xcLS6Q-N-QgvIa-76" value="&lt;font style=&quot;font-size: 12px;&quot;&gt;21A7&lt;/font&gt;" style="shape=partialRectangle;html=1;whiteSpace=wrap;connectable=0;fillColor=none;top=0;left=0;bottom=0;right=0;overflow=hidden;" parent="mCQi76xcLS6Q-N-QgvIa-75" vertex="1">
          <mxGeometry width="44" height="21" as="geometry">
            <mxRectangle width="44" height="21" as="alternateBounds" />
          </mxGeometry>
        </mxCell>
        <mxCell id="mCQi76xcLS6Q-N-QgvIa-77" value="&lt;font style=&quot;font-size: 11px;&quot;&gt;DIP_2_CPU&lt;/font&gt;" style="shape=partialRectangle;html=1;whiteSpace=wrap;connectable=0;fillColor=none;top=0;left=0;bottom=0;right=0;overflow=hidden;" parent="mCQi76xcLS6Q-N-QgvIa-75" vertex="1">
          <mxGeometry x="44" width="77" height="21" as="geometry">
            <mxRectangle width="77" height="21" as="alternateBounds" />
          </mxGeometry>
        </mxCell>
        <mxCell id="mCQi76xcLS6Q-N-QgvIa-78" style="shape=tableRow;horizontal=0;startSize=0;swimlaneHead=0;swimlaneBody=0;top=0;left=0;bottom=0;right=0;collapsible=0;dropTarget=0;fillColor=none;points=[[0,0.5],[1,0.5]];portConstraint=eastwest;" parent="mCQi76xcLS6Q-N-QgvIa-68" vertex="1">
          <mxGeometry y="61" width="121" height="21" as="geometry" />
        </mxCell>
        <mxCell id="mCQi76xcLS6Q-N-QgvIa-79" value="&lt;font style=&quot;font-size: 12px;&quot;&gt;95BF&lt;/font&gt;" style="shape=partialRectangle;html=1;whiteSpace=wrap;connectable=0;fillColor=none;top=0;left=0;bottom=0;right=0;overflow=hidden;" parent="mCQi76xcLS6Q-N-QgvIa-78" vertex="1">
          <mxGeometry width="44" height="21" as="geometry">
            <mxRectangle width="44" height="21" as="alternateBounds" />
          </mxGeometry>
        </mxCell>
        <mxCell id="mCQi76xcLS6Q-N-QgvIa-80" value="&lt;font style=&quot;font-size: 12px;&quot;&gt;DIP_1_SNIC&lt;/font&gt;" style="shape=partialRectangle;html=1;whiteSpace=wrap;connectable=0;fillColor=none;top=0;left=0;bottom=0;right=0;overflow=hidden;" parent="mCQi76xcLS6Q-N-QgvIa-78" vertex="1">
          <mxGeometry x="44" width="77" height="21" as="geometry">
            <mxRectangle width="77" height="21" as="alternateBounds" />
          </mxGeometry>
        </mxCell>
        <mxCell id="mCQi76xcLS6Q-N-QgvIa-81" style="shape=tableRow;horizontal=0;startSize=0;swimlaneHead=0;swimlaneBody=0;top=0;left=0;bottom=0;right=0;collapsible=0;dropTarget=0;fillColor=none;points=[[0,0.5],[1,0.5]];portConstraint=eastwest;" parent="mCQi76xcLS6Q-N-QgvIa-68" vertex="1">
          <mxGeometry y="82" width="121" height="19" as="geometry" />
        </mxCell>
        <mxCell id="mCQi76xcLS6Q-N-QgvIa-82" value="....." style="shape=partialRectangle;html=1;whiteSpace=wrap;connectable=0;fillColor=none;top=0;left=0;bottom=0;right=0;overflow=hidden;" parent="mCQi76xcLS6Q-N-QgvIa-81" vertex="1">
          <mxGeometry width="44" height="19" as="geometry">
            <mxRectangle width="44" height="19" as="alternateBounds" />
          </mxGeometry>
        </mxCell>
        <mxCell id="mCQi76xcLS6Q-N-QgvIa-83" value="....." style="shape=partialRectangle;html=1;whiteSpace=wrap;connectable=0;fillColor=none;top=0;left=0;bottom=0;right=0;overflow=hidden;" parent="mCQi76xcLS6Q-N-QgvIa-81" vertex="1">
          <mxGeometry x="44" width="77" height="19" as="geometry">
            <mxRectangle width="77" height="19" as="alternateBounds" />
          </mxGeometry>
        </mxCell>
        <mxCell id="mCQi76xcLS6Q-N-QgvIa-84" value="" style="endArrow=classic;html=1;rounded=0;strokeWidth=2;" parent="1" edge="1">
          <mxGeometry width="50" height="50" relative="1" as="geometry">
            <mxPoint x="340.9999999999998" y="299.15999999999997" as="sourcePoint" />
            <mxPoint x="380.9999999999998" y="299.15999999999997" as="targetPoint" />
          </mxGeometry>
        </mxCell>
        <mxCell id="mCQi76xcLS6Q-N-QgvIa-85" value="" style="endArrow=classic;html=1;rounded=0;strokeColor=#000000;strokeWidth=2;fontFamily=Helvetica;fontSize=12;" parent="1" edge="1">
          <mxGeometry width="50" height="50" relative="1" as="geometry">
            <mxPoint x="520.9999999999998" y="300.2099999999999" as="sourcePoint" />
            <mxPoint x="560.9999999999998" y="300.2099999999999" as="targetPoint" />
          </mxGeometry>
        </mxCell>
        <mxCell id="mCQi76xcLS6Q-N-QgvIa-86" value="&lt;b&gt;Pkt out&lt;/b&gt;" style="text;html=1;strokeColor=none;fillColor=none;align=center;verticalAlign=middle;whiteSpace=wrap;rounded=0;" parent="1" vertex="1">
          <mxGeometry x="800" y="180" width="50" height="20" as="geometry" />
        </mxCell>
        <mxCell id="mCQi76xcLS6Q-N-QgvIa-87" value="" style="endArrow=classic;html=1;rounded=0;strokeWidth=2;" parent="1" edge="1">
          <mxGeometry width="50" height="50" relative="1" as="geometry">
            <mxPoint x="800" y="210" as="sourcePoint" />
            <mxPoint x="840" y="210" as="targetPoint" />
          </mxGeometry>
        </mxCell>
        <mxCell id="mCQi76xcLS6Q-N-QgvIa-89" value="&lt;i&gt;&lt;font style=&quot;font-size: 12px;&quot;&gt;ConnTable&lt;/font&gt;&lt;/i&gt;" style="text;strokeColor=none;fillColor=none;align=left;verticalAlign=middle;spacingLeft=4;spacingRight=4;overflow=hidden;points=[[0,0.5],[1,0.5]];portConstraint=eastwest;rotatable=1;whiteSpace=wrap;html=1;strokeWidth=2;movable=1;resizable=1;deletable=1;editable=1;connectable=1;" parent="1" vertex="1">
          <mxGeometry x="590" y="341" width="70" height="25" as="geometry" />
        </mxCell>
        <mxCell id="mCQi76xcLS6Q-N-QgvIa-90" value="&lt;i&gt;&lt;font style=&quot;font-size: 12px;&quot;&gt;ServerTable&lt;/font&gt;&lt;/i&gt;" style="text;strokeColor=none;fillColor=none;align=left;verticalAlign=middle;spacingLeft=4;spacingRight=4;overflow=hidden;points=[[0,0.5],[1,0.5]];portConstraint=eastwest;rotatable=1;whiteSpace=wrap;html=1;strokeWidth=2;movable=1;resizable=1;deletable=1;editable=1;connectable=1;" parent="1" vertex="1">
          <mxGeometry x="260" y="335.5" width="110" height="25" as="geometry" />
        </mxCell>
        <mxCell id="80IjOjLRBQuKTfGDCUla-2" style="edgeStyle=orthogonalEdgeStyle;rounded=0;orthogonalLoop=1;jettySize=auto;html=1;exitX=0;exitY=0.25;exitDx=0;exitDy=0;entryX=1.006;entryY=0.074;entryDx=0;entryDy=0;entryPerimeter=0;dashed=1;dashPattern=1 1;strokeColor=#000000;strokeWidth=2;fontSize=11;startArrow=none;startFill=0;endArrow=classic;endFill=1;" parent="1" source="15ril-I86whBp8MXjO3Q-1" target="mCQi76xcLS6Q-N-QgvIa-24" edge="1">
          <mxGeometry relative="1" as="geometry" />
        </mxCell>
        <mxCell id="80IjOjLRBQuKTfGDCUla-3" style="edgeStyle=orthogonalEdgeStyle;rounded=0;orthogonalLoop=1;jettySize=auto;html=1;entryX=0.5;entryY=0;entryDx=0;entryDy=0;dashed=1;dashPattern=1 1;strokeColor=#000000;strokeWidth=2;fontSize=11;startArrow=none;startFill=0;endArrow=classic;endFill=1;" parent="1" source="15ril-I86whBp8MXjO3Q-1" target="mCQi76xcLS6Q-N-QgvIa-55" edge="1">
          <mxGeometry relative="1" as="geometry" />
        </mxCell>
        <mxCell id="15ril-I86whBp8MXjO3Q-1" value="&lt;b&gt;Control Plane API&lt;/b&gt;" style="rounded=0;whiteSpace=wrap;html=1;dashed=1;dashPattern=1 1;fontSize=11;fillColor=#999999;fontColor=#333333;strokeColor=#666666;fillStyle=solid;" parent="1" vertex="1">
          <mxGeometry x="620" y="90" width="90" height="80" as="geometry" />
        </mxCell>
        <mxCell id="WlU6AQ6pAOzRXidyF5Hj-2" value="" style="shape=flexArrow;endArrow=classic;html=1;rounded=0;strokeWidth=2;fontFamily=Helvetica;fontSize=12;width=18.46153846153846;endSize=3.6615384615384614;fillColor=#f5f5f5;strokeColor=#999999;endWidth=29.01098901098901;" parent="1" edge="1">
          <mxGeometry width="50" height="50" relative="1" as="geometry">
            <mxPoint x="448.83000000000004" y="235.9999999999999" as="sourcePoint" />
            <mxPoint x="450" y="280" as="targetPoint" />
          </mxGeometry>
        </mxCell>
        <mxCell id="WlU6AQ6pAOzRXidyF5Hj-4" value="" style="endArrow=classic;html=1;rounded=0;strokeColor=#000000;strokeWidth=2;fontFamily=Helvetica;fontSize=12;" parent="1" edge="1">
          <mxGeometry width="50" height="50" relative="1" as="geometry">
            <mxPoint x="679.9999999999998" y="269.99999999999994" as="sourcePoint" />
            <mxPoint x="719.9999999999998" y="269.99999999999994" as="targetPoint" />
          </mxGeometry>
        </mxCell>
        <mxCell id="80IjOjLRBQuKTfGDCUla-7" value="" style="edgeStyle=segmentEdgeStyle;endArrow=classic;html=1;rounded=0;strokeColor=#000000;strokeWidth=2;fontSize=11;exitX=0.5;exitY=1;exitDx=0;exitDy=0;" parent="1" source="mCQi76xcLS6Q-N-QgvIa-6" edge="1">
          <mxGeometry width="50" height="50" relative="1" as="geometry">
            <mxPoint x="360" y="380" as="sourcePoint" />
            <mxPoint x="590" y="350" as="targetPoint" />
            <Array as="points">
              <mxPoint x="190" y="370" />
              <mxPoint x="590" y="370" />
            </Array>
          </mxGeometry>
        </mxCell>
        <mxCell id="80IjOjLRBQuKTfGDCUla-8" value="Hit" style="text;html=1;strokeColor=none;fillColor=none;align=center;verticalAlign=middle;whiteSpace=wrap;rounded=0;" parent="1" vertex="1">
          <mxGeometry x="193" y="350.5" width="20" height="10" as="geometry" />
        </mxCell>
      </root>
    </mxGraphModel>
  </diagram>
  <diagram id="NUCjcESA_pa7LQzgJmfq" name="Page-3">
    <mxGraphModel dx="766" dy="471" grid="1" gridSize="10" guides="1" tooltips="1" connect="1" arrows="1" fold="1" page="1" pageScale="1" pageWidth="850" pageHeight="1100" math="0" shadow="0">
      <root>
        <mxCell id="0" />
        <mxCell id="1" parent="0" />
        <mxCell id="fwf_eEtNBpNZPZ1BkpR8-78" value="" style="rounded=1;whiteSpace=wrap;html=1;fillStyle=solid;strokeColor=#000000;fontSize=10;fontColor=#000000;fillColor=#f5f5f5;" parent="1" vertex="1">
          <mxGeometry x="315.44" y="178.75" width="260" height="86.5" as="geometry" />
        </mxCell>
        <mxCell id="fwf_eEtNBpNZPZ1BkpR8-49" value="" style="rounded=1;whiteSpace=wrap;html=1;fillStyle=solid;strokeColor=#000000;fontSize=10;fontColor=#000000;fillColor=#E6E6E6;" parent="1" vertex="1">
          <mxGeometry x="339.12" y="194" width="100" height="50" as="geometry" />
        </mxCell>
        <mxCell id="um2tpRmu60vT5zUa6dgW-1" value="Ingress: Update Accelerator State?" style="rounded=1;whiteSpace=wrap;html=1;fillColor=#E6E6E6;strokeWidth=2;align=center;" parent="1" vertex="1">
          <mxGeometry x="60" y="80" width="80" height="185" as="geometry" />
        </mxCell>
        <mxCell id="um2tpRmu60vT5zUa6dgW-2" value="" style="endArrow=classic;html=1;rounded=0;strokeWidth=2;" parent="1" edge="1">
          <mxGeometry width="50" height="50" relative="1" as="geometry">
            <mxPoint x="20" y="144.9999999999999" as="sourcePoint" />
            <mxPoint x="60" y="144.9999999999999" as="targetPoint" />
          </mxGeometry>
        </mxCell>
        <mxCell id="um2tpRmu60vT5zUa6dgW-3" value="&lt;b&gt;Pkt in&lt;/b&gt;" style="text;html=1;strokeColor=none;fillColor=none;align=center;verticalAlign=middle;whiteSpace=wrap;rounded=0;" parent="1" vertex="1">
          <mxGeometry x="11" y="115" width="40" height="20" as="geometry" />
        </mxCell>
        <mxCell id="um2tpRmu60vT5zUa6dgW-4" value="" style="endArrow=classic;html=1;rounded=0;strokeWidth=2;" parent="1" edge="1">
          <mxGeometry width="50" height="50" relative="1" as="geometry">
            <mxPoint x="140" y="140" as="sourcePoint" />
            <mxPoint x="171" y="140" as="targetPoint" />
          </mxGeometry>
        </mxCell>
        <mxCell id="um2tpRmu60vT5zUa6dgW-5" value="No" style="text;html=1;strokeColor=none;fillColor=none;align=center;verticalAlign=middle;whiteSpace=wrap;rounded=0;" parent="1" vertex="1">
          <mxGeometry x="149" y="110" width="20" height="30" as="geometry" />
        </mxCell>
        <mxCell id="uIE5gjcXLeh-D9mCno_Y-7" style="edgeStyle=orthogonalEdgeStyle;rounded=0;orthogonalLoop=1;jettySize=auto;html=1;entryX=0.479;entryY=-0.023;entryDx=0;entryDy=0;entryPerimeter=0;fontSize=10;strokeWidth=2;" parent="1" source="um2tpRmu60vT5zUa6dgW-6" target="um2tpRmu60vT5zUa6dgW-69" edge="1">
          <mxGeometry relative="1" as="geometry">
            <Array as="points">
              <mxPoint x="190" y="70" />
              <mxPoint x="639" y="70" />
            </Array>
          </mxGeometry>
        </mxCell>
        <mxCell id="um2tpRmu60vT5zUa6dgW-7" value="Miss" style="text;html=1;strokeColor=none;fillColor=none;align=center;verticalAlign=middle;whiteSpace=wrap;rounded=0;" parent="1" vertex="1">
          <mxGeometry x="220" y="120" width="20" height="10" as="geometry" />
        </mxCell>
        <mxCell id="um2tpRmu60vT5zUa6dgW-8" value="" style="shape=table;html=1;whiteSpace=wrap;startSize=0;container=1;collapsible=0;childLayout=tableLayout;strokeWidth=1;" parent="1" vertex="1">
          <mxGeometry x="247" y="85" width="90" height="80" as="geometry" />
        </mxCell>
        <mxCell id="um2tpRmu60vT5zUa6dgW-9" value="" style="shape=tableRow;horizontal=0;startSize=0;swimlaneHead=0;swimlaneBody=0;top=0;left=0;bottom=0;right=0;collapsible=0;dropTarget=0;fillColor=none;points=[[0,0.5],[1,0.5]];portConstraint=eastwest;" parent="um2tpRmu60vT5zUa6dgW-8" vertex="1">
          <mxGeometry width="90" height="21" as="geometry" />
        </mxCell>
        <mxCell id="um2tpRmu60vT5zUa6dgW-10" value="&lt;b&gt;hash&lt;sub&gt;s&lt;/sub&gt;&lt;/b&gt;" style="shape=partialRectangle;html=1;whiteSpace=wrap;connectable=0;fillColor=none;top=0;left=0;bottom=0;right=0;overflow=hidden;" parent="um2tpRmu60vT5zUa6dgW-9" vertex="1">
          <mxGeometry width="45" height="21" as="geometry">
            <mxRectangle width="45" height="21" as="alternateBounds" />
          </mxGeometry>
        </mxCell>
        <mxCell id="um2tpRmu60vT5zUa6dgW-11" value="&lt;b&gt;S-code&lt;/b&gt;" style="shape=partialRectangle;html=1;whiteSpace=wrap;connectable=0;fillColor=none;top=0;left=0;bottom=0;right=0;overflow=hidden;" parent="um2tpRmu60vT5zUa6dgW-9" vertex="1">
          <mxGeometry x="45" width="45" height="21" as="geometry">
            <mxRectangle width="45" height="21" as="alternateBounds" />
          </mxGeometry>
        </mxCell>
        <mxCell id="um2tpRmu60vT5zUa6dgW-12" value="" style="shape=tableRow;horizontal=0;startSize=0;swimlaneHead=0;swimlaneBody=0;top=0;left=0;bottom=0;right=0;collapsible=0;dropTarget=0;fillColor=none;points=[[0,0.5],[1,0.5]];portConstraint=eastwest;" parent="um2tpRmu60vT5zUa6dgW-8" vertex="1">
          <mxGeometry y="21" width="90" height="19" as="geometry" />
        </mxCell>
        <mxCell id="um2tpRmu60vT5zUa6dgW-13" value="....." style="shape=partialRectangle;html=1;whiteSpace=wrap;connectable=0;fillColor=none;top=0;left=0;bottom=0;right=0;overflow=hidden;" parent="um2tpRmu60vT5zUa6dgW-12" vertex="1">
          <mxGeometry width="45" height="19" as="geometry">
            <mxRectangle width="45" height="19" as="alternateBounds" />
          </mxGeometry>
        </mxCell>
        <mxCell id="um2tpRmu60vT5zUa6dgW-14" value="....." style="shape=partialRectangle;html=1;whiteSpace=wrap;connectable=0;fillColor=none;top=0;left=0;bottom=0;right=0;overflow=hidden;" parent="um2tpRmu60vT5zUa6dgW-12" vertex="1">
          <mxGeometry x="45" width="45" height="19" as="geometry">
            <mxRectangle width="45" height="19" as="alternateBounds" />
          </mxGeometry>
        </mxCell>
        <mxCell id="um2tpRmu60vT5zUa6dgW-15" value="" style="shape=tableRow;horizontal=0;startSize=0;swimlaneHead=0;swimlaneBody=0;top=0;left=0;bottom=0;right=0;collapsible=0;dropTarget=0;fillColor=none;points=[[0,0.5],[1,0.5]];portConstraint=eastwest;" parent="um2tpRmu60vT5zUa6dgW-8" vertex="1">
          <mxGeometry y="40" width="90" height="21" as="geometry" />
        </mxCell>
        <mxCell id="um2tpRmu60vT5zUa6dgW-16" value="0002" style="shape=partialRectangle;html=1;whiteSpace=wrap;connectable=0;fillColor=none;top=0;left=0;bottom=0;right=0;overflow=hidden;" parent="um2tpRmu60vT5zUa6dgW-15" vertex="1">
          <mxGeometry width="45" height="21" as="geometry">
            <mxRectangle width="45" height="21" as="alternateBounds" />
          </mxGeometry>
        </mxCell>
        <mxCell id="um2tpRmu60vT5zUa6dgW-17" value="S2" style="shape=partialRectangle;html=1;whiteSpace=wrap;connectable=0;fillColor=none;top=0;left=0;bottom=0;right=0;overflow=hidden;" parent="um2tpRmu60vT5zUa6dgW-15" vertex="1">
          <mxGeometry x="45" width="45" height="21" as="geometry">
            <mxRectangle width="45" height="21" as="alternateBounds" />
          </mxGeometry>
        </mxCell>
        <mxCell id="um2tpRmu60vT5zUa6dgW-18" style="shape=tableRow;horizontal=0;startSize=0;swimlaneHead=0;swimlaneBody=0;top=0;left=0;bottom=0;right=0;collapsible=0;dropTarget=0;fillColor=none;points=[[0,0.5],[1,0.5]];portConstraint=eastwest;" parent="um2tpRmu60vT5zUa6dgW-8" vertex="1">
          <mxGeometry y="61" width="90" height="19" as="geometry" />
        </mxCell>
        <mxCell id="um2tpRmu60vT5zUa6dgW-19" value="0003" style="shape=partialRectangle;html=1;whiteSpace=wrap;connectable=0;fillColor=none;top=0;left=0;bottom=0;right=0;overflow=hidden;" parent="um2tpRmu60vT5zUa6dgW-18" vertex="1">
          <mxGeometry width="45" height="19" as="geometry">
            <mxRectangle width="45" height="19" as="alternateBounds" />
          </mxGeometry>
        </mxCell>
        <mxCell id="um2tpRmu60vT5zUa6dgW-20" value="S1" style="shape=partialRectangle;html=1;whiteSpace=wrap;connectable=0;fillColor=none;top=0;left=0;bottom=0;right=0;overflow=hidden;" parent="um2tpRmu60vT5zUa6dgW-18" vertex="1">
          <mxGeometry x="45" width="45" height="19" as="geometry">
            <mxRectangle width="45" height="19" as="alternateBounds" />
          </mxGeometry>
        </mxCell>
        <mxCell id="um2tpRmu60vT5zUa6dgW-21" value="" style="endArrow=classic;html=1;rounded=0;strokeWidth=2;" parent="1" edge="1">
          <mxGeometry width="50" height="50" relative="1" as="geometry">
            <mxPoint x="210" y="140" as="sourcePoint" />
            <mxPoint x="246.5" y="140" as="targetPoint" />
          </mxGeometry>
        </mxCell>
        <mxCell id="um2tpRmu60vT5zUa6dgW-50" value="&lt;span style=&quot;caret-color: rgb(0, 0, 0); color: rgb(0, 0, 0); font-family: Helvetica; font-style: normal; font-variant-caps: normal; letter-spacing: normal; text-align: center; text-indent: 0px; text-transform: none; word-spacing: 0px; -webkit-text-stroke-width: 0px; text-decoration: none;&quot;&gt;&lt;font style=&quot;font-size: 12px;&quot;&gt;Round-Robin Blocks&lt;/font&gt;&lt;/span&gt;" style="text;whiteSpace=wrap;html=1;fontSize=12;" parent="1" vertex="1">
          <mxGeometry x="458.12" y="239" width="112.75" height="20" as="geometry" />
        </mxCell>
        <mxCell id="um2tpRmu60vT5zUa6dgW-51" value="&lt;span style=&quot;caret-color: rgb(0, 0, 0); color: rgb(0, 0, 0); font-family: Helvetica; font-style: normal; font-variant-caps: normal; letter-spacing: normal; text-align: center; text-indent: 0px; text-transform: none; word-spacing: 0px; -webkit-text-stroke-width: 0px; text-decoration: none;&quot;&gt;&lt;font style=&quot;font-size: 12px;&quot;&gt;Minimum Finder Blocks&lt;/font&gt;&lt;/span&gt;" style="text;whiteSpace=wrap;html=1;fontSize=12;" parent="1" vertex="1">
          <mxGeometry x="320" y="239" width="130.25" height="20" as="geometry" />
        </mxCell>
        <mxCell id="um2tpRmu60vT5zUa6dgW-64" value="Yes" style="text;html=1;strokeColor=none;fillColor=none;align=center;verticalAlign=middle;whiteSpace=wrap;rounded=0;" parent="1" vertex="1">
          <mxGeometry x="149" y="189" width="20" height="26" as="geometry" />
        </mxCell>
        <mxCell id="fwf_eEtNBpNZPZ1BkpR8-100" style="edgeStyle=orthogonalEdgeStyle;rounded=0;orthogonalLoop=1;jettySize=auto;html=1;exitX=1;exitY=0.5;exitDx=0;exitDy=0;entryX=0;entryY=0.071;entryDx=0;entryDy=0;entryPerimeter=0;strokeColor=#000000;strokeWidth=2;fontSize=12;fontColor=#000000;startArrow=none;startFill=0;endArrow=classic;endFill=1;fillColor=#97D077;" parent="1" source="um2tpRmu60vT5zUa6dgW-65" target="um2tpRmu60vT5zUa6dgW-72" edge="1">
          <mxGeometry relative="1" as="geometry" />
        </mxCell>
        <mxCell id="um2tpRmu60vT5zUa6dgW-65" value="&lt;font face=&quot;Helvetica&quot;&gt;&lt;i&gt;Select the final destination based on the active policy&lt;/i&gt;&lt;/font&gt;" style="rounded=1;whiteSpace=wrap;html=1;strokeWidth=1;fontFamily=Times New Roman;fontSize=12;fillColor=#E6E6E6;arcSize=37;strokeColor=#000000;dashed=1;" parent="1" vertex="1">
          <mxGeometry x="375.44" y="84" width="140" height="70" as="geometry" />
        </mxCell>
        <mxCell id="um2tpRmu60vT5zUa6dgW-67" value="Egress:&lt;br&gt;Map Packet&lt;br&gt;to an output&lt;br&gt;port" style="rounded=1;whiteSpace=wrap;html=1;fillColor=#E6E6E6;strokeWidth=2;align=center;" parent="1" vertex="1">
          <mxGeometry x="718" y="80" width="80" height="185" as="geometry" />
        </mxCell>
        <mxCell id="um2tpRmu60vT5zUa6dgW-68" value="" style="shape=table;html=1;whiteSpace=wrap;startSize=0;container=1;collapsible=0;childLayout=tableLayout;strokeWidth=1;" parent="1" vertex="1">
          <mxGeometry x="586" y="96.5" width="110" height="101" as="geometry" />
        </mxCell>
        <mxCell id="um2tpRmu60vT5zUa6dgW-69" value="" style="shape=tableRow;horizontal=0;startSize=0;swimlaneHead=0;swimlaneBody=0;top=0;left=0;bottom=0;right=0;collapsible=0;dropTarget=0;fillColor=none;points=[[0,0.5],[1,0.5]];portConstraint=eastwest;" parent="um2tpRmu60vT5zUa6dgW-68" vertex="1">
          <mxGeometry width="110" height="21" as="geometry" />
        </mxCell>
        <mxCell id="um2tpRmu60vT5zUa6dgW-70" value="&lt;b&gt;hash&lt;font size=&quot;1&quot;&gt;&lt;sub&gt;C&lt;/sub&gt;&lt;/font&gt;&lt;/b&gt;" style="shape=partialRectangle;html=1;whiteSpace=wrap;connectable=0;fillColor=none;top=0;left=0;bottom=0;right=0;overflow=hidden;" parent="um2tpRmu60vT5zUa6dgW-69" vertex="1">
          <mxGeometry width="40" height="21" as="geometry">
            <mxRectangle width="40" height="21" as="alternateBounds" />
          </mxGeometry>
        </mxCell>
        <mxCell id="um2tpRmu60vT5zUa6dgW-71" value="&lt;b&gt;DIP&lt;/b&gt;" style="shape=partialRectangle;html=1;whiteSpace=wrap;connectable=0;fillColor=none;top=0;left=0;bottom=0;right=0;overflow=hidden;" parent="um2tpRmu60vT5zUa6dgW-69" vertex="1">
          <mxGeometry x="40" width="70" height="21" as="geometry">
            <mxRectangle width="70" height="21" as="alternateBounds" />
          </mxGeometry>
        </mxCell>
        <mxCell id="um2tpRmu60vT5zUa6dgW-72" value="" style="shape=tableRow;horizontal=0;startSize=0;swimlaneHead=0;swimlaneBody=0;top=0;left=0;bottom=0;right=0;collapsible=0;dropTarget=0;fillColor=none;points=[[0,0.5],[1,0.5]];portConstraint=eastwest;" parent="um2tpRmu60vT5zUa6dgW-68" vertex="1">
          <mxGeometry y="21" width="110" height="19" as="geometry" />
        </mxCell>
        <mxCell id="um2tpRmu60vT5zUa6dgW-73" value="....." style="shape=partialRectangle;html=1;whiteSpace=wrap;connectable=0;fillColor=none;top=0;left=0;bottom=0;right=0;overflow=hidden;" parent="um2tpRmu60vT5zUa6dgW-72" vertex="1">
          <mxGeometry width="40" height="19" as="geometry">
            <mxRectangle width="40" height="19" as="alternateBounds" />
          </mxGeometry>
        </mxCell>
        <mxCell id="um2tpRmu60vT5zUa6dgW-74" value="....." style="shape=partialRectangle;html=1;whiteSpace=wrap;connectable=0;fillColor=none;top=0;left=0;bottom=0;right=0;overflow=hidden;" parent="um2tpRmu60vT5zUa6dgW-72" vertex="1">
          <mxGeometry x="40" width="70" height="19" as="geometry">
            <mxRectangle width="70" height="19" as="alternateBounds" />
          </mxGeometry>
        </mxCell>
        <mxCell id="um2tpRmu60vT5zUa6dgW-75" value="" style="shape=tableRow;horizontal=0;startSize=0;swimlaneHead=0;swimlaneBody=0;top=0;left=0;bottom=0;right=0;collapsible=0;dropTarget=0;fillColor=none;points=[[0,0.5],[1,0.5]];portConstraint=eastwest;" parent="um2tpRmu60vT5zUa6dgW-68" vertex="1">
          <mxGeometry y="40" width="110" height="21" as="geometry" />
        </mxCell>
        <mxCell id="um2tpRmu60vT5zUa6dgW-76" value="&lt;font style=&quot;font-size: 11px;&quot;&gt;21A7&lt;/font&gt;" style="shape=partialRectangle;html=1;whiteSpace=wrap;connectable=0;fillColor=none;top=0;left=0;bottom=0;right=0;overflow=hidden;" parent="um2tpRmu60vT5zUa6dgW-75" vertex="1">
          <mxGeometry width="40" height="21" as="geometry">
            <mxRectangle width="40" height="21" as="alternateBounds" />
          </mxGeometry>
        </mxCell>
        <mxCell id="um2tpRmu60vT5zUa6dgW-77" value="&lt;font style=&quot;font-size: 11px;&quot;&gt;DIP_2_CPU&lt;/font&gt;" style="shape=partialRectangle;html=1;whiteSpace=wrap;connectable=0;fillColor=none;top=0;left=0;bottom=0;right=0;overflow=hidden;" parent="um2tpRmu60vT5zUa6dgW-75" vertex="1">
          <mxGeometry x="40" width="70" height="21" as="geometry">
            <mxRectangle width="70" height="21" as="alternateBounds" />
          </mxGeometry>
        </mxCell>
        <mxCell id="um2tpRmu60vT5zUa6dgW-78" style="shape=tableRow;horizontal=0;startSize=0;swimlaneHead=0;swimlaneBody=0;top=0;left=0;bottom=0;right=0;collapsible=0;dropTarget=0;fillColor=none;points=[[0,0.5],[1,0.5]];portConstraint=eastwest;" parent="um2tpRmu60vT5zUa6dgW-68" vertex="1">
          <mxGeometry y="61" width="110" height="21" as="geometry" />
        </mxCell>
        <mxCell id="um2tpRmu60vT5zUa6dgW-79" value="&lt;font style=&quot;font-size: 11px;&quot;&gt;95BF&lt;/font&gt;" style="shape=partialRectangle;html=1;whiteSpace=wrap;connectable=0;fillColor=none;top=0;left=0;bottom=0;right=0;overflow=hidden;" parent="um2tpRmu60vT5zUa6dgW-78" vertex="1">
          <mxGeometry width="40" height="21" as="geometry">
            <mxRectangle width="40" height="21" as="alternateBounds" />
          </mxGeometry>
        </mxCell>
        <mxCell id="um2tpRmu60vT5zUa6dgW-80" value="&lt;font style=&quot;font-size: 11px;&quot;&gt;DIP_1_SNIC&lt;/font&gt;" style="shape=partialRectangle;html=1;whiteSpace=wrap;connectable=0;fillColor=none;top=0;left=0;bottom=0;right=0;overflow=hidden;" parent="um2tpRmu60vT5zUa6dgW-78" vertex="1">
          <mxGeometry x="40" width="70" height="21" as="geometry">
            <mxRectangle width="70" height="21" as="alternateBounds" />
          </mxGeometry>
        </mxCell>
        <mxCell id="um2tpRmu60vT5zUa6dgW-81" style="shape=tableRow;horizontal=0;startSize=0;swimlaneHead=0;swimlaneBody=0;top=0;left=0;bottom=0;right=0;collapsible=0;dropTarget=0;fillColor=none;points=[[0,0.5],[1,0.5]];portConstraint=eastwest;" parent="um2tpRmu60vT5zUa6dgW-68" vertex="1">
          <mxGeometry y="82" width="110" height="19" as="geometry" />
        </mxCell>
        <mxCell id="um2tpRmu60vT5zUa6dgW-82" value="....." style="shape=partialRectangle;html=1;whiteSpace=wrap;connectable=0;fillColor=none;top=0;left=0;bottom=0;right=0;overflow=hidden;" parent="um2tpRmu60vT5zUa6dgW-81" vertex="1">
          <mxGeometry width="40" height="19" as="geometry">
            <mxRectangle width="40" height="19" as="alternateBounds" />
          </mxGeometry>
        </mxCell>
        <mxCell id="um2tpRmu60vT5zUa6dgW-83" value="....." style="shape=partialRectangle;html=1;whiteSpace=wrap;connectable=0;fillColor=none;top=0;left=0;bottom=0;right=0;overflow=hidden;" parent="um2tpRmu60vT5zUa6dgW-81" vertex="1">
          <mxGeometry x="40" width="70" height="19" as="geometry">
            <mxRectangle width="70" height="19" as="alternateBounds" />
          </mxGeometry>
        </mxCell>
        <mxCell id="um2tpRmu60vT5zUa6dgW-84" value="" style="endArrow=classic;html=1;rounded=0;strokeWidth=2;" parent="1" edge="1">
          <mxGeometry width="50" height="50" relative="1" as="geometry">
            <mxPoint x="337" y="120" as="sourcePoint" />
            <mxPoint x="376" y="120" as="targetPoint" />
          </mxGeometry>
        </mxCell>
        <mxCell id="um2tpRmu60vT5zUa6dgW-86" value="&lt;b&gt;Pkt out&lt;/b&gt;" style="text;html=1;strokeColor=none;fillColor=none;align=center;verticalAlign=middle;whiteSpace=wrap;rounded=0;" parent="1" vertex="1">
          <mxGeometry x="798" y="115" width="51" height="20" as="geometry" />
        </mxCell>
        <mxCell id="um2tpRmu60vT5zUa6dgW-87" value="" style="endArrow=classic;html=1;rounded=0;strokeWidth=2;" parent="1" edge="1">
          <mxGeometry width="50" height="50" relative="1" as="geometry">
            <mxPoint x="800" y="144.9999999999999" as="sourcePoint" />
            <mxPoint x="840" y="144.9999999999999" as="targetPoint" />
          </mxGeometry>
        </mxCell>
        <mxCell id="um2tpRmu60vT5zUa6dgW-88" value="" style="endArrow=classic;html=1;rounded=0;strokeWidth=2;" parent="1" edge="1">
          <mxGeometry width="50" height="50" relative="1" as="geometry">
            <mxPoint x="696" y="135.25999999999988" as="sourcePoint" />
            <mxPoint x="718" y="135.25999999999988" as="targetPoint" />
          </mxGeometry>
        </mxCell>
        <mxCell id="um2tpRmu60vT5zUa6dgW-89" value="&lt;i&gt;&lt;font style=&quot;font-size: 12px;&quot;&gt;ConnTable&lt;/font&gt;&lt;/i&gt;" style="text;strokeColor=none;fillColor=none;align=left;verticalAlign=middle;spacingLeft=4;spacingRight=4;overflow=hidden;points=[[0,0.5],[1,0.5]];portConstraint=eastwest;rotatable=1;whiteSpace=wrap;html=1;strokeWidth=2;movable=1;resizable=1;deletable=1;editable=1;connectable=1;" parent="1" vertex="1">
          <mxGeometry x="600" y="194.5" width="70" height="25" as="geometry" />
        </mxCell>
        <mxCell id="um2tpRmu60vT5zUa6dgW-90" value="&lt;i&gt;&lt;font style=&quot;font-size: 12px;&quot;&gt;ServerTable&lt;/font&gt;&lt;/i&gt;" style="text;strokeColor=none;fillColor=none;align=left;verticalAlign=middle;spacingLeft=4;spacingRight=4;overflow=hidden;points=[[0,0.5],[1,0.5]];portConstraint=eastwest;rotatable=1;whiteSpace=wrap;html=1;strokeWidth=2;movable=1;resizable=1;deletable=1;editable=1;connectable=1;" parent="1" vertex="1">
          <mxGeometry x="247" y="160" width="85.23" height="25" as="geometry" />
        </mxCell>
        <mxCell id="um2tpRmu60vT5zUa6dgW-95" value="Hit" style="text;html=1;strokeColor=none;fillColor=none;align=center;verticalAlign=middle;whiteSpace=wrap;rounded=0;" parent="1" vertex="1">
          <mxGeometry x="190" y="84" width="20" height="10" as="geometry" />
        </mxCell>
        <mxCell id="fwf_eEtNBpNZPZ1BkpR8-48" value="" style="rounded=1;whiteSpace=wrap;html=1;fillStyle=solid;strokeColor=#000000;fontSize=10;fontColor=#000000;fillColor=#E6E6E6;" parent="1" vertex="1">
          <mxGeometry x="337.12" y="192" width="100" height="50" as="geometry" />
        </mxCell>
        <mxCell id="fwf_eEtNBpNZPZ1BkpR8-82" style="edgeStyle=orthogonalEdgeStyle;rounded=0;orthogonalLoop=1;jettySize=auto;html=1;exitX=0.5;exitY=0;exitDx=0;exitDy=0;entryX=0.364;entryY=0.986;entryDx=0;entryDy=0;entryPerimeter=0;dashed=1;dashPattern=1 1;strokeColor=#000000;strokeWidth=2;fontSize=12;fontColor=#000000;startArrow=none;startFill=0;endArrow=classic;endFill=1;fillColor=#97D077;" parent="1" source="fwf_eEtNBpNZPZ1BkpR8-47" target="um2tpRmu60vT5zUa6dgW-65" edge="1">
          <mxGeometry relative="1" as="geometry" />
        </mxCell>
        <mxCell id="fwf_eEtNBpNZPZ1BkpR8-87" style="edgeStyle=orthogonalEdgeStyle;rounded=0;orthogonalLoop=1;jettySize=auto;html=1;exitX=0;exitY=0.5;exitDx=0;exitDy=0;entryX=1;entryY=0.75;entryDx=0;entryDy=0;strokeColor=#000000;strokeWidth=2;fontSize=12;fontColor=#000000;startArrow=classic;startFill=1;endArrow=none;endFill=0;fillColor=#97D077;" parent="1" source="fwf_eEtNBpNZPZ1BkpR8-47" target="um2tpRmu60vT5zUa6dgW-1" edge="1">
          <mxGeometry relative="1" as="geometry">
            <Array as="points">
              <mxPoint x="140" y="215" />
            </Array>
          </mxGeometry>
        </mxCell>
        <mxCell id="fwf_eEtNBpNZPZ1BkpR8-47" value="" style="rounded=1;whiteSpace=wrap;html=1;fillStyle=solid;strokeColor=#000000;fontSize=10;fontColor=#000000;fillColor=#E6E6E6;" parent="1" vertex="1">
          <mxGeometry x="335.12" y="190" width="100" height="50" as="geometry" />
        </mxCell>
        <mxCell id="fwf_eEtNBpNZPZ1BkpR8-19" value="" style="shape=table;html=1;whiteSpace=wrap;startSize=0;container=1;collapsible=0;childLayout=tableLayout;fillStyle=solid;strokeColor=#000000;fontSize=12;fontColor=#000000;fillColor=#FFFFFF;" parent="1" vertex="1">
          <mxGeometry x="345" y="196" width="80" height="38" as="geometry" />
        </mxCell>
        <mxCell id="fwf_eEtNBpNZPZ1BkpR8-20" value="" style="shape=tableRow;horizontal=0;startSize=0;swimlaneHead=0;swimlaneBody=0;top=0;left=0;bottom=0;right=0;collapsible=0;dropTarget=0;fillColor=none;points=[[0,0.5],[1,0.5]];portConstraint=eastwest;fillStyle=solid;strokeColor=#000000;fontSize=12;fontColor=#000000;" parent="fwf_eEtNBpNZPZ1BkpR8-19" vertex="1">
          <mxGeometry width="80" height="20" as="geometry" />
        </mxCell>
        <mxCell id="fwf_eEtNBpNZPZ1BkpR8-21" value="D&lt;sub&gt;1&lt;/sub&gt;" style="shape=partialRectangle;html=1;whiteSpace=wrap;connectable=0;fillColor=none;top=0;left=0;bottom=0;right=0;overflow=hidden;fillStyle=solid;strokeColor=#000000;fontSize=12;fontColor=#000000;fontStyle=1" parent="fwf_eEtNBpNZPZ1BkpR8-20" vertex="1">
          <mxGeometry width="21" height="20" as="geometry">
            <mxRectangle width="21" height="20" as="alternateBounds" />
          </mxGeometry>
        </mxCell>
        <mxCell id="fwf_eEtNBpNZPZ1BkpR8-22" value="&lt;b&gt;D&lt;sub&gt;2&lt;/sub&gt;&lt;/b&gt;" style="shape=partialRectangle;html=1;whiteSpace=wrap;connectable=0;fillColor=none;top=0;left=0;bottom=0;right=0;overflow=hidden;fillStyle=solid;strokeColor=#000000;fontSize=12;fontColor=#000000;" parent="fwf_eEtNBpNZPZ1BkpR8-20" vertex="1">
          <mxGeometry x="21" width="20" height="20" as="geometry">
            <mxRectangle width="20" height="20" as="alternateBounds" />
          </mxGeometry>
        </mxCell>
        <mxCell id="fwf_eEtNBpNZPZ1BkpR8-23" value="..." style="shape=partialRectangle;html=1;whiteSpace=wrap;connectable=0;fillColor=none;top=0;left=0;bottom=0;right=0;overflow=hidden;fillStyle=solid;strokeColor=#000000;fontSize=12;fontColor=#000000;" parent="fwf_eEtNBpNZPZ1BkpR8-20" vertex="1">
          <mxGeometry x="41" width="20" height="20" as="geometry">
            <mxRectangle width="20" height="20" as="alternateBounds" />
          </mxGeometry>
        </mxCell>
        <mxCell id="fwf_eEtNBpNZPZ1BkpR8-32" value="&lt;b&gt;D&lt;sub&gt;m&lt;/sub&gt;&lt;/b&gt;" style="shape=partialRectangle;html=1;whiteSpace=wrap;connectable=0;fillColor=none;top=0;left=0;bottom=0;right=0;overflow=hidden;fillStyle=solid;strokeColor=#000000;fontSize=12;fontColor=#000000;" parent="fwf_eEtNBpNZPZ1BkpR8-20" vertex="1">
          <mxGeometry x="61" width="19" height="20" as="geometry">
            <mxRectangle width="19" height="20" as="alternateBounds" />
          </mxGeometry>
        </mxCell>
        <mxCell id="fwf_eEtNBpNZPZ1BkpR8-28" value="" style="shape=tableRow;horizontal=0;startSize=0;swimlaneHead=0;swimlaneBody=0;top=0;left=0;bottom=0;right=0;collapsible=0;dropTarget=0;fillColor=none;points=[[0,0.5],[1,0.5]];portConstraint=eastwest;fillStyle=solid;strokeColor=#000000;fontSize=12;fontColor=#000000;" parent="fwf_eEtNBpNZPZ1BkpR8-19" vertex="1">
          <mxGeometry y="20" width="80" height="18" as="geometry" />
        </mxCell>
        <mxCell id="fwf_eEtNBpNZPZ1BkpR8-29" value="2A" style="shape=partialRectangle;html=1;whiteSpace=wrap;connectable=0;fillColor=none;top=0;left=0;bottom=0;right=0;overflow=hidden;fillStyle=solid;strokeColor=#000000;fontSize=12;fontColor=#000000;" parent="fwf_eEtNBpNZPZ1BkpR8-28" vertex="1">
          <mxGeometry width="21" height="18" as="geometry">
            <mxRectangle width="21" height="18" as="alternateBounds" />
          </mxGeometry>
        </mxCell>
        <mxCell id="fwf_eEtNBpNZPZ1BkpR8-30" value="&lt;span style=&quot;font-weight: normal;&quot;&gt;FE&lt;/span&gt;" style="shape=partialRectangle;html=1;whiteSpace=wrap;connectable=0;fillColor=none;top=0;left=0;bottom=0;right=0;overflow=hidden;fillStyle=solid;strokeColor=#000000;fontSize=12;fontColor=#000000;fontStyle=1" parent="fwf_eEtNBpNZPZ1BkpR8-28" vertex="1">
          <mxGeometry x="21" width="20" height="18" as="geometry">
            <mxRectangle width="20" height="18" as="alternateBounds" />
          </mxGeometry>
        </mxCell>
        <mxCell id="fwf_eEtNBpNZPZ1BkpR8-31" value="" style="shape=partialRectangle;html=1;whiteSpace=wrap;connectable=0;fillColor=none;top=0;left=0;bottom=0;right=0;overflow=hidden;pointerEvents=1;fillStyle=solid;strokeColor=#000000;fontSize=12;fontColor=#000000;" parent="fwf_eEtNBpNZPZ1BkpR8-28" vertex="1">
          <mxGeometry x="41" width="20" height="18" as="geometry">
            <mxRectangle width="20" height="18" as="alternateBounds" />
          </mxGeometry>
        </mxCell>
        <mxCell id="fwf_eEtNBpNZPZ1BkpR8-34" value="B3" style="shape=partialRectangle;html=1;whiteSpace=wrap;connectable=0;fillColor=none;top=0;left=0;bottom=0;right=0;overflow=hidden;pointerEvents=1;fillStyle=solid;strokeColor=#000000;fontSize=12;fontColor=#000000;" parent="fwf_eEtNBpNZPZ1BkpR8-28" vertex="1">
          <mxGeometry x="61" width="19" height="18" as="geometry">
            <mxRectangle width="19" height="18" as="alternateBounds" />
          </mxGeometry>
        </mxCell>
        <mxCell id="fwf_eEtNBpNZPZ1BkpR8-64" value="" style="rounded=1;whiteSpace=wrap;html=1;fillStyle=solid;strokeColor=#000000;fontSize=10;fontColor=#000000;fillColor=#E6E6E6;" parent="1" vertex="1">
          <mxGeometry x="460.12" y="194" width="100" height="50" as="geometry" />
        </mxCell>
        <mxCell id="fwf_eEtNBpNZPZ1BkpR8-65" value="" style="rounded=1;whiteSpace=wrap;html=1;fillStyle=solid;strokeColor=#000000;fontSize=10;fontColor=#000000;fillColor=#E6E6E6;" parent="1" vertex="1">
          <mxGeometry x="458.12" y="192" width="100" height="50" as="geometry" />
        </mxCell>
        <mxCell id="fwf_eEtNBpNZPZ1BkpR8-81" style="edgeStyle=orthogonalEdgeStyle;rounded=0;orthogonalLoop=1;jettySize=auto;html=1;exitX=0.5;exitY=0;exitDx=0;exitDy=0;entryX=0.636;entryY=1;entryDx=0;entryDy=0;entryPerimeter=0;dashed=1;dashPattern=1 1;strokeColor=#000000;strokeWidth=2;fontSize=12;fontColor=#000000;startArrow=none;startFill=0;endArrow=classic;endFill=1;fillColor=#97D077;" parent="1" source="fwf_eEtNBpNZPZ1BkpR8-66" target="um2tpRmu60vT5zUa6dgW-65" edge="1">
          <mxGeometry relative="1" as="geometry" />
        </mxCell>
        <mxCell id="fwf_eEtNBpNZPZ1BkpR8-66" value="" style="rounded=1;whiteSpace=wrap;html=1;fillStyle=solid;strokeColor=#000000;fontSize=10;fontColor=#000000;fillColor=#E6E6E6;" parent="1" vertex="1">
          <mxGeometry x="456.12" y="190" width="100" height="50" as="geometry" />
        </mxCell>
        <mxCell id="fwf_eEtNBpNZPZ1BkpR8-35" value="" style="shape=table;html=1;whiteSpace=wrap;startSize=0;container=1;collapsible=0;childLayout=tableLayout;fillStyle=solid;strokeColor=#000000;fontSize=12;fontColor=#000000;fillColor=#FFFFFF;" parent="1" vertex="1">
          <mxGeometry x="466.12" y="196" width="80" height="19" as="geometry" />
        </mxCell>
        <mxCell id="fwf_eEtNBpNZPZ1BkpR8-36" value="" style="shape=tableRow;horizontal=0;startSize=0;swimlaneHead=0;swimlaneBody=0;top=0;left=0;bottom=0;right=0;collapsible=0;dropTarget=0;fillColor=none;points=[[0,0.5],[1,0.5]];portConstraint=eastwest;fillStyle=solid;strokeColor=#000000;fontSize=12;fontColor=#000000;" parent="fwf_eEtNBpNZPZ1BkpR8-35" vertex="1">
          <mxGeometry width="80" height="19" as="geometry" />
        </mxCell>
        <mxCell id="fwf_eEtNBpNZPZ1BkpR8-37" value="&lt;b&gt;D&lt;sub&gt;2&lt;/sub&gt;&lt;/b&gt;" style="shape=partialRectangle;html=1;whiteSpace=wrap;connectable=0;fillColor=none;top=0;left=0;bottom=0;right=0;overflow=hidden;fillStyle=solid;strokeColor=#000000;fontSize=12;fontColor=#000000;fontStyle=1" parent="fwf_eEtNBpNZPZ1BkpR8-36" vertex="1">
          <mxGeometry width="21" height="19" as="geometry">
            <mxRectangle width="21" height="19" as="alternateBounds" />
          </mxGeometry>
        </mxCell>
        <mxCell id="fwf_eEtNBpNZPZ1BkpR8-38" value="&lt;b&gt;D&lt;sub&gt;m&lt;/sub&gt;&lt;/b&gt;" style="shape=partialRectangle;html=1;whiteSpace=wrap;connectable=0;fillColor=none;top=0;left=0;bottom=0;right=0;overflow=hidden;fillStyle=solid;strokeColor=#000000;fontSize=12;fontColor=#000000;" parent="fwf_eEtNBpNZPZ1BkpR8-36" vertex="1">
          <mxGeometry x="21" width="19" height="19" as="geometry">
            <mxRectangle width="19" height="19" as="alternateBounds" />
          </mxGeometry>
        </mxCell>
        <mxCell id="fwf_eEtNBpNZPZ1BkpR8-39" value="..." style="shape=partialRectangle;html=1;whiteSpace=wrap;connectable=0;fillColor=none;top=0;left=0;bottom=0;right=0;overflow=hidden;fillStyle=solid;strokeColor=#000000;fontSize=12;fontColor=#000000;" parent="fwf_eEtNBpNZPZ1BkpR8-36" vertex="1">
          <mxGeometry x="40" width="21" height="19" as="geometry">
            <mxRectangle width="21" height="19" as="alternateBounds" />
          </mxGeometry>
        </mxCell>
        <mxCell id="fwf_eEtNBpNZPZ1BkpR8-40" value="..." style="shape=partialRectangle;html=1;whiteSpace=wrap;connectable=0;fillColor=none;top=0;left=0;bottom=0;right=0;overflow=hidden;fillStyle=solid;strokeColor=#000000;fontSize=12;fontColor=#000000;" parent="fwf_eEtNBpNZPZ1BkpR8-36" vertex="1">
          <mxGeometry x="61" width="19" height="19" as="geometry">
            <mxRectangle width="19" height="19" as="alternateBounds" />
          </mxGeometry>
        </mxCell>
        <mxCell id="fwf_eEtNBpNZPZ1BkpR8-46" value="&lt;i&gt;&lt;font style=&quot;font-size: 12px;&quot;&gt;RingBuffer&lt;/font&gt;&lt;/i&gt;" style="text;strokeColor=none;fillColor=none;align=left;verticalAlign=middle;spacingLeft=4;spacingRight=4;overflow=hidden;points=[[0,0.5],[1,0.5]];portConstraint=eastwest;rotatable=1;whiteSpace=wrap;html=1;strokeWidth=2;movable=1;resizable=1;deletable=1;editable=1;connectable=1;container=0;" parent="1" vertex="1">
          <mxGeometry x="471.62" y="215" width="69" height="25" as="geometry" />
        </mxCell>
        <mxCell id="um2tpRmu60vT5zUa6dgW-6" value="&lt;i&gt;Bloom Filter&lt;/i&gt;" style="rounded=1;whiteSpace=wrap;html=1;fillColor=#E6E6E6;strokeWidth=1;align=center;dashed=1;" parent="1" vertex="1">
          <mxGeometry x="172" y="119.5" width="40" height="40" as="geometry" />
        </mxCell>
      </root>
    </mxGraphModel>
  </diagram>
  <diagram id="PvNgJ-2dKIbODU9jf-R1" name="Page-4">
    <mxGraphModel dx="766" dy="471" grid="1" gridSize="10" guides="1" tooltips="1" connect="1" arrows="1" fold="1" page="1" pageScale="1" pageWidth="850" pageHeight="1100" math="0" shadow="0">
      <root>
        <mxCell id="0" />
        <mxCell id="1" parent="0" />
        <mxCell id="XL1DtRb1pfQN8ATcDu62-1" value="" style="rounded=1;whiteSpace=wrap;html=1;fontSize=12;fillColor=#E6E6E6;" parent="1" vertex="1">
          <mxGeometry x="120" y="238" width="240" height="80" as="geometry" />
        </mxCell>
        <mxCell id="XL1DtRb1pfQN8ATcDu62-2" value="" style="rounded=1;whiteSpace=wrap;html=1;fillStyle=solid;strokeColor=#000000;fontSize=10;fontColor=#000000;fillColor=#CCCCCC;" parent="1" vertex="1">
          <mxGeometry x="130" y="248" width="100" height="50" as="geometry" />
        </mxCell>
        <mxCell id="XL1DtRb1pfQN8ATcDu62-3" value="" style="rounded=1;whiteSpace=wrap;html=1;fillStyle=solid;strokeColor=#000000;fontSize=10;fontColor=#000000;fillColor=#CCCCCC;" parent="1" vertex="1">
          <mxGeometry x="251" y="248" width="100" height="50" as="geometry" />
        </mxCell>
        <mxCell id="XL1DtRb1pfQN8ATcDu62-4" value="" style="shape=table;html=1;whiteSpace=wrap;startSize=0;container=1;collapsible=0;childLayout=tableLayout;fillStyle=solid;strokeColor=#000000;fontSize=12;fontColor=#000000;fillColor=#FFFFFF;" parent="1" vertex="1">
          <mxGeometry x="140" y="254" width="80" height="38" as="geometry" />
        </mxCell>
        <mxCell id="XL1DtRb1pfQN8ATcDu62-5" value="" style="shape=tableRow;horizontal=0;startSize=0;swimlaneHead=0;swimlaneBody=0;top=0;left=0;bottom=0;right=0;collapsible=0;dropTarget=0;fillColor=none;points=[[0,0.5],[1,0.5]];portConstraint=eastwest;fillStyle=solid;strokeColor=#000000;fontSize=12;fontColor=#000000;" parent="XL1DtRb1pfQN8ATcDu62-4" vertex="1">
          <mxGeometry width="80" height="20" as="geometry" />
        </mxCell>
        <mxCell id="XL1DtRb1pfQN8ATcDu62-6" value="D&lt;sub&gt;1&lt;/sub&gt;" style="shape=partialRectangle;html=1;whiteSpace=wrap;connectable=0;fillColor=none;top=0;left=0;bottom=0;right=0;overflow=hidden;fillStyle=solid;strokeColor=#000000;fontSize=12;fontColor=#000000;fontStyle=1" parent="XL1DtRb1pfQN8ATcDu62-5" vertex="1">
          <mxGeometry width="21" height="20" as="geometry">
            <mxRectangle width="21" height="20" as="alternateBounds" />
          </mxGeometry>
        </mxCell>
        <mxCell id="XL1DtRb1pfQN8ATcDu62-7" value="&lt;b&gt;D&lt;sub&gt;2&lt;/sub&gt;&lt;/b&gt;" style="shape=partialRectangle;html=1;whiteSpace=wrap;connectable=0;fillColor=none;top=0;left=0;bottom=0;right=0;overflow=hidden;fillStyle=solid;strokeColor=#000000;fontSize=12;fontColor=#000000;" parent="XL1DtRb1pfQN8ATcDu62-5" vertex="1">
          <mxGeometry x="21" width="20" height="20" as="geometry">
            <mxRectangle width="20" height="20" as="alternateBounds" />
          </mxGeometry>
        </mxCell>
        <mxCell id="XL1DtRb1pfQN8ATcDu62-8" value="..." style="shape=partialRectangle;html=1;whiteSpace=wrap;connectable=0;fillColor=none;top=0;left=0;bottom=0;right=0;overflow=hidden;fillStyle=solid;strokeColor=#000000;fontSize=12;fontColor=#000000;" parent="XL1DtRb1pfQN8ATcDu62-5" vertex="1">
          <mxGeometry x="41" width="20" height="20" as="geometry">
            <mxRectangle width="20" height="20" as="alternateBounds" />
          </mxGeometry>
        </mxCell>
        <mxCell id="XL1DtRb1pfQN8ATcDu62-9" value="&lt;b&gt;D&lt;sub&gt;m&lt;/sub&gt;&lt;/b&gt;" style="shape=partialRectangle;html=1;whiteSpace=wrap;connectable=0;fillColor=none;top=0;left=0;bottom=0;right=0;overflow=hidden;fillStyle=solid;strokeColor=#000000;fontSize=12;fontColor=#000000;" parent="XL1DtRb1pfQN8ATcDu62-5" vertex="1">
          <mxGeometry x="61" width="19" height="20" as="geometry">
            <mxRectangle width="19" height="20" as="alternateBounds" />
          </mxGeometry>
        </mxCell>
        <mxCell id="XL1DtRb1pfQN8ATcDu62-10" value="" style="shape=tableRow;horizontal=0;startSize=0;swimlaneHead=0;swimlaneBody=0;top=0;left=0;bottom=0;right=0;collapsible=0;dropTarget=0;fillColor=none;points=[[0,0.5],[1,0.5]];portConstraint=eastwest;fillStyle=solid;strokeColor=#000000;fontSize=12;fontColor=#000000;" parent="XL1DtRb1pfQN8ATcDu62-4" vertex="1">
          <mxGeometry y="20" width="80" height="18" as="geometry" />
        </mxCell>
        <mxCell id="XL1DtRb1pfQN8ATcDu62-11" value="" style="shape=partialRectangle;html=1;whiteSpace=wrap;connectable=0;fillColor=none;top=0;left=0;bottom=0;right=0;overflow=hidden;fillStyle=solid;strokeColor=#000000;fontSize=12;fontColor=#000000;" parent="XL1DtRb1pfQN8ATcDu62-10" vertex="1">
          <mxGeometry width="21" height="18" as="geometry">
            <mxRectangle width="21" height="18" as="alternateBounds" />
          </mxGeometry>
        </mxCell>
        <mxCell id="XL1DtRb1pfQN8ATcDu62-12" value="" style="shape=partialRectangle;html=1;whiteSpace=wrap;connectable=0;fillColor=none;top=0;left=0;bottom=0;right=0;overflow=hidden;fillStyle=solid;strokeColor=#000000;fontSize=12;fontColor=#000000;fontStyle=1" parent="XL1DtRb1pfQN8ATcDu62-10" vertex="1">
          <mxGeometry x="21" width="20" height="18" as="geometry">
            <mxRectangle width="20" height="18" as="alternateBounds" />
          </mxGeometry>
        </mxCell>
        <mxCell id="XL1DtRb1pfQN8ATcDu62-13" value="" style="shape=partialRectangle;html=1;whiteSpace=wrap;connectable=0;fillColor=none;top=0;left=0;bottom=0;right=0;overflow=hidden;pointerEvents=1;fillStyle=solid;strokeColor=#000000;fontSize=12;fontColor=#000000;" parent="XL1DtRb1pfQN8ATcDu62-10" vertex="1">
          <mxGeometry x="41" width="20" height="18" as="geometry">
            <mxRectangle width="20" height="18" as="alternateBounds" />
          </mxGeometry>
        </mxCell>
        <mxCell id="XL1DtRb1pfQN8ATcDu62-14" value="" style="shape=partialRectangle;html=1;whiteSpace=wrap;connectable=0;fillColor=none;top=0;left=0;bottom=0;right=0;overflow=hidden;pointerEvents=1;fillStyle=solid;strokeColor=#000000;fontSize=12;fontColor=#000000;" parent="XL1DtRb1pfQN8ATcDu62-10" vertex="1">
          <mxGeometry x="61" width="19" height="18" as="geometry">
            <mxRectangle width="19" height="18" as="alternateBounds" />
          </mxGeometry>
        </mxCell>
        <mxCell id="XL1DtRb1pfQN8ATcDu62-15" value="" style="edgeStyle=orthogonalEdgeStyle;rounded=0;orthogonalLoop=1;jettySize=auto;html=1;fontSize=10;" parent="1" source="XL1DtRb1pfQN8ATcDu62-16" target="XL1DtRb1pfQN8ATcDu62-29" edge="1">
          <mxGeometry relative="1" as="geometry" />
        </mxCell>
        <mxCell id="XL1DtRb1pfQN8ATcDu62-16" value="&lt;font style=&quot;font-size: 10px;&quot;&gt;&amp;nbsp;P1 = P4Mite_API( &lt;i&gt;application&lt;/i&gt; = A, &lt;i&gt;block&lt;/i&gt; = MIN_FINDER_1, &lt;i&gt;configs&lt;/i&gt; = &quot;cpu&quot; );&lt;br&gt;&amp;nbsp;P2 = P4Mite_API(&amp;nbsp;&lt;i style=&quot;border-color: var(--border-color);&quot;&gt;application&lt;/i&gt;&amp;nbsp;= B,&amp;nbsp;&lt;i style=&quot;border-color: var(--border-color);&quot;&gt;block&lt;/i&gt;&amp;nbsp;= ROUND_ROBIN_1,&amp;nbsp;&lt;i style=&quot;border-color: var(--border-color);&quot;&gt;configs&lt;/i&gt;&amp;nbsp;= list_of_addrs );&lt;/font&gt;" style="rounded=1;whiteSpace=wrap;html=1;fillColor=#E6E6E6;align=left;" parent="1" vertex="1">
          <mxGeometry x="40" y="80" width="400" height="40" as="geometry" />
        </mxCell>
        <mxCell id="XL1DtRb1pfQN8ATcDu62-17" value="&lt;b&gt;&lt;font style=&quot;font-size: 12px;&quot;&gt;&lt;i&gt;P4Mite+&#39;s&amp;nbsp;&lt;/i&gt;&lt;/font&gt;&lt;/b&gt;&lt;span style=&quot;font-size: 12px;&quot;&gt;&lt;b&gt;Controller&lt;/b&gt;&lt;/span&gt;" style="text;html=1;strokeColor=none;fillColor=none;align=center;verticalAlign=middle;whiteSpace=wrap;rounded=0;fontSize=10;" parent="1" vertex="1">
          <mxGeometry x="180" y="50" width="120" height="30" as="geometry" />
        </mxCell>
        <mxCell id="XL1DtRb1pfQN8ATcDu62-18" value="&lt;span style=&quot;caret-color: rgb(0, 0, 0); color: rgb(0, 0, 0); font-family: Helvetica; font-style: normal; font-variant-caps: normal; letter-spacing: normal; text-indent: 0px; text-transform: none; word-spacing: 0px; -webkit-text-stroke-width: 0px; text-decoration: none;&quot;&gt;&lt;font style=&quot;font-size: 10px;&quot;&gt;Minimum Finder Block&lt;/font&gt;&lt;/span&gt;" style="text;whiteSpace=wrap;html=1;fontSize=12;align=center;" parent="1" vertex="1">
          <mxGeometry x="125" y="294" width="110" height="20" as="geometry" />
        </mxCell>
        <mxCell id="XL1DtRb1pfQN8ATcDu62-19" value="&lt;span style=&quot;caret-color: rgb(0, 0, 0); color: rgb(0, 0, 0); font-family: Helvetica; font-style: normal; font-variant-caps: normal; letter-spacing: normal; text-indent: 0px; text-transform: none; word-spacing: 0px; -webkit-text-stroke-width: 0px; text-decoration: none;&quot;&gt;&lt;font style=&quot;font-size: 10px;&quot;&gt;Round-Robin Block&lt;/font&gt;&lt;/span&gt;" style="text;whiteSpace=wrap;html=1;fontSize=12;align=right;" parent="1" vertex="1">
          <mxGeometry x="256" y="294" width="90" height="20" as="geometry" />
        </mxCell>
        <mxCell id="XL1DtRb1pfQN8ATcDu62-20" value="&lt;i style=&quot;border-color: var(--border-color); caret-color: rgb(0, 0, 0); color: rgb(0, 0, 0); font-family: Helvetica; font-variant-caps: normal; font-weight: 400; letter-spacing: normal; text-align: left; text-indent: 0px; text-transform: none; word-spacing: 0px; -webkit-text-stroke-width: 0px; text-decoration: none;&quot;&gt;&lt;font style=&quot;border-color: var(--border-color); font-size: 10px;&quot;&gt;RingBuffer&lt;/font&gt;&lt;/i&gt;" style="text;whiteSpace=wrap;html=1;fontSize=12;" parent="1" vertex="1">
          <mxGeometry x="276" y="274" width="50" height="20" as="geometry" />
        </mxCell>
        <mxCell id="XL1DtRb1pfQN8ATcDu62-21" value="&lt;b&gt;&lt;font style=&quot;font-size: 12px;&quot;&gt;&lt;i&gt;P4Mite+&#39;s&lt;br&gt;&lt;/i&gt;&lt;/font&gt;&lt;/b&gt;&lt;span style=&quot;font-size: 12px;&quot;&gt;&lt;b&gt;Data Plane&lt;/b&gt;&lt;/span&gt;" style="text;html=1;strokeColor=none;fillColor=none;align=center;verticalAlign=middle;whiteSpace=wrap;rounded=0;fontSize=10;" parent="1" vertex="1">
          <mxGeometry x="35" y="258" width="80" height="30" as="geometry" />
        </mxCell>
        <mxCell id="XL1DtRb1pfQN8ATcDu62-22" value="" style="shape=table;html=1;whiteSpace=wrap;startSize=0;container=1;collapsible=0;childLayout=tableLayout;fillStyle=solid;strokeColor=#000000;fontSize=12;fontColor=#000000;fillColor=#FFFFFF;" parent="1" vertex="1">
          <mxGeometry x="261" y="258" width="80" height="19" as="geometry" />
        </mxCell>
        <mxCell id="XL1DtRb1pfQN8ATcDu62-23" value="" style="shape=tableRow;horizontal=0;startSize=0;swimlaneHead=0;swimlaneBody=0;top=0;left=0;bottom=0;right=0;collapsible=0;dropTarget=0;fillColor=none;points=[[0,0.5],[1,0.5]];portConstraint=eastwest;fillStyle=solid;strokeColor=#000000;fontSize=12;fontColor=#000000;" parent="XL1DtRb1pfQN8ATcDu62-22" vertex="1">
          <mxGeometry width="80" height="19" as="geometry" />
        </mxCell>
        <mxCell id="XL1DtRb1pfQN8ATcDu62-24" value="" style="shape=partialRectangle;html=1;whiteSpace=wrap;connectable=0;fillColor=none;top=0;left=0;bottom=0;right=0;overflow=hidden;fillStyle=solid;strokeColor=#000000;fontSize=12;fontColor=#000000;fontStyle=1" parent="XL1DtRb1pfQN8ATcDu62-23" vertex="1">
          <mxGeometry width="20" height="19" as="geometry">
            <mxRectangle width="20" height="19" as="alternateBounds" />
          </mxGeometry>
        </mxCell>
        <mxCell id="XL1DtRb1pfQN8ATcDu62-25" value="" style="shape=partialRectangle;html=1;whiteSpace=wrap;connectable=0;fillColor=none;top=0;left=0;bottom=0;right=0;overflow=hidden;fillStyle=solid;strokeColor=#000000;fontSize=12;fontColor=#000000;" parent="XL1DtRb1pfQN8ATcDu62-23" vertex="1">
          <mxGeometry x="20" width="20" height="19" as="geometry">
            <mxRectangle width="20" height="19" as="alternateBounds" />
          </mxGeometry>
        </mxCell>
        <mxCell id="XL1DtRb1pfQN8ATcDu62-26" value="" style="shape=partialRectangle;html=1;whiteSpace=wrap;connectable=0;fillColor=none;top=0;left=0;bottom=0;right=0;overflow=hidden;fillStyle=solid;strokeColor=#000000;fontSize=12;fontColor=#000000;" parent="XL1DtRb1pfQN8ATcDu62-23" vertex="1">
          <mxGeometry x="40" width="21" height="19" as="geometry">
            <mxRectangle width="21" height="19" as="alternateBounds" />
          </mxGeometry>
        </mxCell>
        <mxCell id="XL1DtRb1pfQN8ATcDu62-27" value="" style="shape=partialRectangle;html=1;whiteSpace=wrap;connectable=0;fillColor=none;top=0;left=0;bottom=0;right=0;overflow=hidden;fillStyle=solid;strokeColor=#000000;fontSize=12;fontColor=#000000;" parent="XL1DtRb1pfQN8ATcDu62-23" vertex="1">
          <mxGeometry x="61" width="19" height="19" as="geometry">
            <mxRectangle width="19" height="19" as="alternateBounds" />
          </mxGeometry>
        </mxCell>
        <mxCell id="XL1DtRb1pfQN8ATcDu62-28" style="edgeStyle=orthogonalEdgeStyle;rounded=0;orthogonalLoop=1;jettySize=auto;html=1;entryX=0.5;entryY=0;entryDx=0;entryDy=0;fontSize=10;" parent="1" source="XL1DtRb1pfQN8ATcDu62-29" target="XL1DtRb1pfQN8ATcDu62-1" edge="1">
          <mxGeometry relative="1" as="geometry" />
        </mxCell>
        <mxCell id="XL1DtRb1pfQN8ATcDu62-29" value="&lt;font style=&quot;font-size: 10px;&quot;&gt;&lt;span style=&quot;box-sizing: border-box; caret-color: rgb(36, 41, 47); color: rgb(36, 41, 47); font-family: ui-monospace, SFMono-Regular, &amp;quot;SF Mono&amp;quot;, Menlo, Consolas, &amp;quot;Liberation Mono&amp;quot;, monospace;&quot; class=&quot;pl-s1&quot;&gt;table1 =&amp;nbsp;&lt;/span&gt;&lt;span style=&quot;box-sizing: border-box; caret-color: rgb(36, 41, 47); color: rgb(36, 41, 47); font-family: ui-monospace, SFMono-Regular, &amp;quot;SF Mono&amp;quot;, Menlo, Consolas, &amp;quot;Liberation Mono&amp;quot;, monospace;&quot; class=&quot;pl-s1&quot;&gt;&lt;span style=&quot;box-sizing: border-box;&quot; class=&quot;pl-s1&quot;&gt;&lt;span style=&quot;box-sizing: border-box;&quot; data-hydro-click-hmac=&quot;2a436835fc5ef6b760e35751623cc45943185b24ba9a71ffb8ef2b517b1baef5&quot; data-hydro-click=&quot;{&amp;quot;event_type&amp;quot;:&amp;quot;code_navigation.click_on_symbol&amp;quot;,&amp;quot;payload&amp;quot;:{&amp;quot;action&amp;quot;:&amp;quot;click_on_symbol&amp;quot;,&amp;quot;repository_id&amp;quot;:557904590,&amp;quot;ref&amp;quot;:&amp;quot;main&amp;quot;,&amp;quot;language&amp;quot;:&amp;quot;Python&amp;quot;,&amp;quot;backend&amp;quot;:&amp;quot;ALEPH_PRECISE&amp;quot;,&amp;quot;code_nav_context&amp;quot;:&amp;quot;BLOB_VIEW&amp;quot;,&amp;quot;retry_backend&amp;quot;:&amp;quot;&amp;quot;,&amp;quot;cross_repo_results_included&amp;quot;:&amp;quot;CROSS_REPO_ENABLED&amp;quot;,&amp;quot;in_repo_result_count&amp;quot;:0,&amp;quot;cross_repo_result_count&amp;quot;:0,&amp;quot;originating_url&amp;quot;:&amp;quot;https://github.com/hesam4g/p4mite_extention/find-definition?q=bfrt&amp;amp;blob_path=switches%2Fconfig_p4mite_switch.py&amp;amp;ref=main&amp;amp;language=Python&amp;amp;row=9&amp;amp;col=9&amp;amp;code_nav_context=BLOB_VIEW&amp;quot;,&amp;quot;user_id&amp;quot;:53886945}}&quot; class=&quot;pl-token&quot;&gt;bfrt.p&lt;/span&gt;&lt;/span&gt;&lt;span style=&quot;box-sizing: border-box;&quot; class=&quot;pl-s1&quot;&gt;&lt;span style=&quot;box-sizing: border-box;&quot; data-hydro-click-hmac=&quot;5e274c7812f84dbbff3da63ae26c8de558ae433352c2b484f5d7e0b324393d5f&quot; data-hydro-click=&quot;{&amp;quot;event_type&amp;quot;:&amp;quot;code_navigation.click_on_symbol&amp;quot;,&amp;quot;payload&amp;quot;:{&amp;quot;action&amp;quot;:&amp;quot;click_on_symbol&amp;quot;,&amp;quot;repository_id&amp;quot;:557904590,&amp;quot;ref&amp;quot;:&amp;quot;main&amp;quot;,&amp;quot;language&amp;quot;:&amp;quot;Python&amp;quot;,&amp;quot;backend&amp;quot;:&amp;quot;ALEPH_PRECISE&amp;quot;,&amp;quot;code_nav_context&amp;quot;:&amp;quot;BLOB_VIEW&amp;quot;,&amp;quot;retry_backend&amp;quot;:&amp;quot;&amp;quot;,&amp;quot;cross_repo_results_included&amp;quot;:&amp;quot;CROSS_REPO_ENABLED&amp;quot;,&amp;quot;in_repo_result_count&amp;quot;:0,&amp;quot;cross_repo_result_count&amp;quot;:0,&amp;quot;originating_url&amp;quot;:&amp;quot;https://github.com/hesam4g/p4mite_extention/find-definition?q=p4mite_switch&amp;amp;blob_path=switches%2Fconfig_p4mite_switch.py&amp;amp;ref=main&amp;amp;language=Python&amp;amp;row=9&amp;amp;col=14&amp;amp;code_nav_context=BLOB_VIEW&amp;quot;,&amp;quot;user_id&amp;quot;:53886945}}&quot; class=&quot;pl-token&quot;&gt;4mite_switch.p&lt;/span&gt;&lt;/span&gt;&lt;span style=&quot;box-sizing: border-box;&quot; class=&quot;pl-s1&quot;&gt;&lt;span style=&quot;box-sizing: border-box;&quot; data-hydro-click-hmac=&quot;350c55396cd5a3f600c546b257ee5b9ca0b42286add24cfba7a3732befc34e5e&quot; data-hydro-click=&quot;{&amp;quot;event_type&amp;quot;:&amp;quot;code_navigation.click_on_symbol&amp;quot;,&amp;quot;payload&amp;quot;:{&amp;quot;action&amp;quot;:&amp;quot;click_on_symbol&amp;quot;,&amp;quot;repository_id&amp;quot;:557904590,&amp;quot;ref&amp;quot;:&amp;quot;main&amp;quot;,&amp;quot;language&amp;quot;:&amp;quot;Python&amp;quot;,&amp;quot;backend&amp;quot;:&amp;quot;ALEPH_PRECISE&amp;quot;,&amp;quot;code_nav_context&amp;quot;:&amp;quot;BLOB_VIEW&amp;quot;,&amp;quot;retry_backend&amp;quot;:&amp;quot;&amp;quot;,&amp;quot;cross_repo_results_included&amp;quot;:&amp;quot;CROSS_REPO_ENABLED&amp;quot;,&amp;quot;in_repo_result_count&amp;quot;:0,&amp;quot;cross_repo_result_count&amp;quot;:0,&amp;quot;originating_url&amp;quot;:&amp;quot;https://github.com/hesam4g/p4mite_extention/find-definition?q=pipe&amp;amp;blob_path=switches%2Fconfig_p4mite_switch.py&amp;amp;ref=main&amp;amp;language=Python&amp;amp;row=9&amp;amp;col=28&amp;amp;code_nav_context=BLOB_VIEW&amp;quot;,&amp;quot;user_id&amp;quot;:53886945}}&quot; class=&quot;pl-token&quot;&gt;ipe.S&lt;/span&gt;&lt;/span&gt;&lt;span style=&quot;caret-color: rgb(0, 0, 0); color: var(--color-prettylights-syntax-variable); box-sizing: border-box;&quot; class=&quot;pl-v&quot;&gt;&lt;span style=&quot;box-sizing: border-box;&quot; data-hydro-click-hmac=&quot;d81f397b11ccb53fd08498dd97b5b4eac053f8d4b3d4a0db2836509d21d1d664&quot; data-hydro-click=&quot;{&amp;quot;event_type&amp;quot;:&amp;quot;code_navigation.click_on_symbol&amp;quot;,&amp;quot;payload&amp;quot;:{&amp;quot;action&amp;quot;:&amp;quot;click_on_symbol&amp;quot;,&amp;quot;repository_id&amp;quot;:557904590,&amp;quot;ref&amp;quot;:&amp;quot;main&amp;quot;,&amp;quot;language&amp;quot;:&amp;quot;Python&amp;quot;,&amp;quot;backend&amp;quot;:&amp;quot;ALEPH_PRECISE&amp;quot;,&amp;quot;code_nav_context&amp;quot;:&amp;quot;BLOB_VIEW&amp;quot;,&amp;quot;retry_backend&amp;quot;:&amp;quot;&amp;quot;,&amp;quot;cross_repo_results_included&amp;quot;:&amp;quot;CROSS_REPO_ENABLED&amp;quot;,&amp;quot;in_repo_result_count&amp;quot;:0,&amp;quot;cross_repo_result_count&amp;quot;:0,&amp;quot;originating_url&amp;quot;:&amp;quot;https://github.com/hesam4g/p4mite_extention/find-definition?q=SwitchIngress&amp;amp;blob_path=switches%2Fconfig_p4mite_switch.py&amp;amp;ref=main&amp;amp;language=Python&amp;amp;row=9&amp;amp;col=33&amp;amp;code_nav_context=BLOB_VIEW&amp;quot;,&amp;quot;user_id&amp;quot;:53886945}}&quot; class=&quot;pl-token&quot;&gt;witchIngress.L&lt;/span&gt;&lt;/span&gt;&lt;span style=&quot;caret-color: rgb(0, 0, 0); color: var(--color-prettylights-syntax-variable); box-sizing: border-box;&quot; class=&quot;pl-v&quot;&gt;&lt;span style=&quot;box-sizing: border-box;&quot; data-hydro-click-hmac=&quot;82fa9777df7bb2f7675cb684264f14c93be509317ef00fa7d0184d7ffb700d14&quot; data-hydro-click=&quot;{&amp;quot;event_type&amp;quot;:&amp;quot;code_navigation.click_on_symbol&amp;quot;,&amp;quot;payload&amp;quot;:{&amp;quot;action&amp;quot;:&amp;quot;click_on_symbol&amp;quot;,&amp;quot;repository_id&amp;quot;:557904590,&amp;quot;ref&amp;quot;:&amp;quot;main&amp;quot;,&amp;quot;language&amp;quot;:&amp;quot;Python&amp;quot;,&amp;quot;backend&amp;quot;:&amp;quot;ALEPH_PRECISE&amp;quot;,&amp;quot;code_nav_context&amp;quot;:&amp;quot;BLOB_VIEW&amp;quot;,&amp;quot;retry_backend&amp;quot;:&amp;quot;&amp;quot;,&amp;quot;cross_repo_results_included&amp;quot;:&amp;quot;CROSS_REPO_ENABLED&amp;quot;,&amp;quot;in_repo_result_count&amp;quot;:0,&amp;quot;cross_repo_result_count&amp;quot;:0,&amp;quot;originating_url&amp;quot;:&amp;quot;https://github.com/hesam4g/p4mite_extention/find-definition?q=LB&amp;amp;blob_path=switches%2Fconfig_p4mite_switch.py&amp;amp;ref=main&amp;amp;language=Python&amp;amp;row=9&amp;amp;col=47&amp;amp;code_nav_context=BLOB_VIEW&amp;quot;,&amp;quot;user_id&amp;quot;:53886945}}&quot; class=&quot;pl-token&quot;&gt;B&lt;/span&gt;&lt;/span&gt;&lt;br&gt;table1.entry.....&lt;br&gt;....&lt;br&gt;&lt;/span&gt;&lt;/font&gt;" style="rounded=1;whiteSpace=wrap;html=1;fillColor=#E6E6E6;align=left;" parent="1" vertex="1">
          <mxGeometry x="80" y="156" width="320" height="50" as="geometry" />
        </mxCell>
        <mxCell id="XL1DtRb1pfQN8ATcDu62-30" value="&lt;span style=&quot;font-size: 12px;&quot;&gt;&lt;b&gt;&lt;i&gt;bfrt&lt;br&gt;python&lt;/i&gt;&lt;/b&gt;&lt;/span&gt;" style="text;html=1;strokeColor=none;fillColor=none;align=center;verticalAlign=middle;whiteSpace=wrap;rounded=0;fontSize=10;" parent="1" vertex="1">
          <mxGeometry x="35" y="166" width="40" height="30" as="geometry" />
        </mxCell>
      </root>
    </mxGraphModel>
  </diagram>
  <diagram id="g55aGMTwCiON7Z1VBBpn" name="Page-5">
    <mxGraphModel dx="766" dy="540" grid="1" gridSize="10" guides="1" tooltips="1" connect="1" arrows="1" fold="1" page="1" pageScale="1" pageWidth="850" pageHeight="1100" math="0" shadow="0">
      <root>
        <mxCell id="0" />
        <mxCell id="1" parent="0" />
        <mxCell id="G6s9FtMbQmXNUWGg7AcM-2" value="Translating high-level APIs&lt;br&gt;to the switch&#39;s APIs" style="ellipse;shape=cloud;whiteSpace=wrap;html=1;fillStyle=auto;fontSize=10;fontColor=#000000;fillColor=#ffffff;" parent="1" vertex="1">
          <mxGeometry x="242" y="120" width="180" height="52" as="geometry" />
        </mxCell>
        <mxCell id="wia6o61AGkdjEPCD2GIf-1" style="edgeStyle=orthogonalEdgeStyle;orthogonalLoop=1;jettySize=auto;html=1;entryX=1;entryY=0.25;entryDx=0;entryDy=0;fontSize=9;exitX=1;exitY=0.5;exitDx=0;exitDy=0;curved=1;" parent="1" source="ZzKCK1yKLStkMZ7FrMW--3" target="ZzKCK1yKLStkMZ7FrMW--28" edge="1">
          <mxGeometry relative="1" as="geometry" />
        </mxCell>
        <mxCell id="ZzKCK1yKLStkMZ7FrMW--3" value="&lt;font style=&quot;font-size: 9px;&quot;&gt;&amp;nbsp;P1 =&amp;nbsp;H4uler_API ( &lt;i&gt;application&lt;/i&gt; = A, &lt;i&gt;block&lt;/i&gt; = MIN_FINDER_1, &lt;i&gt;configs&lt;/i&gt; = &quot;cpu&quot; );&lt;br&gt;&amp;nbsp;P2 = H4uler_API (&amp;nbsp;&lt;i style=&quot;border-color: var(--border-color);&quot;&gt;application&lt;/i&gt;&amp;nbsp;= B,&amp;nbsp;&lt;i style=&quot;border-color: var(--border-color);&quot;&gt;block&lt;/i&gt;&amp;nbsp;= ROUND_ROBIN_1,&amp;nbsp;&lt;i style=&quot;border-color: var(--border-color);&quot;&gt;configs&lt;/i&gt;&amp;nbsp;= list_of_addrs );&lt;/font&gt;" style="rounded=1;whiteSpace=wrap;html=1;fillColor=#E6E6E6;align=left;" parent="1" vertex="1">
          <mxGeometry x="40" y="80" width="360" height="40" as="geometry" />
        </mxCell>
        <mxCell id="ZzKCK1yKLStkMZ7FrMW--4" value="&lt;b&gt;&lt;font style=&quot;font-size: 12px;&quot;&gt;&lt;i&gt;H4uler&#39;s&amp;nbsp;&lt;/i&gt;&lt;/font&gt;&lt;/b&gt;&lt;span style=&quot;font-size: 12px;&quot;&gt;&lt;b&gt;Controller&lt;/b&gt;&lt;/span&gt;" style="text;html=1;strokeColor=none;fillColor=none;align=center;verticalAlign=middle;whiteSpace=wrap;rounded=0;fontSize=10;" parent="1" vertex="1">
          <mxGeometry x="160" y="55" width="120" height="30" as="geometry" />
        </mxCell>
        <mxCell id="wia6o61AGkdjEPCD2GIf-16" style="edgeStyle=orthogonalEdgeStyle;curved=1;orthogonalLoop=1;jettySize=auto;html=1;entryX=1;entryY=0.5;entryDx=0;entryDy=0;fontSize=10;fontColor=#000000;exitX=1;exitY=0.75;exitDx=0;exitDy=0;" parent="1" source="ZzKCK1yKLStkMZ7FrMW--28" target="wia6o61AGkdjEPCD2GIf-5" edge="1">
          <mxGeometry relative="1" as="geometry" />
        </mxCell>
        <mxCell id="ZzKCK1yKLStkMZ7FrMW--28" value="&lt;font style=&quot;font-size: 10px;&quot;&gt;&lt;span style=&quot;box-sizing: border-box; caret-color: rgb(36, 41, 47); color: rgb(36, 41, 47); font-family: ui-monospace, SFMono-Regular, &amp;quot;SF Mono&amp;quot;, Menlo, Consolas, &amp;quot;Liberation Mono&amp;quot;, monospace;&quot; class=&quot;pl-s1&quot;&gt;table1 =&amp;nbsp;&lt;/span&gt;&lt;span style=&quot;box-sizing: border-box; caret-color: rgb(36, 41, 47); color: rgb(36, 41, 47); font-family: ui-monospace, SFMono-Regular, &amp;quot;SF Mono&amp;quot;, Menlo, Consolas, &amp;quot;Liberation Mono&amp;quot;, monospace;&quot; class=&quot;pl-s1&quot;&gt;&lt;span style=&quot;box-sizing: border-box;&quot; class=&quot;pl-s1&quot;&gt;&lt;span style=&quot;box-sizing: border-box;&quot; data-hydro-click-hmac=&quot;2a436835fc5ef6b760e35751623cc45943185b24ba9a71ffb8ef2b517b1baef5&quot; data-hydro-click=&quot;{&amp;quot;event_type&amp;quot;:&amp;quot;code_navigation.click_on_symbol&amp;quot;,&amp;quot;payload&amp;quot;:{&amp;quot;action&amp;quot;:&amp;quot;click_on_symbol&amp;quot;,&amp;quot;repository_id&amp;quot;:557904590,&amp;quot;ref&amp;quot;:&amp;quot;main&amp;quot;,&amp;quot;language&amp;quot;:&amp;quot;Python&amp;quot;,&amp;quot;backend&amp;quot;:&amp;quot;ALEPH_PRECISE&amp;quot;,&amp;quot;code_nav_context&amp;quot;:&amp;quot;BLOB_VIEW&amp;quot;,&amp;quot;retry_backend&amp;quot;:&amp;quot;&amp;quot;,&amp;quot;cross_repo_results_included&amp;quot;:&amp;quot;CROSS_REPO_ENABLED&amp;quot;,&amp;quot;in_repo_result_count&amp;quot;:0,&amp;quot;cross_repo_result_count&amp;quot;:0,&amp;quot;originating_url&amp;quot;:&amp;quot;https://github.com/hesam4g/p4mite_extention/find-definition?q=bfrt&amp;amp;blob_path=switches%2Fconfig_p4mite_switch.py&amp;amp;ref=main&amp;amp;language=Python&amp;amp;row=9&amp;amp;col=9&amp;amp;code_nav_context=BLOB_VIEW&amp;quot;,&amp;quot;user_id&amp;quot;:53886945}}&quot; class=&quot;pl-token&quot;&gt;bfrt.h4uler&lt;/span&gt;&lt;/span&gt;&lt;span style=&quot;box-sizing: border-box;&quot; class=&quot;pl-s1&quot;&gt;&lt;span style=&quot;box-sizing: border-box;&quot; data-hydro-click-hmac=&quot;5e274c7812f84dbbff3da63ae26c8de558ae433352c2b484f5d7e0b324393d5f&quot; data-hydro-click=&quot;{&amp;quot;event_type&amp;quot;:&amp;quot;code_navigation.click_on_symbol&amp;quot;,&amp;quot;payload&amp;quot;:{&amp;quot;action&amp;quot;:&amp;quot;click_on_symbol&amp;quot;,&amp;quot;repository_id&amp;quot;:557904590,&amp;quot;ref&amp;quot;:&amp;quot;main&amp;quot;,&amp;quot;language&amp;quot;:&amp;quot;Python&amp;quot;,&amp;quot;backend&amp;quot;:&amp;quot;ALEPH_PRECISE&amp;quot;,&amp;quot;code_nav_context&amp;quot;:&amp;quot;BLOB_VIEW&amp;quot;,&amp;quot;retry_backend&amp;quot;:&amp;quot;&amp;quot;,&amp;quot;cross_repo_results_included&amp;quot;:&amp;quot;CROSS_REPO_ENABLED&amp;quot;,&amp;quot;in_repo_result_count&amp;quot;:0,&amp;quot;cross_repo_result_count&amp;quot;:0,&amp;quot;originating_url&amp;quot;:&amp;quot;https://github.com/hesam4g/p4mite_extention/find-definition?q=p4mite_switch&amp;amp;blob_path=switches%2Fconfig_p4mite_switch.py&amp;amp;ref=main&amp;amp;language=Python&amp;amp;row=9&amp;amp;col=14&amp;amp;code_nav_context=BLOB_VIEW&amp;quot;,&amp;quot;user_id&amp;quot;:53886945}}&quot; class=&quot;pl-token&quot;&gt;_switch.p&lt;/span&gt;&lt;/span&gt;&lt;span style=&quot;box-sizing: border-box;&quot; class=&quot;pl-s1&quot;&gt;&lt;span style=&quot;box-sizing: border-box;&quot; data-hydro-click-hmac=&quot;350c55396cd5a3f600c546b257ee5b9ca0b42286add24cfba7a3732befc34e5e&quot; data-hydro-click=&quot;{&amp;quot;event_type&amp;quot;:&amp;quot;code_navigation.click_on_symbol&amp;quot;,&amp;quot;payload&amp;quot;:{&amp;quot;action&amp;quot;:&amp;quot;click_on_symbol&amp;quot;,&amp;quot;repository_id&amp;quot;:557904590,&amp;quot;ref&amp;quot;:&amp;quot;main&amp;quot;,&amp;quot;language&amp;quot;:&amp;quot;Python&amp;quot;,&amp;quot;backend&amp;quot;:&amp;quot;ALEPH_PRECISE&amp;quot;,&amp;quot;code_nav_context&amp;quot;:&amp;quot;BLOB_VIEW&amp;quot;,&amp;quot;retry_backend&amp;quot;:&amp;quot;&amp;quot;,&amp;quot;cross_repo_results_included&amp;quot;:&amp;quot;CROSS_REPO_ENABLED&amp;quot;,&amp;quot;in_repo_result_count&amp;quot;:0,&amp;quot;cross_repo_result_count&amp;quot;:0,&amp;quot;originating_url&amp;quot;:&amp;quot;https://github.com/hesam4g/p4mite_extention/find-definition?q=pipe&amp;amp;blob_path=switches%2Fconfig_p4mite_switch.py&amp;amp;ref=main&amp;amp;language=Python&amp;amp;row=9&amp;amp;col=28&amp;amp;code_nav_context=BLOB_VIEW&amp;quot;,&amp;quot;user_id&amp;quot;:53886945}}&quot; class=&quot;pl-token&quot;&gt;ipe.S&lt;/span&gt;&lt;/span&gt;&lt;span style=&quot;caret-color: rgb(0, 0, 0); color: var(--color-prettylights-syntax-variable); box-sizing: border-box;&quot; class=&quot;pl-v&quot;&gt;&lt;span style=&quot;box-sizing: border-box;&quot; data-hydro-click-hmac=&quot;d81f397b11ccb53fd08498dd97b5b4eac053f8d4b3d4a0db2836509d21d1d664&quot; data-hydro-click=&quot;{&amp;quot;event_type&amp;quot;:&amp;quot;code_navigation.click_on_symbol&amp;quot;,&amp;quot;payload&amp;quot;:{&amp;quot;action&amp;quot;:&amp;quot;click_on_symbol&amp;quot;,&amp;quot;repository_id&amp;quot;:557904590,&amp;quot;ref&amp;quot;:&amp;quot;main&amp;quot;,&amp;quot;language&amp;quot;:&amp;quot;Python&amp;quot;,&amp;quot;backend&amp;quot;:&amp;quot;ALEPH_PRECISE&amp;quot;,&amp;quot;code_nav_context&amp;quot;:&amp;quot;BLOB_VIEW&amp;quot;,&amp;quot;retry_backend&amp;quot;:&amp;quot;&amp;quot;,&amp;quot;cross_repo_results_included&amp;quot;:&amp;quot;CROSS_REPO_ENABLED&amp;quot;,&amp;quot;in_repo_result_count&amp;quot;:0,&amp;quot;cross_repo_result_count&amp;quot;:0,&amp;quot;originating_url&amp;quot;:&amp;quot;https://github.com/hesam4g/p4mite_extention/find-definition?q=SwitchIngress&amp;amp;blob_path=switches%2Fconfig_p4mite_switch.py&amp;amp;ref=main&amp;amp;language=Python&amp;amp;row=9&amp;amp;col=33&amp;amp;code_nav_context=BLOB_VIEW&amp;quot;,&amp;quot;user_id&amp;quot;:53886945}}&quot; class=&quot;pl-token&quot;&gt;witchIngress.L&lt;/span&gt;&lt;/span&gt;&lt;span style=&quot;caret-color: rgb(0, 0, 0); color: var(--color-prettylights-syntax-variable); box-sizing: border-box;&quot; class=&quot;pl-v&quot;&gt;&lt;span style=&quot;box-sizing: border-box;&quot; data-hydro-click-hmac=&quot;82fa9777df7bb2f7675cb684264f14c93be509317ef00fa7d0184d7ffb700d14&quot; data-hydro-click=&quot;{&amp;quot;event_type&amp;quot;:&amp;quot;code_navigation.click_on_symbol&amp;quot;,&amp;quot;payload&amp;quot;:{&amp;quot;action&amp;quot;:&amp;quot;click_on_symbol&amp;quot;,&amp;quot;repository_id&amp;quot;:557904590,&amp;quot;ref&amp;quot;:&amp;quot;main&amp;quot;,&amp;quot;language&amp;quot;:&amp;quot;Python&amp;quot;,&amp;quot;backend&amp;quot;:&amp;quot;ALEPH_PRECISE&amp;quot;,&amp;quot;code_nav_context&amp;quot;:&amp;quot;BLOB_VIEW&amp;quot;,&amp;quot;retry_backend&amp;quot;:&amp;quot;&amp;quot;,&amp;quot;cross_repo_results_included&amp;quot;:&amp;quot;CROSS_REPO_ENABLED&amp;quot;,&amp;quot;in_repo_result_count&amp;quot;:0,&amp;quot;cross_repo_result_count&amp;quot;:0,&amp;quot;originating_url&amp;quot;:&amp;quot;https://github.com/hesam4g/p4mite_extention/find-definition?q=LB&amp;amp;blob_path=switches%2Fconfig_p4mite_switch.py&amp;amp;ref=main&amp;amp;language=Python&amp;amp;row=9&amp;amp;col=47&amp;amp;code_nav_context=BLOB_VIEW&amp;quot;,&amp;quot;user_id&amp;quot;:53886945}}&quot; class=&quot;pl-token&quot;&gt;B&lt;/span&gt;&lt;/span&gt;&lt;br&gt;table1.entry.....&lt;br&gt;....&lt;br&gt;&lt;/span&gt;&lt;/font&gt;" style="rounded=1;whiteSpace=wrap;html=1;fillColor=#E6E6E6;align=left;" parent="1" vertex="1">
          <mxGeometry x="80" y="176" width="320" height="44" as="geometry" />
        </mxCell>
        <mxCell id="ZzKCK1yKLStkMZ7FrMW--29" value="&lt;span style=&quot;font-size: 12px;&quot;&gt;&lt;b&gt;&lt;i&gt;bfrt&lt;br&gt;python&lt;/i&gt;&lt;/b&gt;&lt;/span&gt;" style="text;html=1;strokeColor=none;fillColor=none;align=center;verticalAlign=middle;whiteSpace=wrap;rounded=0;fontSize=10;" parent="1" vertex="1">
          <mxGeometry x="35" y="176" width="40" height="30" as="geometry" />
        </mxCell>
        <mxCell id="wia6o61AGkdjEPCD2GIf-5" value="" style="rounded=1;whiteSpace=wrap;html=1;fillColor=#E6E6E6;align=left;" parent="1" vertex="1">
          <mxGeometry x="110" y="282" width="290" height="40" as="geometry" />
        </mxCell>
        <mxCell id="wia6o61AGkdjEPCD2GIf-6" value="RR_1" style="rounded=1;whiteSpace=wrap;html=1;fontSize=10;fillColor=#cdeb8b;strokeColor=#36393d;" parent="1" vertex="1">
          <mxGeometry x="260" y="287" width="40" height="30" as="geometry" />
        </mxCell>
        <mxCell id="wia6o61AGkdjEPCD2GIf-7" value="&lt;font color=&quot;#ff0000&quot;&gt;RR_2&lt;/font&gt;" style="rounded=1;whiteSpace=wrap;html=1;fontSize=10;fontColor=#000000;fillStyle=cross-hatch;fillColor=#FF6666;" parent="1" vertex="1">
          <mxGeometry x="312" y="287" width="40" height="30" as="geometry" />
        </mxCell>
        <mxCell id="wia6o61AGkdjEPCD2GIf-9" value="MF_1" style="rounded=1;whiteSpace=wrap;html=1;fontSize=10;fillColor=#cdeb8b;strokeColor=#36393d;" parent="1" vertex="1">
          <mxGeometry x="119" y="287" width="40" height="30" as="geometry" />
        </mxCell>
        <mxCell id="wia6o61AGkdjEPCD2GIf-14" value="&lt;font color=&quot;#ff0000&quot;&gt;MF_2&lt;/font&gt;" style="rounded=1;whiteSpace=wrap;html=1;fontSize=10;fontColor=#000000;fillStyle=cross-hatch;fillColor=#FF0000;" parent="1" vertex="1">
          <mxGeometry x="171" y="287" width="40" height="30" as="geometry" />
        </mxCell>
        <mxCell id="G6s9FtMbQmXNUWGg7AcM-1" value="&lt;b&gt;&lt;font style=&quot;font-size: 12px;&quot;&gt;&lt;i&gt;H4uler&#39;s&lt;br&gt;&lt;/i&gt;&lt;/font&gt;&lt;/b&gt;&lt;span style=&quot;font-size: 12px;&quot;&gt;&lt;b&gt;Data Plane&lt;/b&gt;&lt;/span&gt;" style="text;html=1;strokeColor=none;fillColor=none;align=center;verticalAlign=middle;whiteSpace=wrap;rounded=0;fontSize=10;" parent="1" vertex="1">
          <mxGeometry x="35" y="269.5" width="70" height="59" as="geometry" />
        </mxCell>
        <mxCell id="G6s9FtMbQmXNUWGg7AcM-3" value="Enabling the required blocks&amp;nbsp;&lt;br&gt;in the data plane" style="ellipse;shape=cloud;whiteSpace=wrap;html=1;fillStyle=auto;fontSize=10;fontColor=#000000;fillColor=#ffffff;" parent="1" vertex="1">
          <mxGeometry x="242" y="225" width="180" height="52" as="geometry" />
        </mxCell>
        <mxCell id="G6s9FtMbQmXNUWGg7AcM-5" value="&lt;font style=&quot;font-size: 15px;&quot;&gt;&lt;b&gt;...&lt;/b&gt;&lt;/font&gt;" style="text;html=1;strokeColor=none;fillColor=none;align=center;verticalAlign=middle;whiteSpace=wrap;rounded=0;fillStyle=auto;fontSize=10;fontColor=#000000;" parent="1" vertex="1">
          <mxGeometry x="352" y="290" width="30" height="20" as="geometry" />
        </mxCell>
        <mxCell id="G6s9FtMbQmXNUWGg7AcM-6" value="&lt;font style=&quot;font-size: 15px;&quot;&gt;&lt;b&gt;...&lt;/b&gt;&lt;/font&gt;" style="text;html=1;strokeColor=none;fillColor=none;align=center;verticalAlign=middle;whiteSpace=wrap;rounded=0;fillStyle=auto;fontSize=10;fontColor=#000000;" parent="1" vertex="1">
          <mxGeometry x="210" y="290" width="30" height="20" as="geometry" />
        </mxCell>
      </root>
    </mxGraphModel>
  </diagram>
  <diagram id="sHoDnOfPHiHWKUfp2_3e" name="Page-6">
    <mxGraphModel dx="766" dy="471" grid="1" gridSize="10" guides="1" tooltips="1" connect="1" arrows="1" fold="1" page="1" pageScale="1" pageWidth="850" pageHeight="1100" math="0" shadow="0">
      <root>
        <mxCell id="0" />
        <mxCell id="1" parent="0" />
        <mxCell id="sE83vLI_tNRmGvKVRHke-2" style="edgeStyle=orthogonalEdgeStyle;orthogonalLoop=1;jettySize=auto;html=1;entryX=1;entryY=0.25;entryDx=0;entryDy=0;fontSize=9;exitX=1;exitY=0.5;exitDx=0;exitDy=0;curved=1;" parent="1" source="sE83vLI_tNRmGvKVRHke-3" target="sE83vLI_tNRmGvKVRHke-6" edge="1">
          <mxGeometry relative="1" as="geometry" />
        </mxCell>
        <mxCell id="sE83vLI_tNRmGvKVRHke-3" value="&lt;font style=&quot;font-size: 9.5px;&quot;&gt;&amp;nbsp;P1 = P4Hauler_API ( &lt;i&gt;application&lt;/i&gt; = A, &lt;i&gt;block&lt;/i&gt; = MIN_FINDER_1, &lt;i&gt;configs&lt;/i&gt; = &quot;cpu&quot; );&lt;br&gt;&amp;nbsp;P2 =&amp;nbsp;P4Hauler_API&amp;nbsp;(&amp;nbsp;&lt;i style=&quot;border-color: var(--border-color);&quot;&gt;application&lt;/i&gt;&amp;nbsp;= B,&amp;nbsp;&lt;i style=&quot;border-color: var(--border-color);&quot;&gt;block&lt;/i&gt;&amp;nbsp;= ROUND_ROBIN_1,&amp;nbsp;&lt;i style=&quot;border-color: var(--border-color);&quot;&gt;configs&lt;/i&gt;&amp;nbsp;=list_of_weights);&lt;/font&gt;" style="rounded=1;whiteSpace=wrap;html=1;fillColor=#E6E6E6;align=left;" parent="1" vertex="1">
          <mxGeometry x="30" y="80" width="410" height="40" as="geometry" />
        </mxCell>
        <mxCell id="sE83vLI_tNRmGvKVRHke-4" value="&lt;b&gt;&lt;font style=&quot;font-size: 12px;&quot;&gt;&lt;i&gt;P4Hauler&amp;nbsp;&lt;/i&gt;&lt;/font&gt;&lt;/b&gt;&lt;span style=&quot;font-size: 12px;&quot;&gt;&lt;b&gt;Controller&lt;/b&gt;&lt;/span&gt;" style="text;html=1;strokeColor=none;fillColor=none;align=center;verticalAlign=middle;whiteSpace=wrap;rounded=0;fontSize=10;" parent="1" vertex="1">
          <mxGeometry x="160" y="55" width="120" height="30" as="geometry" />
        </mxCell>
        <mxCell id="sE83vLI_tNRmGvKVRHke-5" style="edgeStyle=orthogonalEdgeStyle;curved=1;orthogonalLoop=1;jettySize=auto;html=1;entryX=1;entryY=0.5;entryDx=0;entryDy=0;fontSize=10;fontColor=#000000;exitX=1;exitY=0.75;exitDx=0;exitDy=0;" parent="1" source="sE83vLI_tNRmGvKVRHke-6" target="sE83vLI_tNRmGvKVRHke-8" edge="1">
          <mxGeometry relative="1" as="geometry" />
        </mxCell>
        <mxCell id="sE83vLI_tNRmGvKVRHke-6" value="&lt;font style=&quot;font-size: 10px;&quot;&gt;&lt;span style=&quot;box-sizing: border-box; caret-color: rgb(36, 41, 47); color: rgb(36, 41, 47); font-family: ui-monospace, SFMono-Regular, &amp;quot;SF Mono&amp;quot;, Menlo, Consolas, &amp;quot;Liberation Mono&amp;quot;, monospace;&quot; class=&quot;pl-s1&quot;&gt;&amp;nbsp; &lt;br&gt;&amp;nbsp; table1 =&amp;nbsp;&lt;/span&gt;&lt;span style=&quot;box-sizing: border-box; caret-color: rgb(36, 41, 47); color: rgb(36, 41, 47); font-family: ui-monospace, SFMono-Regular, &amp;quot;SF Mono&amp;quot;, Menlo, Consolas, &amp;quot;Liberation Mono&amp;quot;, monospace;&quot; class=&quot;pl-s1&quot;&gt;&lt;span style=&quot;box-sizing: border-box;&quot; class=&quot;pl-s1&quot;&gt;&lt;span style=&quot;box-sizing: border-box;&quot; data-hydro-click-hmac=&quot;2a436835fc5ef6b760e35751623cc45943185b24ba9a71ffb8ef2b517b1baef5&quot; data-hydro-click=&quot;{&amp;quot;event_type&amp;quot;:&amp;quot;code_navigation.click_on_symbol&amp;quot;,&amp;quot;payload&amp;quot;:{&amp;quot;action&amp;quot;:&amp;quot;click_on_symbol&amp;quot;,&amp;quot;repository_id&amp;quot;:557904590,&amp;quot;ref&amp;quot;:&amp;quot;main&amp;quot;,&amp;quot;language&amp;quot;:&amp;quot;Python&amp;quot;,&amp;quot;backend&amp;quot;:&amp;quot;ALEPH_PRECISE&amp;quot;,&amp;quot;code_nav_context&amp;quot;:&amp;quot;BLOB_VIEW&amp;quot;,&amp;quot;retry_backend&amp;quot;:&amp;quot;&amp;quot;,&amp;quot;cross_repo_results_included&amp;quot;:&amp;quot;CROSS_REPO_ENABLED&amp;quot;,&amp;quot;in_repo_result_count&amp;quot;:0,&amp;quot;cross_repo_result_count&amp;quot;:0,&amp;quot;originating_url&amp;quot;:&amp;quot;https://github.com/hesam4g/p4mite_extention/find-definition?q=bfrt&amp;amp;blob_path=switches%2Fconfig_p4mite_switch.py&amp;amp;ref=main&amp;amp;language=Python&amp;amp;row=9&amp;amp;col=9&amp;amp;code_nav_context=BLOB_VIEW&amp;quot;,&amp;quot;user_id&amp;quot;:53886945}}&quot; class=&quot;pl-token&quot;&gt;bfrt.P4Hauler&lt;/span&gt;&lt;/span&gt;&lt;span style=&quot;box-sizing: border-box;&quot; class=&quot;pl-s1&quot;&gt;&lt;span style=&quot;box-sizing: border-box;&quot; data-hydro-click-hmac=&quot;5e274c7812f84dbbff3da63ae26c8de558ae433352c2b484f5d7e0b324393d5f&quot; data-hydro-click=&quot;{&amp;quot;event_type&amp;quot;:&amp;quot;code_navigation.click_on_symbol&amp;quot;,&amp;quot;payload&amp;quot;:{&amp;quot;action&amp;quot;:&amp;quot;click_on_symbol&amp;quot;,&amp;quot;repository_id&amp;quot;:557904590,&amp;quot;ref&amp;quot;:&amp;quot;main&amp;quot;,&amp;quot;language&amp;quot;:&amp;quot;Python&amp;quot;,&amp;quot;backend&amp;quot;:&amp;quot;ALEPH_PRECISE&amp;quot;,&amp;quot;code_nav_context&amp;quot;:&amp;quot;BLOB_VIEW&amp;quot;,&amp;quot;retry_backend&amp;quot;:&amp;quot;&amp;quot;,&amp;quot;cross_repo_results_included&amp;quot;:&amp;quot;CROSS_REPO_ENABLED&amp;quot;,&amp;quot;in_repo_result_count&amp;quot;:0,&amp;quot;cross_repo_result_count&amp;quot;:0,&amp;quot;originating_url&amp;quot;:&amp;quot;https://github.com/hesam4g/p4mite_extention/find-definition?q=p4mite_switch&amp;amp;blob_path=switches%2Fconfig_p4mite_switch.py&amp;amp;ref=main&amp;amp;language=Python&amp;amp;row=9&amp;amp;col=14&amp;amp;code_nav_context=BLOB_VIEW&amp;quot;,&amp;quot;user_id&amp;quot;:53886945}}&quot; class=&quot;pl-token&quot;&gt;_switch.p&lt;/span&gt;&lt;/span&gt;&lt;span style=&quot;box-sizing: border-box;&quot; class=&quot;pl-s1&quot;&gt;&lt;span style=&quot;box-sizing: border-box;&quot; data-hydro-click-hmac=&quot;350c55396cd5a3f600c546b257ee5b9ca0b42286add24cfba7a3732befc34e5e&quot; data-hydro-click=&quot;{&amp;quot;event_type&amp;quot;:&amp;quot;code_navigation.click_on_symbol&amp;quot;,&amp;quot;payload&amp;quot;:{&amp;quot;action&amp;quot;:&amp;quot;click_on_symbol&amp;quot;,&amp;quot;repository_id&amp;quot;:557904590,&amp;quot;ref&amp;quot;:&amp;quot;main&amp;quot;,&amp;quot;language&amp;quot;:&amp;quot;Python&amp;quot;,&amp;quot;backend&amp;quot;:&amp;quot;ALEPH_PRECISE&amp;quot;,&amp;quot;code_nav_context&amp;quot;:&amp;quot;BLOB_VIEW&amp;quot;,&amp;quot;retry_backend&amp;quot;:&amp;quot;&amp;quot;,&amp;quot;cross_repo_results_included&amp;quot;:&amp;quot;CROSS_REPO_ENABLED&amp;quot;,&amp;quot;in_repo_result_count&amp;quot;:0,&amp;quot;cross_repo_result_count&amp;quot;:0,&amp;quot;originating_url&amp;quot;:&amp;quot;https://github.com/hesam4g/p4mite_extention/find-definition?q=pipe&amp;amp;blob_path=switches%2Fconfig_p4mite_switch.py&amp;amp;ref=main&amp;amp;language=Python&amp;amp;row=9&amp;amp;col=28&amp;amp;code_nav_context=BLOB_VIEW&amp;quot;,&amp;quot;user_id&amp;quot;:53886945}}&quot; class=&quot;pl-token&quot;&gt;ipe.S&lt;/span&gt;&lt;/span&gt;&lt;span style=&quot;caret-color: rgb(0, 0, 0); color: var(--color-prettylights-syntax-variable); box-sizing: border-box;&quot; class=&quot;pl-v&quot;&gt;&lt;span style=&quot;box-sizing: border-box;&quot; data-hydro-click-hmac=&quot;d81f397b11ccb53fd08498dd97b5b4eac053f8d4b3d4a0db2836509d21d1d664&quot; data-hydro-click=&quot;{&amp;quot;event_type&amp;quot;:&amp;quot;code_navigation.click_on_symbol&amp;quot;,&amp;quot;payload&amp;quot;:{&amp;quot;action&amp;quot;:&amp;quot;click_on_symbol&amp;quot;,&amp;quot;repository_id&amp;quot;:557904590,&amp;quot;ref&amp;quot;:&amp;quot;main&amp;quot;,&amp;quot;language&amp;quot;:&amp;quot;Python&amp;quot;,&amp;quot;backend&amp;quot;:&amp;quot;ALEPH_PRECISE&amp;quot;,&amp;quot;code_nav_context&amp;quot;:&amp;quot;BLOB_VIEW&amp;quot;,&amp;quot;retry_backend&amp;quot;:&amp;quot;&amp;quot;,&amp;quot;cross_repo_results_included&amp;quot;:&amp;quot;CROSS_REPO_ENABLED&amp;quot;,&amp;quot;in_repo_result_count&amp;quot;:0,&amp;quot;cross_repo_result_count&amp;quot;:0,&amp;quot;originating_url&amp;quot;:&amp;quot;https://github.com/hesam4g/p4mite_extention/find-definition?q=SwitchIngress&amp;amp;blob_path=switches%2Fconfig_p4mite_switch.py&amp;amp;ref=main&amp;amp;language=Python&amp;amp;row=9&amp;amp;col=33&amp;amp;code_nav_context=BLOB_VIEW&amp;quot;,&amp;quot;user_id&amp;quot;:53886945}}&quot; class=&quot;pl-token&quot;&gt;witchIngress.MF_1&lt;/span&gt;&lt;/span&gt;&lt;br&gt;&amp;nbsp; table1.entry_with_MF1_config(dst_port=&amp;lt;A&#39;s PORT&amp;gt;).push()&lt;br&gt;&amp;nbsp; ....&lt;br&gt;&lt;br&gt;&amp;nbsp; table2 = bfrf.P4Hauler_switch_pipe.SwitchIngress.RR_1&lt;br&gt;&amp;nbsp; table2.entry_with_RR1_config(dst_port=&amp;lt;B&#39;s PORT&amp;gt;).push()&lt;br&gt;&amp;nbsp; ....&lt;br&gt;&lt;br&gt;&lt;/span&gt;&lt;/font&gt;" style="rounded=1;whiteSpace=wrap;html=1;fillColor=#E6E6E6;align=left;" parent="1" vertex="1">
          <mxGeometry x="70" y="130" width="369" height="110" as="geometry" />
        </mxCell>
        <mxCell id="sE83vLI_tNRmGvKVRHke-7" value="&lt;span style=&quot;font-size: 12px;&quot;&gt;&lt;b&gt;&lt;i&gt;bfrt&lt;br&gt;python&lt;/i&gt;&lt;/b&gt;&lt;/span&gt;" style="text;html=1;strokeColor=none;fillColor=none;align=center;verticalAlign=middle;whiteSpace=wrap;rounded=0;fontSize=10;" parent="1" vertex="1">
          <mxGeometry x="24" y="161" width="40" height="30" as="geometry" />
        </mxCell>
        <mxCell id="sE83vLI_tNRmGvKVRHke-8" value="" style="rounded=1;whiteSpace=wrap;html=1;fillColor=#E6E6E6;align=left;movable=1;resizable=1;rotatable=1;deletable=1;editable=1;connectable=1;" parent="1" vertex="1">
          <mxGeometry x="150" y="249.5" width="290" height="40" as="geometry" />
        </mxCell>
        <mxCell id="sE83vLI_tNRmGvKVRHke-11" value="MF_1" style="rounded=1;whiteSpace=wrap;html=1;fontSize=10;fillColor=#cdeb8b;strokeColor=#36393d;movable=1;resizable=1;rotatable=1;deletable=1;editable=1;connectable=1;" parent="1" vertex="1">
          <mxGeometry x="160" y="254" width="40" height="30" as="geometry" />
        </mxCell>
        <mxCell id="sE83vLI_tNRmGvKVRHke-12" value="&lt;font color=&quot;#ff0000&quot;&gt;MF_2&lt;/font&gt;" style="rounded=1;whiteSpace=wrap;html=1;fontSize=10;fontColor=#000000;fillStyle=cross-hatch;fillColor=#FF0000;movable=1;resizable=1;rotatable=1;deletable=1;editable=1;connectable=1;" parent="1" vertex="1">
          <mxGeometry x="210" y="254" width="40" height="30" as="geometry" />
        </mxCell>
        <mxCell id="sE83vLI_tNRmGvKVRHke-13" value="&lt;b&gt;&lt;font style=&quot;font-size: 12px;&quot;&gt;&lt;i&gt;P4Hauler&lt;br&gt;&lt;/i&gt;&lt;/font&gt;&lt;/b&gt;&lt;span style=&quot;font-size: 12px;&quot;&gt;&lt;b&gt;Data Plane&lt;/b&gt;&lt;/span&gt;" style="text;html=1;strokeColor=none;fillColor=none;align=center;verticalAlign=middle;whiteSpace=wrap;rounded=0;fontSize=10;" parent="1" vertex="1">
          <mxGeometry x="64" y="239.5" width="70" height="59" as="geometry" />
        </mxCell>
        <mxCell id="sE83vLI_tNRmGvKVRHke-15" value="&lt;font style=&quot;font-size: 15px;&quot;&gt;&lt;b&gt;...&lt;/b&gt;&lt;/font&gt;" style="text;html=1;strokeColor=none;fillColor=none;align=center;verticalAlign=middle;whiteSpace=wrap;rounded=0;fillStyle=auto;fontSize=10;fontColor=#000000;movable=1;resizable=1;rotatable=1;deletable=1;editable=1;connectable=1;" parent="1" vertex="1">
          <mxGeometry x="390" y="254" width="30" height="20" as="geometry" />
        </mxCell>
        <mxCell id="sE83vLI_tNRmGvKVRHke-16" value="&lt;font style=&quot;font-size: 15px;&quot;&gt;&lt;b&gt;...&lt;/b&gt;&lt;/font&gt;" style="text;html=1;strokeColor=none;fillColor=none;align=center;verticalAlign=middle;whiteSpace=wrap;rounded=0;fillStyle=auto;fontSize=10;fontColor=#000000;movable=1;resizable=1;rotatable=1;deletable=1;editable=1;connectable=1;" parent="1" vertex="1">
          <mxGeometry x="250" y="254" width="30" height="20" as="geometry" />
        </mxCell>
        <mxCell id="rOUYtIIfhse8Ty61GhLC-2" value="&lt;font color=&quot;#ff0000&quot;&gt;RR_2&lt;/font&gt;" style="rounded=1;whiteSpace=wrap;html=1;fontSize=10;fontColor=#000000;fillStyle=cross-hatch;fillColor=#FF0000;movable=1;resizable=1;rotatable=1;deletable=1;editable=1;connectable=1;" parent="1" vertex="1">
          <mxGeometry x="350" y="254" width="41.5" height="30" as="geometry" />
        </mxCell>
        <mxCell id="rOUYtIIfhse8Ty61GhLC-6" value="RR_1" style="rounded=1;whiteSpace=wrap;html=1;fontSize=10;fillColor=#cdeb8b;strokeColor=#36393d;movable=1;resizable=1;rotatable=1;deletable=1;editable=1;connectable=1;" parent="1" vertex="1">
          <mxGeometry x="300" y="254" width="40" height="30" as="geometry" />
        </mxCell>
      </root>
    </mxGraphModel>
  </diagram>
</mxfile>
